<?xml version="1.0" encoding="UTF-8"?>
<svg id="Layer_1" data-name="Layer 1" xmlns="http://www.w3.org/2000/svg" xmlns:xlink="http://www.w3.org/1999/xlink" viewBox="0 0 99.79 23.05">
  <defs>
    <linearGradient id="linear-gradient" x1="12.88" y1="1074.76" x2="17.91" y2="1074.76" gradientTransform="translate(0 -1057.92)" gradientUnits="userSpaceOnUse">
      <stop offset="0" stop-color="#b7d433"/>
      <stop offset=".14" stop-color="#a4cd35"/>
      <stop offset=".43" stop-color="#74bc3b"/>
      <stop offset=".83" stop-color="#27a043"/>
      <stop offset="1" stop-color="#059447"/>
    </linearGradient>
    <linearGradient id="linear-gradient-2" x1="9.72" y1="1074.86" x2="14.05" y2="1074.86" gradientTransform="translate(0 -1057.92)" gradientUnits="userSpaceOnUse">
      <stop offset="0" stop-color="#b7d433"/>
      <stop offset=".14" stop-color="#a4cd35"/>
      <stop offset=".43" stop-color="#74bc3b"/>
      <stop offset=".83" stop-color="#27a043"/>
      <stop offset="1" stop-color="#059447"/>
    </linearGradient>
    <linearGradient id="linear-gradient-3" x1="10.48" y1="1071.82" x2="12.44" y2="1071.82" gradientTransform="translate(0 -1057.92)" gradientUnits="userSpaceOnUse">
      <stop offset="0" stop-color="#e63933"/>
      <stop offset=".49" stop-color="#f15a29"/>
      <stop offset="1" stop-color="#fed20d"/>
    </linearGradient>
    <linearGradient id="linear-gradient-4" x1="15.6" y1="1071.12" x2="17.68" y2="1071.12" gradientTransform="translate(0 -1057.92)" gradientUnits="userSpaceOnUse">
      <stop offset="0" stop-color="#ffde17"/>
      <stop offset=".49" stop-color="#f7b61b"/>
      <stop offset="1" stop-color="#fbb040"/>
    </linearGradient>
    <linearGradient id="linear-gradient-5" x1="9.63" y1="1072.7" x2="11.68" y2="1072.7" gradientTransform="translate(0 -1057.92)" gradientUnits="userSpaceOnUse">
      <stop offset="0" stop-color="#e63933"/>
      <stop offset=".49" stop-color="#f15a29"/>
      <stop offset="1" stop-color="#fed20d"/>
    </linearGradient>
    <linearGradient id="linear-gradient-6" x1="10.91" y1="1074.57" x2="13.38" y2="1074.57" gradientTransform="translate(0 -1057.92)" gradientUnits="userSpaceOnUse">
      <stop offset="0" stop-color="#b7d433"/>
      <stop offset=".14" stop-color="#a4cd35"/>
      <stop offset=".43" stop-color="#74bc3b"/>
      <stop offset=".83" stop-color="#27a043"/>
      <stop offset="1" stop-color="#059447"/>
    </linearGradient>
    <linearGradient id="linear-gradient-7" x1="11.97" y1="1069.38" x2="13.65" y2="1069.38" gradientTransform="translate(0 -1057.92)" gradientUnits="userSpaceOnUse">
      <stop offset="0" stop-color="#ffde17"/>
      <stop offset=".49" stop-color="#f7b61b"/>
      <stop offset="1" stop-color="#fbb040"/>
    </linearGradient>
    <linearGradient id="linear-gradient-8" x1="9.76" y1="1070.18" x2="12.68" y2="1070.18" gradientTransform="translate(0 -1057.92)" gradientUnits="userSpaceOnUse">
      <stop offset="0" stop-color="#e63933"/>
      <stop offset=".49" stop-color="#f15a29"/>
      <stop offset="1" stop-color="#fed20d"/>
    </linearGradient>
    <linearGradient id="linear-gradient-9" x1="13.04" y1="1069.1" x2="15.36" y2="1069.1" gradientTransform="translate(0 -1057.92)" gradientUnits="userSpaceOnUse">
      <stop offset="0" stop-color="#ffde17"/>
      <stop offset=".49" stop-color="#f7b61b"/>
      <stop offset="1" stop-color="#fbb040"/>
    </linearGradient>
    <linearGradient id="linear-gradient-10" x1="13.95" y1="1069.44" x2="15.93" y2="1069.44" gradientTransform="translate(0 -1057.92)" gradientUnits="userSpaceOnUse">
      <stop offset="0" stop-color="#ffde17"/>
      <stop offset=".49" stop-color="#f7b61b"/>
      <stop offset="1" stop-color="#fbb040"/>
    </linearGradient>
    <linearGradient id="linear-gradient-11" x1="14.32" y1="1069.46" x2="15.54" y2="1069.46" gradientTransform="translate(0 -1057.92)" gradientUnits="userSpaceOnUse">
      <stop offset="0" stop-color="#ffde17"/>
      <stop offset=".49" stop-color="#f7b61b"/>
      <stop offset="1" stop-color="#fbb040"/>
    </linearGradient>
    <linearGradient id="linear-gradient-12" x1="11.98" y1="1073.06" x2="13.64" y2="1073.06" gradientTransform="translate(0 -1057.92)" gradientUnits="userSpaceOnUse">
      <stop offset="0" stop-color="#b7d433"/>
      <stop offset=".14" stop-color="#a4cd35"/>
      <stop offset=".43" stop-color="#74bc3b"/>
      <stop offset=".83" stop-color="#27a043"/>
      <stop offset="1" stop-color="#059447"/>
    </linearGradient>
    <linearGradient id="linear-gradient-13" x1="16.54" y1="1075.27" x2="18.18" y2="1075.27" gradientTransform="translate(0 -1057.92)" gradientUnits="userSpaceOnUse">
      <stop offset="0" stop-color="#b7d433"/>
      <stop offset=".14" stop-color="#a4cd35"/>
      <stop offset=".43" stop-color="#74bc3b"/>
      <stop offset=".83" stop-color="#27a043"/>
      <stop offset="1" stop-color="#059447"/>
    </linearGradient>
    <linearGradient id="linear-gradient-14" x1="12.36" y1="1076.17" x2="13.63" y2="1076.17" gradientTransform="translate(0 -1057.92)" gradientUnits="userSpaceOnUse">
      <stop offset="0" stop-color="#b7d433"/>
      <stop offset=".14" stop-color="#a4cd35"/>
      <stop offset=".43" stop-color="#74bc3b"/>
      <stop offset=".83" stop-color="#27a043"/>
      <stop offset="1" stop-color="#059447"/>
    </linearGradient>
    <linearGradient id="linear-gradient-15" x1="12.33" y1="1073.09" x2="13.28" y2="1073.09" gradientTransform="translate(0 -1057.92)" gradientUnits="userSpaceOnUse">
      <stop offset="0" stop-color="#b7d433"/>
      <stop offset=".14" stop-color="#a4cd35"/>
      <stop offset=".43" stop-color="#74bc3b"/>
      <stop offset=".83" stop-color="#27a043"/>
      <stop offset="1" stop-color="#059447"/>
    </linearGradient>
    <linearGradient id="linear-gradient-16" x1="15.43" y1="1074.83" x2="17.55" y2="1074.83" gradientTransform="translate(0 -1057.92)" gradientUnits="userSpaceOnUse">
      <stop offset="0" stop-color="#b7d433"/>
      <stop offset=".14" stop-color="#a4cd35"/>
      <stop offset=".43" stop-color="#74bc3b"/>
      <stop offset=".83" stop-color="#27a043"/>
      <stop offset="1" stop-color="#059447"/>
    </linearGradient>
    <linearGradient id="linear-gradient-17" x1="15.44" y1="1074.45" x2="17.08" y2="1074.45" gradientTransform="translate(0 -1057.92)" gradientUnits="userSpaceOnUse">
      <stop offset="0" stop-color="#b7d433"/>
      <stop offset=".14" stop-color="#a4cd35"/>
      <stop offset=".43" stop-color="#74bc3b"/>
      <stop offset=".83" stop-color="#27a043"/>
      <stop offset="1" stop-color="#059447"/>
    </linearGradient>
    <linearGradient id="linear-gradient-18" x1="15.08" y1="1073.98" x2="16.6" y2="1073.98" gradientTransform="translate(0 -1057.92)" gradientUnits="userSpaceOnUse">
      <stop offset="0" stop-color="#b7d433"/>
      <stop offset=".14" stop-color="#a4cd35"/>
      <stop offset=".43" stop-color="#74bc3b"/>
      <stop offset=".83" stop-color="#27a043"/>
      <stop offset="1" stop-color="#059447"/>
    </linearGradient>
    <linearGradient id="linear-gradient-19" x1="13.95" y1="1076.12" x2="14.48" y2="1076.12" gradientTransform="translate(0 -1057.92)" gradientUnits="userSpaceOnUse">
      <stop offset="0" stop-color="#b7d433"/>
      <stop offset=".14" stop-color="#a4cd35"/>
      <stop offset=".43" stop-color="#74bc3b"/>
      <stop offset=".83" stop-color="#27a043"/>
      <stop offset="1" stop-color="#059447"/>
    </linearGradient>
    <linearGradient id="linear-gradient-20" x1="12.7" y1="1073.1" x2="12.87" y2="1073.1" gradientTransform="translate(0 -1057.92)" gradientUnits="userSpaceOnUse">
      <stop offset="0" stop-color="#b7d433"/>
      <stop offset=".14" stop-color="#a4cd35"/>
      <stop offset=".43" stop-color="#74bc3b"/>
      <stop offset=".83" stop-color="#27a043"/>
      <stop offset="1" stop-color="#059447"/>
    </linearGradient>
    <linearGradient id="linear-gradient-21" x1="15.36" y1="1068.68" x2="15.39" y2="1068.68" gradientTransform="translate(0 -1057.92)" gradientUnits="userSpaceOnUse">
      <stop offset="0" stop-color="#ffde17"/>
      <stop offset=".49" stop-color="#f7b61b"/>
      <stop offset="1" stop-color="#fbb040"/>
    </linearGradient>
    <linearGradient id="linear-gradient-22" x1="16.39" y1="1075.98" x2="16.42" y2="1075.98" gradientTransform="translate(0 -1057.92)" gradientUnits="userSpaceOnUse">
      <stop offset="0" stop-color="#b7d433"/>
      <stop offset=".14" stop-color="#a4cd35"/>
      <stop offset=".43" stop-color="#74bc3b"/>
      <stop offset=".83" stop-color="#27a043"/>
      <stop offset="1" stop-color="#059447"/>
    </linearGradient>
    <linearGradient id="linear-gradient-23" x1="13.01" y1="1068.4" x2="13.04" y2="1068.4" gradientTransform="translate(0 -1057.92)" gradientUnits="userSpaceOnUse">
      <stop offset="0" stop-color="#ffde17"/>
      <stop offset=".49" stop-color="#f7b61b"/>
      <stop offset="1" stop-color="#fbb040"/>
    </linearGradient>
  </defs>
  <path d="M17.25,5.03c-.15.06-.28.1-.4.15.33.04.34.04.4-.15Z" fill="none"/>
  <path d="M10.68,2.86c-.09-.03-.19-.04-.29-.06,0,.02-.01.03-.01.05.08.04.16.09.25.13.03,0,.07-.02.11-.03-.02-.03-.03-.08-.06-.09Z" fill="none"/>
  <path d="M15.08,2.73c.12.26.21.28.51.2,0-.09.01-.18.01-.28h.04c.01.08.02.16.02.25.26-.03.3-.2.29-.39-.01-.07-.07-.16-.13-.2-.04-.03-.13.02-.19.03v-.02c-.11.02-.21.05-.32.07,0,0,0,0-.01,0,.11-.05.22-.11.39-.19-.14-.11-.25-.2-.37-.27-.05-.03-.16-.05-.2-.02-.09.07-.27.09-.23.26.06.19.11.39.19.57Z" fill="none"/>
  <path d="M14.19,2.92c0,.07-.04.14-.05.2-.02.17-.05.34-.05.51,0,.07.06.14.09.21.08-.04.16-.08.24-.13.03-.02.04-.06.06-.1.07-.18.16-.34.33-.46.06-.04.11-.15.1-.21-.07-.25-.16-.49-.25-.75-.27.19-.5.38-.47.73Z" fill="none"/>
  <path d="M13.59,1.85s.12-.09.14-.14c.05-.17.14-.31.28-.43l-.24.48s.02.03.03.04c.11-.03.22-.07.33-.1-.06.06-.13.09-.21.12s-.16.06-.22.11c-.03.02-.03.09-.02.14,0,.02.07.03.11.03h.25v.05h-.25s-.01.04-.02.06c.09.04.17.1.26.1.11,0,.37-.32.36-.44-.02-.26-.05-.52-.08-.8-.09.06-.16.1-.22.14.05-.06.09-.12.14-.18-.04-.12-.11-.11-.2-.05-.12.08-.24.17-.37.24-.18.1-.2.26-.18.43,0,.08.07.14.11.2Z" fill="none"/>
  <path d="M12.53,3.43c.14.14.32.26.52.41-.01-.09-.01-.15-.02-.21-.05-.26-.09-.51-.15-.77-.01-.04-.04-.09-.07-.12-.15-.12-.31-.23-.46-.34.03.11-.04.27.08.36v.33l.1.04c.04-.06.07-.13.09-.17.04-.04.07-.06.1-.08.01,0,.02,0,.03,0-.06.09-.13.18-.17.28-.03.09-.09.23-.05.26Z" fill="none"/>
  <path d="M12.08,3.77s-.13.08-.13.13c-.03.16-.03.32-.05.48.08,0,.16,0,.23.01.01,0,.03.02.04.03-.05.02-.1.03-.14.04-.13.05-.16.19-.05.27.16.13.34.24.49.38.2.18.42.1.64.12-.07-.7-.33-1.23-1.03-1.46Z" fill="none"/>
  <path d="M15.71,3.44s.1-.06.14-.09c-.08.15-.16.29-.24.43.02,0,.05.03.07.04.2-.11.26-.32.33-.53.01.1.01.2.02.31-.14.03-.35.34-.31.47.56,0,.52-.49.68-.83-.01.1-.02.19-.03.29.13-.15.51-.16.28-.5-.08,0-.21.04-.27,0-.15-.12-.26-.02-.38.04-.06.03-.13.06-.2.08-.12.06-.13.16-.09.3Z" fill="none"/>
  <path d="M15.62,3.27c-.43-.04-.65.18-.76.57-.06.21-.21.36-.42.46-.06.03-.12.09-.16.15-.23.28-.21.61-.14.94.03-.01.06-.01.08-.02.26-.14.51-.22.8-.06.04.02.23-.09.22-.12-.05-.25.09-.54-.16-.76-.06-.05-.08-.14-.12-.21.02,0,.04.01.06.01.03-.06.07-.12.1-.19-.09.25.02.42.21.55.04-.1.07-.2.13-.29.18-.29.14-.51-.13-.72-.01,0-.01-.04-.01-.06.09.05.17.09.29.15.01-.17.01-.29,0-.4Z" fill="none"/>
  <path d="M15.63,1.89s.08.04.14.08c.01-.13.02-.21.03-.35-.16.06-.29.11-.42.17,0,.03.01.06.01.08.07,0,.14.02.24.02Z" fill="none"/>
  <path d="M11.66,4.64s.06-.06.06-.09c.01-.28.05-.57-.23-.77-.15.08-.29.16-.44.24.01.02.02.04.02.06.07-.01.15-.02.22-.02.01.01.01.02.02.03-.14.05-.29.11-.44.16.02.08.03.11.05.15.1.24.51.38.74.24Z" fill="none"/>
  <path d="M10.89,4.14c.16-.16.3-.34.47-.54-.25.03-.45.06-.69.09.02.1.04.25.08.39,0,.04.12.08.14.06Z" fill="none"/>
  <path d="M10.64,4.09c-.05.08-.1.12-.1.15.02.15.03.31.09.45.01.04.16.03.24.04,0-.06.02-.12,0-.17-.06-.14-.14-.29-.23-.47Z" fill="none"/>
  <path d="M11.81.7c.17.3.33.56.47.81.09-.22-.03-.48-.47-.81Z" fill="none"/>
  <path d="M11.97,2.24l.18-.18s0-.02.01-.07c-.14-.15-.28-.32-.43-.48,0,0-.01,0-.01,0h0s-.05.03-.07.05c.05.16.09.32.15.47.03.09.11.15.17.22Z" fill="none"/>
  <path d="M11.39,3.4c.03.07.06.15.1.26.07-.09.11-.13.14-.18.01,0,.02,0,.02.02-.03.06-.07.13-.1.2.08.07.15.13.21.19.11-.08.21-.16.32-.24-.29-.48-.83-.52-1.25-.78-.12.28.02.46.32.46v-.09c.1.05.09.25.24.16Z" fill="none"/>
  <path d="M12.23,2.16l-.21.24c-.14.16-.15.5-.02.62.13.11.28.21.42.32.01,0,.03,0,.04,0-.08-.21-.16-.42-.24-.62,0,0,.02,0,.03.02.02,0,.03.02.06.04-.01-.22-.02-.42-.03-.62-.01,0-.03,0-.05,0Z" fill="none"/>
  <path d="M13.58,3.97c.02-.07.03-.14.05-.21.05-.28.09-.56.16-.83.04-.18.11-.35-.13-.44-.05-.02-.07-.09-.11-.13-.03-.03-.09-.05-.13-.04-.09,0-.17.04-.25.06-.09.58.14,1.08.41,1.59Z" fill="none"/>
  <path d="M11.03,2.51c.06-.05.13-.09.16-.15.03-.05.01-.13.01-.16.16.05.15-.17.27-.18-.07.12-.14.24-.23.4.15-.07.25-.12.35-.17,0,0,.01.02.01.03-.18.11-.37.22-.6.36.21.1.36.18.51.25.11.05.18,0,.21-.11.14-.41-.09-.75-.23-1.11-.01-.02-.04-.03-.06-.04l-.24.3s.03.03.04.04c.06-.05.11-.09.17-.14-.01.06-.04.12-.08.15-.11.08-.24.15-.34.25-.04.04-.03.15-.03.23,0,0,.07.05.08.05Z" fill="none"/>
  <path d="M11.89,1.64c.02-.06.04-.1.04-.1.06.1.12.22.18.34.03,0,.06-.02.08-.03-.02-.16-.01-.34-.06-.49-.04-.11-.1-.26-.27-.24-.06,0-.12.04-.16.06.01.1.01.2.02.34,0,0,0,0,.01,0,.03,0,.09.06.16.11Z" fill="none"/>
  <path d="M12.73.53h0c-.07-.07-.13-.14-.2-.21-.01,0-.03.02-.04.03.08.17.16.33.24.5.02,0,.04,0,.06-.02-.02-.1-.04-.2-.06-.3Z" fill="none"/>
  <path d="M12.96,2.54c-.06-.25-.12-.47-.18-.71-.18.05-.31.08-.48.13.21.25.26.55.66.58Z" fill="none"/>
  <path d="M13.02,1.11c-.05.18-.11.36-.16.53.02,0,.04,0,.06.02.05-.03.1-.06.18-.11-.06.07-.09.11-.14.18.09-.02.15-.03.21-.04.04,0,.04,0,.01.02-.08.03-.16.06-.23.09.07.14.12.26.18.37.02.04.07.09.11.1s.12-.04.12-.06c0-.05-.03-.1-.06-.15-.01-.02-.02-.03-.04-.05.04,0,.06,0,.13,0-.18-.18-.13-.36-.07-.53.09-.3.1-.3-.14-.47.02-.23-.2-.2-.34-.31.02.2.03.36.04.51.06-.03.1-.07.14-.11Z" fill="none"/>
  <path d="M6.63,7.64c.06-.08.07-.17.04-.27-.03-.07-.03-.15-.06-.23-.01-.05,0-.07.04-.09.2-.12.41-.25.61-.38.03-.02.05-.05.06-.09.02-.1.03-.2.05-.3.03-.13.02-.24-.04-.36-.06-.14-.11-.29-.17-.43-.02-.04-.01-.07.02-.11.15-.19.31-.38.46-.58.11-.15.25-.27.42-.35.05-.02.09-.07.13-.11.12-.17.24-.34.36-.5.11-.13.18-.27.16-.45-.01-.07.01-.14.01-.22-.24.08-.47.15-.69.23-.04,0-.07,0-.1-.03-.21-.24-.43-.47-.64-.71-.1-.11-.21-.22-.28-.35-.11-.22-.23-.44-.36-.64-.11-.17-.17-.34-.12-.54.02-.09.02-.19.02-.29h-.05c-.24,0-.47.02-.71.02-.04,0-.07,0-.11-.02-.19-.06-.37-.12-.55-.18-.04,0-.06,0-.08.03-.06.1-.13.19-.19.29-.36-.15-.71-.3-1.08-.46.07-.05.13-.1.19-.15-.04-.08-.07-.16-.11-.24-.02-.04-.04-.05-.08-.04-.35.05-.71.1-1.06.15-.13.02-.27.06-.39-.02-.14-.09-.24-.04-.37.04-.19.13-.34.29-.41.51,0,.03-.05.07-.08.09-.1.06-.21.11-.32.17-.03,0-.05.03-.07.06-.18.22-.35.44-.53.66-.02.03-.04.06-.04.09-.07.26-.13.53-.19.79,0,.03,0,.08,0,.11.1.21.21.42.3.63.05.11.12.21.22.29.13.1.24.21.36.32.06.05.11.06.18.05.47-.07.93-.13,1.4-.19.14-.02.14,0,.18.11q.04.12.16.11c.13,0,.27-.03.39.08.03.03.04.04.03.08-.04.16-.08.31-.12.47,0,.03,0,.07.02.1.12.16.25.31.38.47.02.03.04.06.05.1.05.2.09.4.14.6.01.06,0,.1-.03.15-.05.07-.1.14-.13.22-.04.11-.06.22-.08.34,0,.03,0,.07.02.1.12.19.24.38.35.57.02.03.03.06.02.1,0,.14-.02.27-.02.41,0,.03.01.07.03.1.11.16.23.32.34.48.02.03.04.08.03.12-.02.1-.01.18.08.23.01,0,.02.02.03.03.03.04.07.05.12.05.22-.02.44-.04.66-.07.04,0,.08-.02.11-.05.21-.19.42-.37.63-.56.03-.02.06-.06.06-.1.01-.19.11-.29.29-.34.03-.02.07-.07.1-.1Z"/>
  <path d="M7.59,7.53c-.01.11,0,.19.08.27.05.05.08.06.15.04.09-.02.14-.07.17-.15.13-.29.27-.57.42-.86.06-.11.08-.23.1-.35.01-.08,0-.14-.08-.18-.01.02-.03.03-.04.05-.13.19-.3.32-.53.37-.02,0-.04.02-.05.04-.05.09-.1.17-.06.28.01.03.02.06.02.1,0,.03-.01.06-.02.08-.12.08-.15.19-.16.31Z"/>
  <path d="M13.83.15s.02-.07.03-.11c-.02.04-.03.08-.03.11Z" fill="#137a52"/>
  <path d="M11.96,5.17c.15.19.38.34.61.45.32.15.48.36.47.71,0,.12.01.23,0,.35-.04.34-.08.68-.12,1.01-.05.45.04.95-.43,1.28h2.13c-.3-.18-.3-.44-.33-.69-.02-.18-.02-.36-.04-.54-.07-.53-.12-1.06-.02-1.6.05-.28.34-.51.62-.48.08.01.17.02.25-.01.17-.06.34-.14.51-.21.29-.13.58-.3.89-.04.04.03.1.03.15.05.18.06.36.13.54.19.01,0,.02-.01.04-.01-.05-.03-.09-.06-.15-.1.22-.04.4-.07.57-.1-.36-.04-.74.11-1.13-.15.48.04.92.1,1.34-.17-.08-.01-.14-.01-.19-.02.01-.05.03-.12.04-.19-.02,0-.03-.01-.05-.01-.06.29-.15.36-.38.3.04-.11.08-.22.13-.36-.08.07-.12.15-.18.16-.3.06-.6.1-.9.14-.05.01-.11-.04-.17-.05.03-.06.05-.13.1-.18.19-.2.45-.13.68-.19.25-.07.53-.06.8-.08v-.04h-.78c.06-.05.1-.07.14-.1-.1.01-.17.07-.25.11s-.16.06-.24.09c.16-.3.4-.44.71-.5-.15-.11-.27.09-.41.09.01-.05.01-.09.01-.11-.11.09-.21.18-.32.26-.28.22-.55.44-.84.65-.05.03-.14.01-.21.01,0-.09-.03-.22.01-.25.2-.16.32-.46.65-.39.02.01.07,0,.07-.01.06-.19.25-.21.39-.3-.09.03-.18.05-.28.08.01-.07.01-.12.02-.22-.09.21-.23.33-.43.37-.06.01-.11.06-.16.09-.06.05-.12.1-.18.15.05-.21.09-.42.37-.41.14.01.23-.09.28-.23.02-.07.09-.16.14-.17.17,0,.33.03.5.05.08,0,.15.04.23.06,0-.02.01-.04.01-.06-.19-.03-.39-.06-.58-.11-.02,0-.05-.08-.04-.11.05-.16.19-.21.36-.14.11.04.22.14.32,0-.1-.02-.21-.04-.32-.07,0,0,.01-.03.01-.04h.44s0-.04.01-.06c-.1,0-.2,0-.31,0-.18,0-.24-.09-.26-.27.1.02.19.04.28.06-.18-.17-.41-.11-.62-.17.08-.08.18-.2.26-.18.18.04.35.13.57.22-.08-.08-.15-.14-.23-.22.09-.03.17-.06.25-.08-.15-.07-.34.18-.51-.08.09-.02.15-.03.22-.04.09,0,.17,0,.21-.02.02-.07.03-.12.04-.16-.04.02-.08.06-.13.07-.03,0-.08,0-.11,0,.03-.04.04-.09.08-.11.08-.03.16-.04.24-.05.02,0,.04,0,.06,0-.04-.03-.08-.05-.11-.08-.05.02-.11.06-.2.1.03-.17.06-.29.09-.43-.08.06-.13.1-.19.14.11.19-.03.44-.33.57,0-.04-.01-.07-.01-.11-.03.21-.2.26-.36.31-.03,0-.12-.06-.12-.1,0-.09.04-.17.05-.26.01-.26.2-.39.45-.3.05.02.11.04.17.06,0,0,.01-.02.01-.02-.1-.05-.2-.1-.33-.16.17-.04.31-.08.45-.11,0,0,0-.02-.01-.03-.09.02-.18.03-.27.05,0,0-.01-.03-.01-.04.05-.04.11-.09.16-.13-.01,0-.02-.02-.03-.04-.09.05-.18.11-.27.16-.06.05-.11.17-.2.2-.16.06-.25.15-.23.34-.08-.21-.42-.07-.43-.38h.52s-.09-.04-.14-.03c-.12,0-.18-.05-.17-.15.01-.05.1-.1.17-.13.07-.04.16-.05.27-.08-.09-.02-.14-.05-.19-.05s-.1.03-.16.05c.01-.06.01-.12.01-.18,0-.03-.01-.05-.04-.14-.03.14-.04.22-.06.32-.05,0-.1-.02-.15-.03.02-.21.02-.2.16-.32.11-.1.21-.22.31-.33-.01,0-.03-.02-.04-.03l-.15.15c-.05.1-.1.19-.27.19.03-.2.06-.39.09-.57h-.03c-.05.22-.1.44-.15.64-.08,0-.15.03-.22.04,0,.02.01.03.01.05.06,0,.13.02.2.03-.06.16-.57.42-.78.41,0-.02,0-.05.01-.07.13-.19.26-.37.4-.56.08-.11.18-.22.26-.33.04-.05.04-.13.05-.2h-.04c-.04.09-.08.18-.14.3-.05-.19-.09-.33-.13-.47-.03.07-.02.13,0,.19.02.07.03.15.05.22.04.15-.04.23-.17.23-.17,0-.08-.14-.1-.22-.02-.09-.04-.18-.06-.27-.03.04-.06.09-.08.12.04.18.07.34.1.5,0,.03-.04.09-.08.1-.14.03-.16.13-.19.25-.02.09-.06.17-.1.28-.13-.19-.12-.35.04-.5-.04.03-.09.05-.13.08-.07-.13-.04-.2.09-.25.15-.06.29-.13.17-.34-.02-.03.04-.11.07-.17.01-.03.03-.07.06-.14-.06.04-.09.06-.12.09-.04-.1-.07-.2-.1-.29-.01,0-.01,0-.02,0,.02.22.04.43.06.68-.08.03-.16.07-.29.13.02-.12.02-.19.03-.22-.07-.02-.14-.03-.24-.05.07-.05.09-.07.13-.09-.15-.05-.18-.18-.07-.4-.09.08-.14.13-.19.18-.08-.16-.27-.27-.25-.46-.01.03-.02.07-.03.1-.03-.04-.06-.08-.08-.11-.01.05-.02.1-.02.1.1.13.26.24.26.34-.01.18-.07.38-.24.51-.01-.07-.02-.11-.02-.13-.05.07-.11.16-.18.27-.07-.12-.1-.22-.16-.27-.22-.16-.13-.3,0-.45.05-.06.1-.16.1-.24,0-.07-.07-.15-.1-.21,0,.04-.02.11-.01.17.02.16-.11.42-.24.49-.02,0-.06,0-.09,0,.01-.03.01-.06.02-.08,0,0-.01-.02-.01-.02-.05,0-.09.03-.12.04v-.69h-.05l-.03.48s-.05.05-.08.07c-.03-.05.06-.14-.07-.17-.11-.03-.2-.13-.31-.2.03.08.06.14.09.24-.07-.04-.11-.06-.15-.08.03.05.04.1.07.13.27.27.42.58.38.97-.01.05-.05.09-.08.13-.04-.04-.1-.07-.12-.12-.04-.09-.06-.2-.09-.29-.04.26.26.56-.16.77.02-.09.03-.16.04-.23.01-.13.05-.27.02-.39-.07-.21-.18-.4.03-.58,0,0-.01-.02-.03-.08-.07.1-.12.18-.19.27-.05-.08-.08-.13-.11-.19-.01.04-.02.06-.03.09-.09,0-.12-.27-.26-.03-.04-.12-.08-.22-.11-.32-.01.22.1.37.24.5-.05.17-.19.18-.29.15-.07-.02-.1-.15-.15-.24-.03-.05-.05-.1-.07-.15.01.1.01.17-.15.14.08.05.15.06.17.1.05.1.05.23.19.27.02,0,.05.1.03.13-.03.08-.08.15-.14.26-.02-.09-.04-.15-.05-.19-.03.03-.07.06-.13.12-.01-.12-.02-.19-.02-.28-.03.06-.05.1-.06.14-.02,0-.04,0-.05,0-.03-.14-.07-.28-.1-.42-.01,0-.02,0-.03,0v.27c-.1-.07-.16-.11-.22-.16l-.02.02c.18.17.36.34.55.52-.03.04-.07.09-.12.14-.06-.08-.1-.14-.13-.19.01.11.02.22.03.34h-.05c-.02-.07-.03-.14-.05-.23-.07.17.1.37-.14.47-.14-.1-.21-.23-.13-.38.06-.13.04-.24.03-.36,0,0-.01,0-.02-.02-.01.04-.02.07-.02.11h-.05c-.01-.12-.02-.23-.03-.32-.03.04-.06.11-.12.22.01.08.3.16.1.39-.09-.11-.17-.21-.25-.31,0,.05.01.1.01.15-.08,0-.16.02-.27.03.04.03.07.06.08.05.31-.09.39.13.48.35.08.23.16.45.25.69-.23.03-.14-.19-.25-.27.01.08.02.15.02.22-.06-.04-.12-.07-.16-.11-.03-.04-.05-.11-.04-.16.03-.1.07-.26.07-.4-.05.12-.09.22-.13.33h-.04c-.03-.13-.05-.26-.08-.41-.07.23.03.42.1.66-.12-.04-.2-.07-.27-.1l-.03.06c.15.05.3.09.5.15-.3.05-.88.42-.89.53.18-.11.38-.22.59-.34.09.06.25.1.33.21.14.19.31.31.54.35.01,0,.01.02.02.03-.16.2-.34.12-.52.06-.01-.12-.01-.23-.02-.34h-.03s-.02.09-.03.14c-.07-.09-.12-.16-.18-.24-.01,0-.02,0-.03.02.03.04.05.09.08.13-.04,0-.06.02-.05,0,.06.09.12.19.17.3,0,0-.12.09-.13.08-.08-.09-.16-.19-.22-.27-.01,0-.05.04-.09.08.05.06.1.12.16.19h-.36s.07.06.11.07c.15.05.3.08.43.15.11.05.16.15.04.26-.04.04-.07.1-.1.14l-.15-.3s-.03.02-.05.02c.09.2.18.39.26.59-.02.02-.04.03-.06.05-.13-.11-.26-.21-.38-.31-.01.01-.04.04-.05.06.1.11.21.23.32.35.05.01.13.03.21.05v.07c-.25.05-.5.11-.81.17h.3c-.02.06-.03.1-.05.17.22-.24.42-.3.76-.24.04.23,0,.27-.22.24-.07-.01-.15,0-.22,0,0,.01,0,.02.01.03.09.01.17.01.26.02v.05c-.07.03-.14.05-.21.08s-.14.05-.21.07c.31-.09.73-.05.72-.54.09-.01.16-.03.24-.04.24-.1.51-.03.74.25ZM17.25,5.03c-.06.2-.07.2-.4.15.12-.05.25-.1.4-.15ZM10.63,2.99c-.09-.04-.17-.09-.25-.13,0-.02.01-.03.01-.05.1.02.19.03.29.06.02,0,.04.06.05.09-.03,0-.07.04-.1.03ZM12.48,5.12c-.15-.14-.33-.25-.49-.38-.11-.09-.08-.22.05-.27.04-.02.09-.03.14-.04-.02-.01-.03-.03-.04-.03-.08,0-.16-.01-.23-.01.01-.16.02-.33.05-.48.01-.05.09-.09.13-.13.7.23.96.76,1.04,1.47-.24-.03-.46.05-.65-.13ZM12.73,2.87s-.06.05-.1.08c-.02.04-.05.11-.09.17-.01,0-.1-.02-.1-.04-.01-.11,0-.23,0-.33-.12-.09-.04-.25-.08-.36.15.11.31.22.46.34.03.03.06.08.07.12.05.25.1.51.15.77.01.06.01.12.02.21-.2-.15-.37-.26-.52-.41-.03-.03.03-.18.06-.26.05-.1.11-.19.17-.28h-.04ZM15.33,3.58c.27.21.31.43.13.72-.06.09-.09.19-.13.29-.19-.13-.31-.29-.21-.55-.03.06-.07.12-.1.19-.02,0-.04-.01-.06-.01.04.07.06.16.12.21.24.21.11.5.16.76.01.03-.18.15-.22.12-.29-.16-.54-.08-.8.06-.02.01-.05.01-.08.02-.06-.33-.09-.66.14-.94.05-.06.1-.12.16-.15.2-.1.36-.25.42-.46.11-.38.33-.61.76-.57v.4c-.12-.06-.2-.11-.29-.15,0,.02-.01.05,0,.06ZM16.02,3.08c.12-.05.23-.15.38-.04.06.05.19,0,.27,0,.22.34-.15.35-.28.5.01-.1.02-.19.03-.29-.16.34-.13.82-.68.83-.05-.14.16-.44.31-.47-.01-.11-.01-.21-.02-.31-.07.21-.13.42-.33.53-.02,0-.05-.03-.07-.04.08-.14.15-.28.24-.43-.04.03-.08.05-.14.09-.04-.14-.03-.24.12-.29.04-.03.11-.06.17-.09ZM15.81,1.63c-.01.14-.02.22-.03.35-.07-.04-.12-.07-.14-.08-.1,0-.17,0-.24-.02,0-.03-.01-.06-.01-.08.13-.06.26-.11.42-.17ZM15.13,1.88s.15,0,.2.02c.12.07.23.17.37.27-.17.08-.28.14-.39.19,0,0,0,0,.01,0,.11-.02.21-.05.32-.07v.02c.07,0,.15-.06.19-.03.06.04.12.13.13.2.01.19-.03.36-.29.39-.01-.09-.02-.17-.02-.25h-.04c0,.09-.01.19-.01.28-.3.09-.39.07-.51-.2-.08-.18-.14-.39-.18-.59-.05-.14.13-.17.22-.24ZM14.65,2.21c.09.26.18.5.25.75.02.06-.04.17-.1.21-.17.11-.26.28-.33.46-.01.04-.03.08-.06.1-.07.05-.16.09-.24.13-.03-.07-.09-.14-.09-.21,0-.17.03-.34.05-.51.01-.07.05-.14.05-.2-.02-.37.21-.56.47-.73ZM13.65,1.24c.13-.07.25-.16.37-.24.09-.06.16-.08.2.05-.05.06-.09.12-.14.18.06-.04.13-.08.22-.14.03.28.06.54.08.8.01.12-.26.44-.36.44-.09,0-.17-.07-.26-.1.01-.02.01-.04.02-.06h.25v-.05h-.25s-.11,0-.11-.03c-.01-.04,0-.12.02-.14.06-.05.14-.08.22-.11.07-.03.14-.06.21-.12-.11.03-.22.07-.33.1-.01,0-.02-.03-.03-.04l.24-.48c-.14.11-.23.25-.28.43-.02.06-.09.1-.14.14-.04-.06-.12-.11-.12-.18,0-.19.01-.35.19-.45ZM13.54,2.36s.06.11.11.13c.24.09.17.26.13.44-.07.27-.11.55-.16.83-.01.07-.03.14-.05.21-.27-.51-.5-1.01-.41-1.59.08-.02.16-.05.25-.06.05,0,.1,0,.13.04ZM13.18,1.03c.16.11.21.27.14.47-.05.17-.11.35.07.53-.07,0-.1,0-.13,0,.02.02.03.03.04.05.02.05.06.1.06.15,0,.02-.08.07-.12.06s-.09-.06-.11-.1c-.06-.12-.12-.24-.18-.37.08-.03.15-.06.23-.09.05-.02.05-.03-.01-.02-.06,0-.12.02-.21.04.05-.07.09-.11.14-.18-.08.05-.13.08-.18.11-.02,0-.04,0-.06-.02.05-.18.11-.36.16-.53-.04.04-.09.07-.14.12-.01-.15-.03-.31-.04-.51.15.1.36.07.34.3ZM12.73.85c-.08-.17-.16-.33-.24-.5.01,0,.03-.02.04-.03.07.07.13.14.2.21h0c.02.1.04.2.05.3-.01,0-.03,0-.05.02ZM12.78,1.83c.06.24.12.46.18.71-.4-.03-.45-.34-.66-.58.17-.05.31-.08.48-.13ZM12.32,2.77s-.05-.03-.06-.04c-.02,0-.03-.02-.03-.02.08.2.16.41.24.62-.01,0-.03,0-.04,0-.14-.11-.28-.21-.42-.32-.14-.12-.12-.46.02-.62l.21-.24s.04,0,.06,0c0,.2.01.4.02.62ZM11.81.7c.44.34.57.59.47.81-.15-.25-.3-.51-.47-.81ZM11.72,1.51h0c-.01-.14-.01-.24-.02-.34.04,0,.1-.05.16-.06.17-.02.24.13.27.24.05.15.04.32.06.49-.03,0-.06.02-.08.03-.06-.12-.13-.23-.18-.34,0,0-.01.04-.04.1-.07-.04-.13-.09-.17-.12.16.17.3.34.44.49-.01.04,0,.06-.01.07l-.18.18c-.06-.07-.14-.13-.18-.21-.06-.15-.1-.31-.15-.47.03-.03.05-.05.08-.06ZM10.99,2.21c.1-.1.23-.16.34-.25.04-.03.07-.08.08-.15-.06.05-.11.09-.17.14-.01,0-.03-.03-.04-.04.08-.1.16-.19.24-.3.02,0,.05.02.06.04.14.36.36.7.23,1.11-.04.12-.1.16-.21.11-.16-.07-.31-.15-.51-.25.24-.14.42-.25.6-.36,0,0-.01-.02-.01-.03-.1.05-.2.1-.35.17.09-.16.16-.27.23-.4-.12,0-.11.23-.27.18,0,.03.02.1-.01.16-.03.06-.1.11-.16.15,0,0-.07-.04-.07-.07-.02-.06-.03-.16.02-.21ZM11.16,3.24v.09c-.3,0-.44-.18-.32-.46.41.26.95.29,1.25.78-.11.09-.21.16-.32.24-.07-.06-.14-.12-.21-.19.04-.07.07-.14.1-.2-.01,0-.02,0-.02-.02-.04.05-.07.09-.14.18-.04-.11-.07-.19-.1-.26-.16.09-.15-.11-.24-.16ZM11.36,3.6c-.17.2-.32.38-.47.54-.02.02-.14-.02-.14-.05-.04-.14-.06-.29-.08-.39.24-.04.44-.06.69-.1ZM10.87,4.74c-.08-.01-.23,0-.24-.04-.05-.14-.07-.3-.09-.45,0-.03.04-.07.1-.15.09.18.17.33.23.48.02.03,0,.1,0,.16ZM10.91,4.4s-.02-.07-.05-.15c.15-.05.29-.11.44-.16-.01-.01-.01-.02-.02-.03-.07.01-.15.02-.22.02-.01-.02-.02-.04-.02-.06.15-.08.29-.16.44-.24.28.2.24.49.23.77,0,.03-.03.07-.06.09-.22.14-.63,0-.74-.24Z" fill="#137a52"/>
  <polygon points="11.73 1.52 11.72 1.51 11.72 1.51 11.73 1.52" fill="#137a52"/>
  <path d="M4.73,10.74c-2.09-.06-3.79,1.64-3.78,3.66,0,2,1.62,3.65,3.61,3.68,2.05.03,3.7-1.65,3.73-3.62.02-2.06-1.65-3.66-3.56-3.72ZM4.42,17.47c-1.47-.09-2.94-1.36-2.85-3.24.07-1.48,1.35-2.96,3.24-2.86,1.55.08,2.88,1.4,2.86,3.05.03,1.63-1.37,3.15-3.25,3.05Z" fill="none"/>
  <path d="M4.63,12.31c-1.16,0-2.11.97-2.12,2.08,0,1.16.97,2.11,2.08,2.12,1.16,0,2.15-.97,2.12-2.1.03-1.13-.95-2.09-2.08-2.1ZM4.63,15.9c-.81,0-1.49-.66-1.5-1.46,0-.83.65-1.5,1.48-1.51.81,0,1.49.66,1.49,1.47s-.65,1.5-1.47,1.5Z" fill="none"/>
  <path d="M4.61,13.88c-.28,0-.53.25-.52.53,0,.29.24.53.53.53s.54-.24.54-.53c-.01-.29-.26-.53-.55-.53Z" fill="none"/>
  <path d="M4.64,9.79c-2.58,0-4.64,2.05-4.64,4.62s2.07,4.63,4.63,4.63,4.61-2.06,4.63-4.63c-.03-2.55-2.06-4.61-4.62-4.62ZM4.56,18.08c-1.99-.03-3.63-1.67-3.61-3.68,0-2.01,1.68-3.71,3.78-3.66,1.91.05,3.58,1.66,3.56,3.72-.03,1.98-1.68,3.65-3.73,3.62Z" fill="#f7b61b"/>
  <path d="M4.81,11.37c-1.89-.1-3.16,1.38-3.24,2.86-.1,1.88,1.38,3.15,2.85,3.24,1.88.11,3.28-1.41,3.25-3.04.02-1.66-1.31-2.98-2.86-3.06ZM4.59,16.51c-1.11,0-2.09-.95-2.08-2.12,0-1.12.96-2.09,2.12-2.08,1.13,0,2.11.97,2.08,2.1.03,1.13-.96,2.12-2.12,2.1Z" fill="#f7b61b"/>
  <path d="M4.61,12.93c-.83,0-1.48.67-1.48,1.51,0,.81.68,1.47,1.5,1.46.82,0,1.48-.68,1.48-1.5-.01-.81-.69-1.48-1.5-1.47ZM4.61,14.95c-.29,0-.53-.24-.53-.53s.24-.53.52-.53.54.24.54.53-.24.53-.53.53Z" fill="#f7b61b"/>
  <g>
    <path d="M16.83,13.65c.09-.1.08-.26-.01-.35-.1-.09-.26-.08-.35.02s-.08.25.02.34c.09.1.25.09.34-.01Z" fill="none"/>
    <path d="M16.6,17.99c.25-.08.48-.19.7-.33.11-.07.22-.14.32-.23.17-.15.29-.32.28-.56,0-.08-.03-.15-.1-.2h-.01s-.01.02-.02,0c-.07.02-.13.07-.18.12-.11.11-.18.25-.28.38-.19.24-.43.42-.73.52-.33.1-.67-.04-.85-.25h.04c-.08-.09-.18-.15-.26-.23-.03-.04-.07-.08-.1-.12.07.05.14.11.21.16.14.08.28.12.44.14.3.03.57-.07.82-.22.16-.1.31-.23.42-.38.07-.09.1-.25.03-.35-.05-.07-.12-.08-.19-.09-.07.04-.09.11-.12.17-.04.09-.07.19-.11.27-.08.16-.17.31-.32.39-.26.13-.54.15-.82.03-.1-.05-.19-.12-.24-.23-.04-.04-.08-.07-.13-.12.36.16.7.07,1.03-.08.15-.07.28-.17.4-.29.15-.15.15-.35-.02-.48-.01,0-.02-.02-.03-.03h0c-.07.02-.1.07-.14.12-.05.09-.08.19-.12.28-.23.51-.94.58-1.27.13-.06-.05-.14-.07-.2-.15.11.04.22.05.32.06.32,0,.62-.06.87-.29.09-.09.16-.18.19-.3.03-.09-.04-.28-.13-.3-.11.02-.16.1-.2.19-.04.1-.07.21-.11.31-.05.12-.13.2-.26.21-.05,0-.09.02-.14.03-.19.04-.38.02-.56-.07-.07-.03-.14-.07-.22-.08h-.12v.02s.03.04.04.06c.15.18.19.39.15.62-.06.28-.18.53-.43.69-.35.22-.89.1-1.14-.24-.21-.28-.19-.66.05-.9s.68-.27.96-.09c.16.1.23.26.19.45-.03.15-.11.28-.23.37-.14.1-.29.15-.45.08-.15-.07-.23-.19-.25-.36-.01-.15.06-.26.2-.31.1-.04.18-.02.23.05.05.06.04.18-.02.25-.02-.03-.02-.06-.03-.09,0-.05-.01-.09-.02-.14-.01-.04-.04-.06-.09-.05-.11.02-.22.15-.22.26.01.21.23.47.53.31.17-.09.26-.25.29-.44.02-.18-.06-.33-.23-.41-.25-.11-.49-.06-.72.08-.26.16-.35.46-.22.74.12.25.33.4.6.47.21.06.41.03.58-.12.24-.2.36-.45.38-.76.01-.14-.03-.27-.11-.38-.09-.13-.2-.24-.37-.27-.15-.03-.3-.08-.44-.14-.05-.02-.1-.03-.16-.02-.09,0-.18.03-.26.07-.38.2-.57.53-.63.94-.05.35.09.61.39.78.41.23.85.39,1.32.47.6.09,1.2.03,1.79-.09.01-.02.02,0,.03,0h.02s.03-.02.05,0h.02s.02-.02.03,0h0s.05,0,.08-.02h0Z" fill="url(#linear-gradient)"/>
    <path d="M13.75,18.44c.08,0,.16-.02.24-.03s.08,0,.04-.08c-.08-.19-.24-.3-.41-.39-.19-.09-.39-.17-.56-.31-.14-.11-.3-.14-.47-.1-.05,0-.1.02-.15.04-.31.12-.62.09-.93-.02-.21-.07-.41-.19-.52-.39-.21-.37-.18-.74.01-1.11.04-.08.1-.15.16-.22-.56.2-1.04.08-1.43-.4.12.42.92,1.68,1.04,1.83.14.17.29.32.44.47.15.14.81.49.9.51.04,0,.08.02.12.04s.07,0,.1-.03c.17-.19.38-.31.64-.28.29.04.53.17.71.41.02.05.04.06.07.06Z" fill="url(#linear-gradient-2)"/>
    <path d="M11.56,15.39c-.06.11-.14.22-.23.31.34-.15.66-.06.97.1-.2-.18-.32-.41-.36-.67-.05-.32-.01-.62.24-.86.02-.02.02-.04.01-.06-.05-.19-.06-.38-.04-.57,0,0,.01-.03-.01-.04-.02,0-.04.03-.06.04-.4.26-1.03.09-1.24-.34-.14-.3-.08-.64.18-.83.27-.19.56-.21.86-.06.14.07.22.18.24.33.02.28-.21.57-.48.61-.16.02-.29-.04-.38-.18-.08-.13-.11-.26-.03-.4.06-.11.24-.17.33-.12s.11.17.05.3h-.01s-.02-.06-.03-.1c-.01-.04-.01-.08-.02-.12s-.04-.06-.08-.05c-.11,0-.22.14-.22.25,0,.27.28.45.52.33.18-.09.28-.25.3-.45.02-.18-.06-.33-.23-.4-.26-.12-.51-.06-.74.09-.27.19-.34.5-.17.79.14.23.35.37.62.42.18.04.35,0,.51-.11.07-.05.13-.11.14-.21.03-.2.1-.39.2-.56.05-.09.05-.17.01-.25-.02-.05-.04-.09-.07-.13-.2-.28-.49-.4-.81-.44-.2-.02-.38.02-.54.14-.32.24-.49.56-.52.95-.02.3.11.53.38.68.14.08.29.15.43.22.33.17.47.45.44.82,0,.21-.06.39-.16.57Z" fill="url(#linear-gradient-3)"/>
    <path d="M15.64,12.31s-.05.07,0,.12c.26.24.4.53.35.89-.02.14,0,.28.06.42.05.15.14.29.23.42.04.05.04.1.02.17-.04.14-.09.28-.14.42-.01.02-.02.05-.01.08.04.14.08.28.11.42.01.02.01.04.04.04s.05,0,.07-.03c.03-.05.07-.11.1-.16.14-.27.26-.55.39-.83.09-.19.19-.38.22-.6.01-.07.04-.11.09-.15.11-.08.21-.18.28-.29.15-.22.23-.45.22-.72,0-.07-.02-.13-.06-.19-.05-.07-.15-.1-.22-.07s-.09.1-.06.19c.01.05.04.09.06.14.09.21.09.42,0,.62-.04.1-.1.19-.19.26,0,0-.01,0,0,0,0,0,.01,0,.01-.02.1-.19.16-.39.16-.61,0-.07-.02-.14-.06-.2-.05-.06-.15-.09-.22-.06-.06.03-.09.1-.06.19.01.05.04.09.06.14.06.14.09.29.05.44v.03h0v.02s0,0,0-.02v-.03c-.01-.28-.08-.55-.22-.79-.24-.41-.49-.83-.79-1.2-.08-.09-.16-.18-.27-.25.06.08.11.17.12.27.06.37-.08.68-.34.95h0ZM16.47,13.32c.09-.1.25-.11.35-.02s.1.25.01.35-.25.11-.35,0c-.1-.09-.1-.24-.01-.34h0Z" fill="url(#linear-gradient-4)"/>
    <path d="M9.66,14.93s.01-.03.01-.04c.05-.22.15-.41.31-.56.18-.17.4-.26.65-.2.23.05.43.16.59.34.24.26.21.71-.06.94-.26.22-.56.23-.86.13-.07-.02-.13-.07-.18-.13-.13-.19-.11-.38-.01-.57.1-.19.25-.3.47-.29.26,0,.43.21.39.45-.02.15-.17.26-.32.25-.07,0-.13-.05-.14-.11-.01-.07.01-.13.04-.18,0,0,.01-.02.03,0,.01,0,.02.02.02.03.01.03-.01.06-.01.1-.01.05-.01.09.03.12.07.05.16.04.21-.03.09-.1.1-.29.02-.4-.08-.13-.21-.17-.36-.14-.21.05-.38.27-.39.49,0,.12.05.22.14.3.21.16.54.17.78.02.32-.19.41-.57.19-.87-.17-.24-.41-.36-.71-.39-.16,0-.31.05-.43.16-.18.16-.3.37-.34.6-.06.32.04.57.3.75.25.17.53.22.83.17.2-.03.38-.12.5-.28.19-.24.31-.51.32-.82.01-.21-.07-.39-.23-.53-.08-.07-.17-.12-.26-.16-.16-.08-.34-.14-.48-.26-.2-.16-.42-.18-.65-.1-.09.03-.17.06-.27.07-.04,0-.05.02-.06.06-.08.37-.12.74-.09,1.13.01-.03.01-.04.02-.04h0Z" fill="url(#linear-gradient-5)"/>
    <path d="M11.05,16.06c-.13.24-.17.5-.13.77.02.14.08.27.17.38.24.27.54.38.89.38.41,0,.74-.19.86-.64.03-.11.06-.22.09-.33.07-.24.19-.44.39-.59.01,0,.02,0,.03-.02.01,0,.02-.02.03-.04-.34.07-.66.07-.97-.09l.05.05c.1.11.17.23.19.38.03.35-.08.64-.34.88-.2.18-.5.22-.72.09-.3-.17-.47-.65-.35-.97.06-.18.19-.27.38-.28.19,0,.35.06.49.19.2.19.19.46-.03.64-.17.14-.39.1-.5-.07-.04-.06-.05-.13-.01-.2s.1-.08.18-.08c.04,0,.1,0,.1.03,0,.06-.06.04-.11.04-.11,0-.15.03-.13.14.01.07.05.11.11.13.13.05.26.02.36-.07s.13-.21.08-.33c-.06-.17-.18-.27-.34-.32-.28-.09-.49.05-.54.33-.03.19,0,.37.1.53.2.35.65.41.94.12.2-.21.28-.46.27-.75,0-.12-.05-.23-.14-.32-.25-.26-.56-.36-.91-.31-.23.01-.39.14-.49.33Z" fill="url(#linear-gradient-6)"/>
    <path d="M12.69,12.38s.04,0,.06-.02c.06-.06.13-.11.22-.17-.12,0-.22-.02-.31-.07-.31-.17-.48-.64-.36-.97.06-.17.18-.27.36-.29.2-.02.37.05.51.19.19.2.18.45-.03.62-.17.14-.39.12-.5-.06-.04-.06-.06-.13-.02-.2s.11-.09.18-.09c.04,0,.1,0,.1.03,0,.05-.06.04-.1.03-.12-.02-.15.05-.13.15.01.06.04.1.1.12.14.06.26.04.37-.06.1-.09.13-.2.09-.32-.04-.13-.12-.23-.23-.29-.32-.17-.6-.04-.65.31-.02.15,0,.3.06.44.19.43.71.5,1.01.15.17-.19.24-.43.23-.68,0-.12-.05-.22-.12-.32-.16-.2-.38-.3-.63-.34h-.12c-.18.06-.36.13-.54.2-.04.02-.08.05-.1.09-.11.18-.16.37-.17.58-.03.53.3.83.72.96h0Z" fill="url(#linear-gradient-7)"/>
    <path d="M10.28,13.4c.08-.11.13-.23.16-.36.04-.13.06-.27.11-.39.13-.35.36-.61.74-.67s.72.07,1.01.32c.1.09.16.22.2.37.05-.1.12-.16.18-.24-.34-.1-.61-.28-.72-.63-.1-.34-.05-.66.13-.97-.02,0-.03,0-.04.02-.69.37-1.25.89-1.69,1.54-.07.1-.47.93-.47.94-.04.11-.08.23-.11.36.2-.04.37-.13.5-.29Z" fill="url(#linear-gradient-8)"/>
    <path d="M13.17,10.55c.19.08.36.19.46.37.12.21.1.43.03.65-.05.15-.12.28-.24.41.15-.04.27-.07.4-.08.04,0,.07-.02.08-.06.04-.14.07-.28.11-.41.1-.32.29-.56.6-.68.23-.09.46-.06.69,0,.02,0,.04.03.06,0-.01,0-.02-.02-.04-.03-.4-.21-.83-.32-1.28-.34-.34-.02-.67,0-1,.1v.02s.09.01.13.03v.02Z" fill="url(#linear-gradient-9)"/>
    <path d="M14.43,10.91c-.1.08-.19.18-.26.29-.12.19-.2.4-.21.62,0,.04.01.06.05.05.09,0,.17-.02.26-.03,0-.02-.01-.05-.01-.08-.01-.18.03-.34.15-.48.23-.27.72-.33,1.01-.12.16.11.22.27.17.46-.03.12-.08.22-.17.3-.07.07-.16.12-.26.16.13.07.24.13.34.21.04.03.06.03.09,0,.14-.13.24-.28.29-.46.11-.34.03-.64-.22-.83-.19-.15-.41-.23-.65-.26-.22-.02-.41.03-.58.17Z" fill="url(#linear-gradient-10)"/>
    <path d="M15.05,11.58s-.01-.08-.02-.12-.05-.07-.09-.05c-.12.04-.22.13-.21.28.02.26.34.43.56.27.08-.06.15-.13.2-.23.16-.32,0-.61-.35-.66-.22-.03-.41.03-.59.16-.19.14-.26.33-.22.56.01.04.02.06.07.06.09,0,.17,0,.25.04.03,0,.07.02.11.02-.03-.05-.06-.09-.07-.14-.06-.18.01-.34.18-.4.1-.04.18-.02.22.03.05.07.05.18-.01.27-.03-.02-.03-.05-.03-.09Z" fill="url(#linear-gradient-11)"/>
    <path d="M12.35,14.61c-.05-.09-.08-.18-.12-.28-.05.05-.09.09-.12.14-.13.21-.15.44-.09.67.1.39.3.69.71.78.28.06.56.02.83-.09.03,0,.05-.03.08-.04-.09-.05-.17-.1-.25-.15-.03-.02-.06-.02-.1,0-.14.07-.3.09-.46.06-.33-.06-.55-.43-.59-.66-.02-.14,0-.26.09-.37.02-.03.03-.04.02-.06Z" fill="url(#linear-gradient-12)"/>
    <path d="M17.81,16.67h0c.06.05.1.12.1.2.01.24-.11.41-.28.56-.1.09-.21.16-.32.23-.22.14-.45.25-.7.33-.03,0-.06,0-.07.05.03,0,.06,0,.1-.02.43-.08.82-.26,1.18-.49.12-.08.23-.16.31-.29.08-.15.08-.34-.03-.47-.08-.09-.17-.13-.29-.1h0Z" fill="url(#linear-gradient-13)"/>
    <path d="M13.31,18.16c-.36-.21-.7-.15-.95.17.42.1.84.14,1.27.12-.09-.13-.2-.22-.32-.29Z" fill="url(#linear-gradient-14)"/>
    <path d="M12.6,14.97c-.08-.08-.13-.18-.2-.27-.13.22-.06.54.17.76.21.2.52.25.72.11-.04-.03-.09-.07-.13-.1-.05-.03-.09-.07-.14-.11-.03-.03-.06-.04-.11-.05-.12,0-.24-.11-.25-.22-.01-.04-.03-.08-.06-.12Z" fill="url(#linear-gradient-15)"/>
    <path d="M17.37,16.45c.07.1.04.26-.03.35-.12.15-.26.28-.42.38-.25.15-.52.25-.82.22-.16-.02-.3-.06-.44-.14-.08-.05-.14-.11-.21-.16.03.04.06.08.1.12.08.09.18.15.26.23.07.04.15.06.23.06.58.02,1.06-.22,1.43-.65.12-.14.13-.3.05-.43s-.21-.16-.33-.07c.06.01.13.02.18.09Z" fill="url(#linear-gradient-16)"/>
    <path d="M16.86,16.51c-.12.11-.25.22-.4.29-.33.16-.66.25-1.03.08.05.04.09.08.13.12.17.07.34.08.51.05.35-.07.63-.25.87-.51.07-.07.12-.16.13-.26.02-.17-.15-.32-.27-.27.01,0,.02.02.03.03.19.12.19.33.03.47Z" fill="url(#linear-gradient-17)"/>
    <path d="M16.46,15.87c-.03.12-.1.22-.19.3-.25.23-.54.3-.87.29-.11,0-.21-.02-.32-.06.06.08.14.1.2.15.01-.02-.02-.03,0-.05.1.05.22.07.33.05.35-.05.65-.2.89-.47.07-.08.11-.16.11-.27,0-.16-.13-.28-.27-.25.08.03.15.21.12.31Z" fill="url(#linear-gradient-18)"/>
    <path d="M14.17,18.31c.1-.05.2-.1.31-.11h-.01c-.18-.04-.35-.07-.52-.12.07.06.11.13.14.2.02.04.03.05.08.03Z" fill="url(#linear-gradient-19)"/>
    <path d="M12.87,15.25c-.06-.05-.11-.1-.17-.15.03.11.06.15.17.15Z" fill="url(#linear-gradient-20)"/>
    <path d="M15.39,10.77s-.02-.02-.03-.02c.01.02.02.02.03.02Z" fill="url(#linear-gradient-21)"/>
    <path d="M16.39,18.06h.03s-.02-.01-.03,0Z" fill="url(#linear-gradient-22)"/>
    <path d="M13.04,10.49h-.02.02v-.02.02Z" fill="url(#linear-gradient-23)"/>
    <path d="M17.11,13.37h.01v-.04h-.02v.03s.02.02.01.02h0Z" fill="#fefdfd"/>
  </g>
  <path d="M64.37,16c-.06-.31-.14-.61-.24-.81-.09-.2-.21-.31-.34-.31h-.33v7.02h.33c.13,0,.24-.11.34-.31.09-.2.17-.46.24-.81.06-.31.11-.72.14-1.11s.05-.87.05-1.27c0-.46-.02-.87-.05-1.27-.03-.41-.07-.76-.14-1.11v-.04Z" fill="none"/>
  <path d="M37.28,17.48c.03-.15.05-.31.07-.46,0-.2.02-.35.02-.61,0-.2,0-.41-.02-.57,0-.2-.04-.35-.07-.46-.03-.15-.07-.26-.13-.31-.05-.11-.12-.11-.19-.11h-.31v3.01h.31c.08,0,.14-.04.19-.11.06-.15.1-.26.13-.41v.02Z" fill="none"/>
  <polygon points="39.96 19.67 40.7 19.67 40.33 15.13 39.96 19.67" fill="none"/>
  <path d="M77.13,17.48c.03-.15.05-.31.07-.46.01-.2.02-.35.02-.61,0-.2-.01-.41-.02-.57-.01-.2-.04-.35-.07-.46-.03-.15-.07-.26-.13-.31-.05-.11-.12-.11-.19-.11h-.31v3.01h.31c.08,0,.14-.04.19-.11.06-.15.1-.26.13-.41v.02Z" fill="none"/>
  <path d="M70.07,15.39c-.03-.15-.07-.26-.13-.31-.05-.11-.12-.11-.19-.11h-.28v3.01h.28c.08,0,.14-.04.19-.11.05-.11.1-.2.13-.31.03-.15.05-.31.07-.46.01-.2.02-.35.02-.61,0-.2-.01-.41-.02-.57-.02-.31-.04-.46-.07-.57v.02Z" fill="none"/>
  <polygon points="52.05 19.67 52.78 19.67 52.42 15.13 52.05 19.67" fill="none"/>
  <polygon points="29.4 19.67 30.14 19.67 29.77 15.13 29.4 19.67" fill="none"/>
  <path d="M71.95,15.85c-.06-.35-.13-.61-.22-.81-.09-.2-.18-.31-.29-.31s-.21.11-.29.31c-.09.2-.16.46-.22.81s-.11.72-.14,1.18-.05.92-.05,1.42.02.96.05,1.42c.03.46.08.87.14,1.18.06.35.13.61.22.81.09.2.18.31.29.31s.21-.11.29-.31c.09-.2.16-.46.22-.81s.11-.72.14-1.18.05-.92.05-1.42-.02-.96-.05-1.42c-.04-.46-.08-.87-.14-1.18Z" fill="none"/>
  <polygon points="26.9 7.92 29.77 7.92 28.33 4.3 26.9 7.92" fill="none"/>
  <path d="M56.58,15.85c-.06-.35-.13-.61-.22-.81s-.18-.31-.29-.31-.21.11-.29.31-.16.46-.22.81-.11.72-.14,1.18-.05.92-.05,1.42.02.96.05,1.42.08.87.14,1.18c.06.35.13.61.22.81s.18.31.29.31.21-.11.29-.31c.09-.2.16-.46.22-.81s.11-.72.14-1.18.05-.92.05-1.42-.02-.96-.05-1.42-.08-.87-.14-1.18Z" fill="none"/>
  <path d="M51.24,3.32c-.19-.09-.4-.16-.65-.19-.24-.03-.48-.05-.71-.05h-1.69v2.65h1.53c.23,0,.48,0,.74-.02.26-.02.49-.07.71-.15.21-.08.38-.21.52-.39s.21-.43.21-.74c0-.3-.06-.54-.18-.7-.14-.18-.29-.31-.48-.41Z" fill="none"/>
  <polygon points="60.04 19.67 60.78 19.67 60.41 15.13 60.04 19.67" fill="none"/>
  <path d="M88.15,15.85c-.06-.35-.13-.61-.22-.81-.09-.2-.18-.31-.29-.31s-.21.11-.29.31c-.09.2-.16.46-.22.81s-.11.72-.14,1.18-.05.92-.05,1.42.02.96.05,1.42c.03.46.08.87.14,1.18.06.35.13.61.22.81.09.2.18.31.29.31s.21-.11.29-.31c.09-.2.16-.46.22-.81s.11-.72.14-1.18.05-.92.05-1.42-.02-.96-.05-1.42c-.04-.46-.08-.87-.14-1.18Z" fill="none"/>
  <path d="M26.25,17.48c.03-.15.05-.31.07-.46.01-.2.02-.35.02-.61,0-.2-.01-.41-.02-.57-.01-.2-.04-.35-.07-.46-.03-.15-.07-.26-.13-.31-.05-.11-.12-.11-.19-.11h-.31v3.01h.31c.08,0,.14-.04.19-.11.06-.15.1-.26.13-.41v.02Z" fill="none"/>
  <path d="M47.79,16c-.06-.31-.14-.61-.24-.81-.09-.2-.21-.31-.34-.31h-.33v7.02h.33c.13,0,.24-.11.34-.31.09-.2.17-.46.24-.81.06-.31.11-.72.14-1.11s.05-.87.05-1.27c0-.46-.02-.87-.05-1.27-.03-.41-.08-.76-.14-1.11v-.04Z" fill="none"/>
  <polygon points="22.71 19.67 23.44 19.67 23.07 15.13 22.71 19.67" fill="none"/>
  <path d="M22.99,14.13l-.74,8.59h.2l.19-2.25h.86l.19,2.25h.2l-.74-8.59s-.16,0-.16,0ZM22.71,19.67l.37-4.52.37,4.52h-.74Z"/>
  <polygon points="24.12 22.72 24.29 22.72 24.29 18.64 25.08 18.64 25.08 17.88 24.29 17.88 24.29 14.93 25.14 14.93 25.14 14.13 24.12 14.13 24.12 22.72"/>
  <path d="M26.42,17.94c.07-.41.11-.92.11-1.53,0-.76-.05-1.33-.15-1.72-.1-.35-.24-.57-.41-.57h-.52v8.59h.17v-4.01h.29l.46,4.01h.21l-.49-4.06c.15-.04.25-.31.33-.72ZM25.62,17.94v-3.01h.31c.08,0,.14.04.19.11.05.11.1.2.13.31.03.15.05.31.07.46.01.2.02.35.02.57s-.01.41-.02.61-.04.35-.07.46c-.03.15-.07.26-.13.31-.05.11-.12.11-.19.11h-.31v.11-.02Z"/>
  <rect x="26.87" y="14.13" width=".17" height="8.59"/>
  <path d="M28.65,21.5c-.04.15-.08.31-.12.41-.04.11-.09.15-.13.2-.04.04-.09.04-.13.04-.11,0-.21-.11-.29-.31-.09-.2-.16-.46-.22-.81s-.11-.72-.14-1.18c-.03-.46-.05-.92-.05-1.42s.02-.96.05-1.42c.03-.46.08-.87.14-1.18.06-.35.13-.61.22-.81s.18-.31.29-.31c.04,0,.09.04.13.11.04.04.09.15.13.26s.07.2.1.35.05.26.07.41l.15-.57c-.07-.5-.16-.81-.27-1.07-.11-.2-.21-.31-.32-.31-.13,0-.24.11-.35.35-.11.2-.2.57-.28.96-.08.41-.14.87-.19,1.42-.04.57-.07,1.18-.07,1.83s.02,1.27.07,1.83c.04.57.11,1.03.19,1.42.08.41.17.72.28.96.11.2.22.35.35.35.07,0,.14-.04.2-.11.06-.11.12-.2.18-.35.05-.15.1-.31.14-.5.04-.2.08-.41.11-.61l-.14-.5s-.07.35-.1.5v.02Z"/>
  <path d="M29.69,14.13l-.74,8.59h.2l.19-2.25h.86l.19,2.25h.2l-.74-8.59s-.16,0-.16,0ZM29.4,19.67l.37-4.52.37,4.52h-.74Z"/>
  <polygon points="32.05 21.43 32.04 21.43 31.03 14.13 30.82 14.13 30.82 22.72 30.99 22.72 30.99 15.39 31 15.39 32 22.72 32.22 22.72 32.22 14.13 32.05 14.13 32.05 21.43"/>
  <polygon points="34.44 17.88 33.51 17.88 33.51 14.13 33.34 14.13 33.34 22.72 33.51 22.72 33.51 18.64 34.44 18.64 34.44 22.72 34.61 22.72 34.61 14.13 34.44 14.13 34.44 17.88"/>
  <polygon points="35.24 18.64 36.06 18.64 36.06 17.88 35.24 17.88 35.24 14.93 36.12 14.93 36.12 14.13 35.07 14.13 35.07 22.72 36.14 22.72 36.14 21.96 35.24 21.96 35.24 18.64"/>
  <path d="M37.45,17.94c.07-.41.11-.92.11-1.53,0-.76-.05-1.33-.15-1.72-.1-.35-.24-.57-.41-.57h-.52v8.59h.17v-4.01h.29l.46,4.01h.21l-.49-4.06c.15-.04.26-.31.33-.72ZM36.66,17.94v-3.01h.31c.08,0,.14.04.19.11.05.11.1.2.13.31.03.15.05.31.07.46,0,.2.02.35.02.57s0,.41-.02.61c0,.2-.04.35-.07.46-.03.15-.07.26-.13.31-.05.11-.12.11-.19.11h-.31v.11-.02Z"/>
  <rect x="37.9" y="14.13" width=".17" height="8.59"/>
  <polygon points="39.64 14.13 38.34 14.13 38.34 14.93 38.9 14.93 38.9 22.72 39.07 22.72 39.07 14.93 39.64 14.93 39.64 14.13"/>
  <path d="M40.25,14.13l-.74,8.59h.2l.19-2.25h.86l.19,2.25h.2l-.74-8.59s-.16,0-.16,0ZM39.96,19.67l.37-4.52.37,4.52s-.74,0-.74,0Z"/>
  <path d="M42.21,18.64h.4v2.9c-.06.2-.14.35-.22.46s-.16.15-.25.15c-.11,0-.21-.11-.29-.31-.09-.2-.16-.46-.22-.81s-.11-.72-.14-1.18-.05-.92-.05-1.42.02-.96.05-1.42.08-.87.14-1.18c.06-.35.13-.61.22-.81s.18-.31.29-.31.2.11.28.26c.08.2.15.41.21.72l.13-.65c-.08-.41-.16-.65-.26-.87-.1-.2-.21-.31-.35-.31-.13,0-.24.11-.35.35-.11.2-.2.57-.28.96s-.14.87-.19,1.42c-.04.57-.07,1.18-.07,1.83s.02,1.27.07,1.83c.04.57.11,1.03.19,1.42s.17.72.28.96c.11.2.22.35.35.35.1,0,.21-.04.33-.2.11-.15.22-.35.31-.65v-4.21h-.58v.72-.02Z"/>
  <polygon points="43.41 18.64 44.23 18.64 44.23 17.88 43.41 17.88 43.41 14.93 44.29 14.93 44.29 14.13 43.24 14.13 43.24 22.72 44.32 22.72 44.32 21.96 43.41 21.96 43.41 18.64"/>
  <polygon points="45.49 18.64 46.31 18.64 46.31 17.88 45.49 17.88 45.49 14.93 46.37 14.93 46.37 14.13 45.32 14.13 45.32 22.72 46.4 22.72 46.4 21.96 45.49 21.96 45.49 18.64"/>
  <path d="M47.88,15.19c-.09-.35-.18-.61-.29-.81s-.21-.26-.32-.26h-.56v8.59h.56c.11,0,.21-.11.32-.26.11-.2.2-.46.29-.81s.15-.81.21-1.33c.05-.57.08-1.18.08-1.88s-.03-1.33-.08-1.88c-.06-.57-.13-1.03-.21-1.37ZM47.93,19.71c-.03.41-.08.81-.14,1.11-.06.31-.14.61-.24.81-.09.2-.21.31-.34.31h-.33v-7.02h.33c.13,0,.24.11.34.31.09.2.17.46.24.81.06.31.11.72.14,1.11s.05.87.05,1.27c0,.46-.02.87-.05,1.27v.04Z"/>
  <path d="M49.54,19.4c0,.41,0,.76-.02,1.07s-.04.57-.06.76c-.03.2-.06.35-.09.46s-.07.2-.1.26-.06.11-.1.15c-.03,0-.06.04-.08.04s-.05,0-.08-.04c-.03,0-.06-.04-.09-.15-.03-.04-.07-.15-.1-.26s-.06-.26-.09-.46-.05-.46-.06-.76c-.02-.31-.02-.65-.02-1.07v-5.28h-.17v5.39c0,.35,0,.72.03,1.11s.05.76.09,1.11c.05.35.11.61.19.87.08.2.18.35.31.35s.23-.11.31-.35c.08-.2.14-.5.19-.87s.08-.72.09-1.11c.02-.41.03-.76.03-1.11v-5.39h-.17v5.28h0Z"/>
  <path d="M51.29,21.5c-.04.15-.08.31-.12.41-.04.11-.09.15-.13.2s-.09.04-.13.04c-.11,0-.21-.11-.29-.31-.09-.2-.16-.46-.22-.81s-.11-.72-.14-1.18-.05-.92-.05-1.42.02-.96.05-1.42.08-.87.14-1.18c.06-.35.13-.61.22-.81s.18-.31.29-.31c.04,0,.09.04.13.11.04.04.09.15.13.26s.07.2.1.35.05.26.07.41l.15-.57c-.07-.5-.16-.81-.27-1.07-.11-.2-.21-.31-.32-.31-.13,0-.24.11-.35.35-.11.2-.2.57-.28.96s-.14.87-.19,1.42c-.04.57-.07,1.18-.07,1.83s.02,1.27.07,1.83c.04.57.11,1.03.19,1.42s.17.72.28.96c.11.2.22.35.35.35.07,0,.14-.04.2-.11.06-.11.12-.2.18-.35.05-.15.1-.31.14-.5s.08-.41.11-.61l-.14-.5s-.06.35-.1.5v.02Z"/>
  <path d="M52.33,14.13l-.74,8.59h.2l.19-2.25h.86l.19,2.25h.2l-.74-8.59s-.16,0-.16,0ZM52.05,19.67l.37-4.52.37,4.52s-.74,0-.74,0Z"/>
  <polygon points="53.11 14.93 53.67 14.93 53.67 22.72 53.85 22.72 53.85 14.93 54.41 14.93 54.41 14.13 53.11 14.13 53.11 14.93"/>
  <rect x="54.68" y="14.13" width=".17" height="8.59"/>
  <path d="M56.7,15.19c-.08-.41-.17-.72-.28-.96-.11-.2-.22-.35-.35-.35s-.24.11-.35.35c-.11.2-.2.57-.28.96s-.14.87-.19,1.42c-.04.57-.07,1.18-.07,1.83s.02,1.27.07,1.83c.04.57.11,1.03.19,1.42s.17.72.28.96c.11.2.22.35.35.35s.24-.11.35-.35c.11-.2.2-.57.28-.96s.14-.87.19-1.42c.04-.57.07-1.18.07-1.83s-.02-1.27-.07-1.83-.11-1.03-.19-1.42ZM56.72,19.86c-.03.46-.08.87-.14,1.18-.06.35-.13.61-.22.81s-.18.31-.29.31-.21-.11-.29-.31c-.09-.2-.16-.46-.22-.81s-.11-.72-.14-1.18-.05-.92-.05-1.42.02-.96.05-1.42.08-.87.14-1.18c.06-.35.13-.61.22-.81s.18-.31.29-.31.21.11.29.31c.09.2.16.46.22.81s.11.72.14,1.18.05.92.05,1.42c0,.46-.02.96-.05,1.42Z"/>
  <polygon points="58.53 21.43 58.52 21.43 57.51 14.13 57.3 14.13 57.3 22.72 57.47 22.72 57.47 15.39 57.48 15.39 58.48 22.72 58.7 22.72 58.7 14.13 58.53 14.13 58.53 21.43"/>
  <path d="M60.33,14.13l-.74,8.59h.2l.19-2.25h.86l.19,2.25h.2l-.74-8.59s-.16,0-.16,0ZM60.04,19.67l.37-4.52.37,4.52s-.74,0-.74,0Z"/>
  <polygon points="62.69 21.43 62.68 21.43 61.68 14.13 61.46 14.13 61.46 22.72 61.63 22.72 61.63 15.39 61.64 15.39 62.65 22.72 62.86 22.72 62.86 14.13 62.69 14.13 62.69 21.43"/>
  <path d="M64.46,15.19c-.09-.35-.18-.61-.29-.81s-.21-.26-.32-.26h-.56v8.59h.56c.11,0,.21-.11.32-.26.11-.2.2-.46.29-.81.09-.35.15-.81.21-1.33.05-.57.08-1.18.08-1.88s-.03-1.33-.08-1.88c-.06-.57-.12-1.03-.21-1.37ZM64.51,19.71c-.03.41-.08.81-.14,1.11s-.14.61-.24.81c-.09.2-.21.31-.34.31h-.33v-7.02h.33c.13,0,.24.11.34.31.09.2.17.46.24.81.06.31.11.72.14,1.11s.05.87.05,1.27c0,.46-.02.87-.05,1.27v.04Z"/>
  <polygon points="65.93 18.64 66.75 18.64 66.75 17.88 65.93 17.88 65.93 14.93 66.8 14.93 66.8 14.13 65.75 14.13 65.75 22.72 66.83 22.72 66.83 21.96 65.93 21.96 65.93 18.64"/>
  <polygon points="68 21.13 67.43 14.13 67.17 14.13 67.17 22.72 67.34 22.72 67.34 15.28 67.35 15.28 67.96 22.72 68.05 22.72 68.66 15.28 68.67 15.28 68.67 22.72 68.84 22.72 68.84 14.13 68.58 14.13 68 21.13"/>
  <path d="M70.2,14.67c-.1-.35-.24-.57-.41-.57h-.49v8.59h.17v-4.01h.32c.17,0,.31-.2.41-.57.1-.41.15-.96.15-1.72s-.05-1.33-.15-1.72ZM70.14,17.03c-.01.2-.04.35-.07.46-.03.15-.07.26-.13.31-.05.11-.12.11-.19.11h-.28v-3.01h.28c.08,0,.14.04.19.11.05.11.1.2.13.31.03.15.05.31.07.46.01.2.02.35.02.57,0,.31,0,.5-.02.72v-.02Z"/>
  <path d="M72.07,15.19c-.08-.41-.17-.72-.28-.96-.11-.2-.22-.35-.35-.35s-.24.11-.35.35c-.11.2-.2.57-.28.96-.08.41-.14.87-.19,1.42-.04.57-.07,1.18-.07,1.83s.02,1.27.07,1.83c.04.57.11,1.03.19,1.42.08.41.17.72.28.96.11.2.22.35.35.35s.24-.11.35-.35c.11-.2.2-.57.28-.96.08-.41.14-.87.19-1.42.04-.57.07-1.18.07-1.83s-.02-1.27-.07-1.83-.12-1.03-.19-1.42ZM72.08,19.86c-.03.46-.08.87-.14,1.18-.06.35-.13.61-.22.81-.09.2-.18.31-.29.31s-.21-.11-.29-.31c-.09-.2-.16-.46-.22-.81s-.11-.72-.14-1.18-.05-.92-.05-1.42.02-.96.05-1.42c.03-.46.08-.87.14-1.18.06-.35.13-.61.22-.81.09-.2.18-.31.29-.31s.21.11.29.31c.09.2.16.46.22.81s.11.72.14,1.18.05.92.05,1.42c0,.46-.01.96-.05,1.42Z"/>
  <polygon points="74.1 21.5 74.09 21.5 73.67 14.13 73.46 14.13 73.03 21.5 73.03 21.5 72.62 14.13 72.43 14.13 72.93 22.72 73.13 22.72 73.56 15.39 73.56 15.39 73.99 22.72 74.19 22.72 74.69 14.13 74.5 14.13 74.1 21.5"/>
  <polygon points="75.09 18.64 75.91 18.64 75.91 17.88 75.09 17.88 75.09 14.93 75.97 14.93 75.97 14.13 74.92 14.13 74.92 22.72 75.99 22.72 75.99 21.96 75.09 21.96 75.09 18.64"/>
  <path d="M77.3,17.94c.07-.41.11-.92.11-1.53,0-.76-.05-1.33-.15-1.72-.1-.35-.24-.57-.41-.57h-.52v8.59h.17v-4.01h.29l.46,4.01h.21l-.49-4.06c.15-.04.26-.31.33-.72ZM76.51,17.94v-3.01h.31c.08,0,.14.04.19.11.05.11.1.2.13.31.03.15.05.31.07.46.01.2.02.35.02.57s-.01.41-.02.61c-.01.2-.04.35-.07.46-.03.15-.07.26-.13.31-.05.11-.12.11-.19.11h-.31v.11-.02Z"/>
  <polygon points="78.58 21.13 78.01 14.13 77.75 14.13 77.75 22.72 77.92 22.72 77.92 15.28 77.93 15.28 78.54 22.72 78.63 22.72 79.24 15.28 79.25 15.28 79.25 22.72 79.42 22.72 79.42 14.13 79.16 14.13 78.58 21.13"/>
  <polygon points="80.05 18.64 80.87 18.64 80.87 17.88 80.05 17.88 80.05 14.93 80.93 14.93 80.93 14.13 79.88 14.13 79.88 22.72 80.95 22.72 80.95 21.96 80.05 21.96 80.05 18.64"/>
  <polygon points="82.52 21.43 82.52 21.43 81.51 14.13 81.29 14.13 81.29 22.72 81.47 22.72 81.47 15.39 81.47 15.39 82.48 22.72 82.69 22.72 82.69 14.13 82.52 14.13 82.52 21.43"/>
  <polygon points="82.96 14.93 83.52 14.93 83.52 22.72 83.7 22.72 83.7 14.93 84.26 14.93 84.26 14.13 82.96 14.13 82.96 14.93"/>
  <path d="M86.34,21.5c-.04.15-.08.31-.12.41s-.09.15-.13.2-.09.04-.13.04c-.11,0-.21-.11-.29-.31-.09-.2-.16-.46-.22-.81s-.11-.72-.14-1.18-.05-.92-.05-1.42.02-.96.05-1.42c.03-.46.08-.87.14-1.18.06-.35.13-.61.22-.81.09-.2.18-.31.29-.31.04,0,.09.04.13.11.04.04.09.15.13.26s.07.2.1.35.05.26.07.41l.15-.57c-.07-.5-.16-.81-.27-1.07-.11-.2-.21-.31-.32-.31-.13,0-.24.11-.35.35-.11.2-.2.57-.28.96-.08.41-.14.87-.19,1.42-.04.57-.07,1.18-.07,1.83s.02,1.27.07,1.83c.04.57.11,1.03.19,1.42.08.41.17.72.28.96.11.2.22.35.35.35.07,0,.14-.04.2-.11.06-.11.12-.2.18-.35.05-.15.1-.31.14-.5s.08-.41.11-.61l-.14-.5s-.07.35-.1.5v.02Z"/>
  <path d="M88.27,15.19c-.08-.41-.17-.72-.28-.96-.11-.2-.22-.35-.35-.35s-.24.11-.35.35c-.11.2-.2.57-.28.96-.08.41-.14.87-.19,1.42-.04.57-.07,1.18-.07,1.83s.02,1.27.07,1.83c.04.57.11,1.03.19,1.42.08.41.17.72.28.96.11.2.22.35.35.35s.24-.11.35-.35c.11-.2.2-.57.28-.96.08-.41.14-.87.19-1.42.04-.57.07-1.18.07-1.83s-.02-1.27-.07-1.83-.11-1.03-.19-1.42ZM88.28,19.86c-.03.46-.08.87-.14,1.18-.06.35-.13.61-.22.81-.09.2-.18.31-.29.31s-.21-.11-.29-.31c-.09-.2-.16-.46-.22-.81s-.11-.72-.14-1.18-.05-.92-.05-1.42.02-.96.05-1.42c.03-.46.08-.87.14-1.18.06-.35.13-.61.22-.81.09-.2.18-.31.29-.31s.21.11.29.31c.09.2.16.46.22.81s.11.72.14,1.18.05.92.05,1.42c0,.46-.01.96-.05,1.42Z"/>
  <polygon points="89.7 21.13 89.13 14.13 88.86 14.13 88.86 22.72 89.03 22.72 89.03 15.28 89.04 15.28 89.65 22.72 89.74 22.72 90.35 15.28 90.36 15.28 90.36 22.72 90.53 22.72 90.53 14.13 90.27 14.13 89.7 21.13"/>
  <polygon points="91.82 21.13 91.25 14.13 90.99 14.13 90.99 22.72 91.16 22.72 91.16 15.28 91.17 15.28 91.78 22.72 91.87 22.72 92.48 15.28 92.49 15.28 92.49 22.72 92.66 22.72 92.66 14.13 92.39 14.13 91.82 21.13"/>
  <path d="M94.15,19.4c0,.41-.01.76-.02,1.07-.02.31-.04.57-.06.76-.03.2-.06.35-.09.46s-.07.2-.1.26-.06.11-.1.15c-.03,0-.06.04-.08.04s-.05,0-.08-.04c-.03,0-.06-.04-.09-.15-.03-.04-.07-.15-.1-.26s-.06-.26-.09-.46-.05-.46-.06-.76c-.02-.31-.02-.65-.02-1.07v-5.28h-.17v5.39c0,.35.01.72.03,1.11s.05.76.09,1.11c.05.35.11.61.19.87.08.2.18.35.31.35s.23-.11.31-.35c.08-.2.14-.5.19-.87s.08-.72.09-1.11c.02-.41.03-.76.03-1.11v-5.39h-.17v5.28h-.01Z"/>
  <polygon points="95.98 21.43 95.98 21.43 94.97 14.13 94.75 14.13 94.75 22.72 94.93 22.72 94.93 15.39 94.93 15.39 95.94 22.72 96.15 22.72 96.15 14.13 95.98 14.13 95.98 21.43"/>
  <rect x="96.61" y="14.13" width=".17" height="8.59"/>
  <polygon points="97.05 14.93 97.61 14.93 97.61 22.72 97.79 22.72 97.79 14.93 98.35 14.93 98.35 14.13 97.05 14.13 97.05 14.93"/>
  <polygon points="99.07 18.18 98.57 14.13 98.35 14.13 98.99 19.01 98.99 22.72 99.16 22.72 99.16 19.01 99.79 14.13 99.58 14.13 99.07 18.18"/>
  <path d="M34.58,12.56L29.47.92h-2.14l-5.08,11.64h2.85l.98-2.47h4.56l1.01,2.47h2.93ZM26.9,7.92l1.43-3.62,1.44,3.62h-2.87Z"/>
  <polygon points="43.74 3.28 43.74 .91 35.86 .91 35.86 12.56 38.45 12.56 38.45 8.02 43.34 8.02 43.34 5.65 38.45 5.65 38.45 3.28 43.74 3.28"/>
  <path d="M53.93,6.54c.43-.58.65-1.28.65-2.1,0-.68-.12-1.25-.36-1.71s-.56-.81-.96-1.08c-.4-.27-.87-.46-1.41-.58s-1.1-.17-1.7-.17h-4.55v11.64h2.59v-4.65h1.28l2.46,4.65h3.1l-2.99-4.92c.82-.15,1.45-.52,1.89-1.09ZM51.68,5.17c-.14.18-.31.31-.52.39s-.45.13-.71.15-.51.02-.74.02h-1.53v-2.65h1.69c.23,0,.47.02.71.05.24.03.46.1.65.19.19.09.34.23.46.41s.18.41.18.7c.02.32-.05.57-.19.74Z"/>
  <polygon points="63.96 12.56 66.55 12.56 66.55 .91 63.96 .91 63.96 5.25 58.94 5.25 58.94 .91 56.35 .91 56.35 12.56 58.94 12.56 58.94 7.52 63.96 7.52 63.96 12.56"/>
  <polygon points="77.02 3.28 77.02 .91 69.04 .91 69.04 12.56 77.31 12.56 77.31 10.19 71.62 10.19 71.62 7.82 76.72 7.82 76.72 5.45 71.62 5.45 71.62 3.28 77.02 3.28"/>
  <polygon points="87.77 10.19 82.08 10.19 82.08 7.82 87.17 7.82 87.17 5.45 82.08 5.45 82.08 3.28 87.47 3.28 87.47 .91 79.49 .91 79.49 12.56 87.77 12.56 87.77 10.19"/>
  <path d="M97.9,12.36c.76-.33,1.39-.84,1.89-1.53l-2.16-1.6c-.27.4-.6.7-1.01.92s-.88.33-1.41.33c-.46,0-.9-.09-1.3-.28s-.75-.45-1.05-.78-.53-.73-.7-1.18c-.17-.46-.26-.95-.26-1.51s.09-1.04.26-1.5c.17-.46.41-.86.71-1.19.3-.34.66-.59,1.08-.78.41-.19.87-.28,1.35-.28s.91.08,1.29.25c.37.17.68.4.94.7l1.99-1.62c-.25-.32-.54-.58-.86-.8s-.66-.4-1-.53c-.35-.13-.7-.23-1.06-.29-.36-.06-.71-.09-1.04-.09-.92,0-1.76.14-2.54.43-.77.29-1.44.69-2.01,1.23-.56.54-1,1.18-1.32,1.93-.32.75-.47,1.6-.47,2.53s.16,1.77.47,2.53c.32.75.75,1.4,1.32,1.93.56.54,1.23.94,2.01,1.23.77.29,1.62.43,2.54.43.79,0,1.58-.17,2.34-.5h0Z"/>
</svg>