<?xml version="1.0" encoding="UTF-8"?>
<svg id="Layer_1" xmlns="http://www.w3.org/2000/svg" version="1.1" viewBox="0 0 108 37.7">
  <!-- Generator: Adobe Illustrator 29.2.1, SVG Export Plug-In . SVG Version: 2.1.0 Build 116)  -->
  <defs>
    <style>
      .st0 {
        fill: none;
      }
    </style>
  </defs>
  <path class="st0" d="M58.67,24.19c-.09-.44-.2-.8-.33-1.07-.13-.27-.29-.4-.47-.4h-.47v9.45h.47c.18,0,.34-.13.47-.4.13-.27.24-.62.33-1.07.09-.44.15-.95.19-1.51.04-.56.06-1.15.06-1.75s-.02-1.18-.06-1.75c-.04-.56-.11-1.07-.19-1.51Z"/>
  <path class="st0" d="M20.94,26.18c.04-.18.08-.39.1-.64.02-.25.03-.51.03-.8s0-.53-.03-.78c-.02-.25-.05-.46-.1-.65-.04-.19-.1-.33-.18-.44-.07-.1-.16-.16-.27-.16h-.43v4.05h.43c.11,0,.2-.05.27-.16.07-.11.13-.25.18-.44Z"/>
  <polygon class="st0" points="24.67 29.12 25.69 29.12 25.18 23.02 24.67 29.12"/>
  <path class="st0" d="M76.44,26.18c.04-.18.08-.39.1-.64.02-.25.03-.51.03-.8s0-.53-.03-.78c-.02-.25-.05-.46-.1-.65-.04-.19-.1-.33-.18-.44-.07-.1-.16-.16-.27-.16h-.43v4.05h.43c.11,0,.2-.05.27-.16.07-.11.13-.25.18-.44Z"/>
  <path class="st0" d="M66.6,23.32c-.04-.19-.1-.33-.18-.44-.07-.1-.16-.16-.27-.16h-.39v4.05h.39c.11,0,.2-.05.27-.16.07-.11.13-.25.18-.44.04-.18.08-.39.1-.64.02-.25.03-.51.03-.8s0-.53-.03-.78c-.02-.25-.05-.46-.1-.65Z"/>
  <polygon class="st0" points="41.5 29.12 42.52 29.12 42.01 23.02 41.5 29.12"/>
  <polygon class="st0" points="9.96 29.12 10.98 29.12 10.47 23.02 9.96 29.12"/>
  <path class="st0" d="M69.22,23.94c-.08-.46-.18-.83-.3-1.1-.12-.27-.26-.41-.41-.41s-.29.14-.41.41c-.12.27-.22.64-.3,1.1-.08.46-.15.99-.19,1.6-.04.61-.07,1.24-.07,1.91s.02,1.3.07,1.91c.04.61.11,1.14.19,1.6.08.46.18.83.3,1.1.12.27.26.41.41.41s.29-.14.41-.41c.12-.27.22-.64.3-1.1.08-.46.15-.99.19-1.6.04-.61.07-1.24.07-1.91s-.02-1.3-.07-1.91c-.04-.61-.11-1.14-.19-1.6Z"/>
  <polygon class="st0" points="9.04 12.37 12.82 12.37 10.92 7.56 9.04 12.37"/>
  <path class="st0" d="M47.82,23.94c-.08-.46-.18-.83-.3-1.1-.12-.27-.26-.41-.41-.41s-.29.14-.41.41-.22.64-.3,1.1c-.08.46-.15.99-.19,1.6-.04.61-.07,1.24-.07,1.91s.02,1.3.07,1.91c.04.61.11,1.14.19,1.6.08.46.18.83.3,1.1.12.27.26.41.41.41s.29-.14.41-.41c.12-.27.22-.64.3-1.1.08-.46.15-.99.19-1.6.04-.61.07-1.24.07-1.91s-.02-1.3-.07-1.91c-.04-.61-.11-1.14-.19-1.6Z"/>
  <path class="st0" d="M41.11,6.26c-.25-.12-.53-.21-.85-.25-.32-.04-.63-.07-.94-.07h-2.23v3.52h2.01c.31,0,.63-.01.97-.03.34-.02.65-.09.93-.2.28-.11.51-.28.69-.51.18-.23.27-.56.27-.98,0-.39-.08-.71-.24-.94-.16-.23-.36-.41-.61-.54Z"/>
  <polygon class="st0" points="52.64 29.12 53.66 29.12 53.15 23.02 52.64 29.12"/>
  <path class="st0" d="M91.78,23.94c-.08-.46-.18-.83-.3-1.1-.12-.27-.26-.41-.41-.41s-.29.14-.41.41c-.12.27-.22.64-.3,1.1-.08.46-.15.99-.19,1.6-.04.61-.07,1.24-.07,1.91s.02,1.3.07,1.91c.04.61.11,1.14.19,1.6.08.46.18.83.3,1.1.12.27.26.41.41.41s.29-.14.41-.41c.12-.27.22-.64.3-1.1.08-.46.15-.99.19-1.6.04-.61.07-1.24.07-1.91s-.02-1.3-.07-1.91c-.04-.61-.11-1.14-.19-1.6Z"/>
  <path class="st0" d="M5.57,26.18c.04-.18.08-.39.1-.64.02-.25.03-.51.03-.8s-.01-.53-.03-.78c-.02-.25-.05-.46-.1-.65-.04-.19-.1-.33-.18-.44-.07-.1-.16-.16-.27-.16h-.43v4.05h.43c.11,0,.2-.05.27-.16s.13-.25.18-.44Z"/>
  <path class="st0" d="M35.57,24.19c-.09-.44-.2-.8-.33-1.07-.13-.27-.29-.4-.47-.4h-.47v9.45h.47c.18,0,.34-.13.47-.4.13-.27.24-.62.33-1.07.09-.44.15-.95.19-1.51.04-.56.06-1.15.06-1.75s-.02-1.18-.06-1.75c-.04-.56-.11-1.07-.19-1.51Z"/>
  <polygon class="st0" points=".63 29.12 1.65 29.12 1.14 23.02 .63 29.12"/>
  <path d="M1.02,21.64l-1.02,11.61h.28l.26-3.05h1.2l.26,3.05h.28l-1.03-11.61h-.23ZM.63,29.12l.51-6.1.51,6.1H.63Z"/>
  <polygon points="2.6 33.26 2.84 33.26 2.84 27.76 3.94 27.76 3.94 26.68 2.84 26.68 2.84 22.73 4.02 22.73 4.02 21.64 2.6 21.64 2.6 33.26"/>
  <path d="M5.8,26.79c.1-.55.15-1.23.15-2.04,0-1.04-.07-1.81-.21-2.33-.14-.51-.33-.77-.57-.77h-.73v11.61h.24v-5.4h.4l.65,5.4h.29l-.68-5.51c.2-.09.34-.41.45-.96ZM4.69,26.78v-4.05h.43c.11,0,.2.05.27.16.07.1.13.25.18.44.04.19.08.4.1.65.02.25.03.51.03.78s-.01.55-.03.8c-.02.25-.05.46-.1.64-.04.18-.1.33-.18.44s-.16.16-.27.16h-.43Z"/>
  <rect x="6.43" y="21.64" width=".24" height="11.61"/>
  <path d="M8.9,31.58c-.05.22-.11.4-.17.53-.06.13-.12.22-.18.28-.06.06-.12.08-.18.08-.15,0-.29-.14-.41-.41-.12-.27-.22-.64-.3-1.1-.08-.46-.15-.99-.19-1.6-.04-.61-.07-1.24-.07-1.91s.02-1.3.07-1.91c.04-.61.11-1.14.19-1.6.08-.46.18-.83.3-1.1.12-.27.26-.41.41-.41.06,0,.12.04.19.13.06.09.12.2.17.34.05.14.1.31.14.49.04.19.08.37.1.56l.21-.77c-.1-.66-.23-1.13-.38-1.41-.15-.28-.29-.43-.44-.43-.18,0-.34.15-.49.46-.15.31-.28.73-.39,1.27-.11.54-.2,1.18-.26,1.93-.06.74-.09,1.56-.09,2.44s.03,1.7.09,2.44c.06.74.15,1.39.26,1.93.11.54.24.96.39,1.27.15.31.31.46.49.46.1,0,.19-.05.28-.16.09-.11.17-.26.24-.45.08-.19.14-.42.2-.68.06-.26.11-.54.15-.84l-.2-.69c-.04.34-.09.62-.14.85Z"/>
  <path d="M10.35,21.64l-1.02,11.61h.28l.26-3.05h1.2l.26,3.05h.28l-1.03-11.61h-.23ZM9.96,29.12l.51-6.1.51,6.1h-1.02Z"/>
  <polygon points="13.64 31.48 13.63 31.48 12.23 21.64 11.93 21.64 11.93 33.26 12.17 33.26 12.17 23.32 12.18 23.32 13.58 33.26 13.88 33.26 13.88 21.64 13.64 21.64 13.64 31.48"/>
  <polygon points="16.97 26.68 15.68 26.68 15.68 21.64 15.44 21.64 15.44 33.26 15.68 33.26 15.68 27.76 16.97 27.76 16.97 33.26 17.21 33.26 17.21 21.64 16.97 21.64 16.97 26.68"/>
  <polygon points="18.09 27.76 19.23 27.76 19.23 26.68 18.09 26.68 18.09 22.73 19.31 22.73 19.31 21.64 17.85 21.64 17.85 33.26 19.35 33.26 19.35 32.17 18.09 32.17 18.09 27.76"/>
  <path d="M21.17,26.79c.1-.55.15-1.23.15-2.04,0-1.04-.07-1.81-.21-2.33-.14-.51-.33-.77-.57-.77h-.73v11.61h.24v-5.4h.4l.65,5.4h.29l-.68-5.51c.2-.09.34-.41.45-.96ZM20.06,26.78v-4.05h.43c.11,0,.2.05.27.16.07.1.13.25.18.44.04.19.08.4.1.65.02.25.03.51.03.78s0,.55-.03.8c-.02.25-.05.46-.1.64-.04.18-.1.33-.18.44-.07.11-.16.16-.27.16h-.43Z"/>
  <rect x="21.79" y="21.64" width=".24" height="11.61"/>
  <polygon points="24.22 21.64 22.4 21.64 22.4 22.73 23.19 22.73 23.19 33.26 23.43 33.26 23.43 22.73 24.22 22.73 24.22 21.64"/>
  <path d="M25.06,21.64l-1.02,11.61h.28l.26-3.05h1.2l.26,3.05h.28l-1.03-11.61h-.23ZM24.67,29.12l.51-6.1.51,6.1h-1.02Z"/>
  <path d="M27.8,27.76h.56v3.89c-.09.25-.19.45-.3.6-.11.15-.23.22-.35.22-.15,0-.29-.14-.41-.41-.12-.27-.22-.64-.3-1.1-.08-.46-.15-.99-.19-1.6-.04-.61-.07-1.24-.07-1.91s.02-1.3.07-1.91c.04-.61.11-1.14.19-1.6.08-.46.18-.83.3-1.1s.26-.41.41-.41.28.12.39.36c.11.24.21.57.29.98l.18-.87c-.11-.53-.23-.92-.36-1.17-.14-.26-.3-.39-.49-.39-.18,0-.34.15-.49.46-.15.31-.28.73-.39,1.27-.11.54-.2,1.18-.26,1.93-.06.74-.09,1.56-.09,2.44s.03,1.7.09,2.44c.06.74.15,1.39.26,1.93.11.54.24.96.39,1.27.15.31.31.46.49.46.14,0,.3-.1.45-.3.16-.2.3-.49.44-.88v-5.69h-.8v1.08Z"/>
  <polygon points="29.47 27.76 30.61 27.76 30.61 26.68 29.47 26.68 29.47 22.73 30.69 22.73 30.69 21.64 29.23 21.64 29.23 33.26 30.73 33.26 30.73 32.17 29.47 32.17 29.47 27.76"/>
  <polygon points="32.37 27.76 33.51 27.76 33.51 26.68 32.37 26.68 32.37 22.73 33.59 22.73 33.59 21.64 32.13 21.64 32.13 33.26 33.63 33.26 33.63 32.17 32.37 32.17 32.37 27.76"/>
  <path d="M35.69,23.09c-.12-.49-.25-.85-.4-1.09-.15-.24-.29-.36-.44-.36h-.78v11.61h.78c.15,0,.29-.12.44-.36.15-.24.28-.6.4-1.09.12-.49.21-1.09.29-1.81.07-.72.11-1.57.11-2.54s-.04-1.81-.11-2.53c-.07-.73-.17-1.33-.29-1.82ZM35.76,29.2c-.04.56-.11,1.07-.19,1.51-.09.44-.2.8-.33,1.07-.13.27-.29.4-.47.4h-.47v-9.45h.47c.18,0,.34.13.47.4.13.27.24.62.33,1.07.09.44.15.95.19,1.51.04.56.06,1.14.06,1.75s-.02,1.18-.06,1.75Z"/>
  <path d="M38.01,28.79c0,.56-.01,1.04-.03,1.44-.02.4-.05.74-.09,1.01-.04.27-.08.49-.12.65-.05.16-.09.28-.14.37-.05.09-.09.15-.13.17-.04.03-.08.04-.11.04-.03,0-.07-.01-.11-.04-.04-.03-.09-.08-.13-.17-.05-.09-.09-.21-.14-.37-.05-.16-.09-.37-.12-.65-.04-.27-.07-.61-.09-1.01-.02-.4-.03-.88-.03-1.44v-7.15h-.24v7.28c0,.48.01.99.03,1.53.02.54.07,1.04.13,1.5.06.46.15.84.26,1.14.11.3.26.45.43.45s.32-.15.43-.45c.11-.3.2-.68.26-1.14.06-.46.11-.96.13-1.5.02-.54.03-1.05.03-1.53v-7.28h-.24v7.15Z"/>
  <path d="M40.45,31.58c-.05.22-.11.4-.17.53-.06.13-.12.22-.18.28-.06.06-.12.08-.18.08-.15,0-.29-.14-.41-.41-.12-.27-.22-.64-.3-1.1-.08-.46-.15-.99-.19-1.6-.04-.61-.07-1.24-.07-1.91s.02-1.3.07-1.91c.04-.61.11-1.14.19-1.6.08-.46.18-.83.3-1.1.12-.27.26-.41.41-.41.06,0,.12.04.19.13.06.09.12.2.17.34.05.14.1.31.14.49.04.19.08.37.1.56l.21-.77c-.1-.66-.23-1.13-.38-1.41-.15-.28-.29-.43-.44-.43-.18,0-.34.15-.49.46-.15.31-.28.73-.39,1.27-.11.54-.2,1.18-.26,1.93-.06.74-.09,1.56-.09,2.44s.03,1.7.09,2.44c.06.74.15,1.39.26,1.93.11.54.24.96.39,1.27.15.31.31.46.49.46.1,0,.19-.05.28-.16.09-.11.17-.26.24-.45.08-.19.14-.42.2-.68.06-.26.11-.54.15-.84l-.2-.69c-.04.34-.09.62-.14.85Z"/>
  <path d="M41.9,21.64l-1.03,11.61h.28l.26-3.05h1.2l.26,3.05h.28l-1.03-11.61h-.23ZM41.5,29.12l.51-6.1.51,6.1h-1.02Z"/>
  <polygon points="42.98 22.73 43.76 22.73 43.76 33.26 44 33.26 44 22.73 44.79 22.73 44.79 21.64 42.98 21.64 42.98 22.73"/>
  <rect x="45.16" y="21.64" width=".24" height="11.61"/>
  <path d="M47.98,23.08c-.11-.54-.24-.97-.39-1.27-.15-.31-.31-.46-.49-.46s-.34.15-.49.46c-.15.31-.28.73-.39,1.27-.11.54-.2,1.18-.26,1.93-.06.74-.09,1.56-.09,2.44s.03,1.7.09,2.44c.06.74.15,1.39.26,1.93.11.54.24.96.39,1.27.15.31.31.46.49.46s.34-.15.49-.46c.15-.31.28-.73.39-1.27.11-.54.2-1.18.26-1.93.06-.74.09-1.56.09-2.44s-.03-1.7-.09-2.44c-.06-.74-.15-1.39-.26-1.93ZM48.01,29.36c-.04.61-.11,1.14-.19,1.6-.08.46-.18.83-.3,1.1-.12.27-.26.41-.41.41s-.29-.14-.41-.41c-.12-.27-.22-.64-.3-1.1-.08-.46-.15-.99-.19-1.6-.04-.61-.07-1.24-.07-1.91s.02-1.3.07-1.91c.04-.61.11-1.14.19-1.6.08-.46.18-.83.3-1.1s.26-.41.41-.41.29.14.41.41c.12.27.22.64.3,1.1.08.46.15.99.19,1.6.04.61.07,1.24.07,1.91s-.02,1.3-.07,1.91Z"/>
  <polygon points="50.52 31.48 50.52 31.48 49.11 21.64 48.81 21.64 48.81 33.26 49.05 33.26 49.05 23.32 49.06 23.32 50.46 33.26 50.76 33.26 50.76 21.64 50.52 21.64 50.52 31.48"/>
  <path d="M53.03,21.64l-1.02,11.61h.28l.26-3.05h1.2l.26,3.05h.28l-1.03-11.61h-.23ZM52.64,29.12l.51-6.1.51,6.1h-1.02Z"/>
  <polygon points="56.32 31.48 56.31 31.48 54.91 21.64 54.61 21.64 54.61 33.26 54.85 33.26 54.85 23.32 54.86 23.32 56.26 33.26 56.56 33.26 56.56 21.64 56.32 21.64 56.32 31.48"/>
  <path d="M58.79,23.09c-.12-.49-.25-.85-.4-1.09-.15-.24-.29-.36-.44-.36h-.78v11.61h.78c.15,0,.29-.12.44-.36s.28-.6.4-1.09c.12-.49.21-1.09.29-1.81.07-.72.11-1.57.11-2.54s-.04-1.81-.11-2.53c-.07-.73-.17-1.33-.29-1.82ZM58.86,29.2c-.04.56-.11,1.07-.19,1.51-.09.44-.2.8-.33,1.07-.13.27-.29.4-.47.4h-.47v-9.45h.47c.18,0,.34.13.47.4.13.27.24.62.33,1.07.09.44.15.95.19,1.51.04.56.06,1.14.06,1.75s-.02,1.18-.06,1.75Z"/>
  <polygon points="60.83 27.76 61.97 27.76 61.97 26.68 60.83 26.68 60.83 22.73 62.05 22.73 62.05 21.64 60.59 21.64 60.59 33.26 62.09 33.26 62.09 32.17 60.83 32.17 60.83 27.76"/>
  <polygon points="63.73 31.09 62.93 21.64 62.56 21.64 62.56 33.26 62.8 33.26 62.8 23.22 62.81 23.22 63.66 33.26 63.79 33.26 64.64 23.22 64.65 23.22 64.65 33.26 64.89 33.26 64.89 21.64 64.52 21.64 63.73 31.09"/>
  <path d="M66.78,22.41c-.14-.51-.33-.77-.57-.77h-.69v11.61h.24v-5.4h.45c.24,0,.43-.26.57-.78s.21-1.3.21-2.34-.07-1.81-.21-2.33ZM66.7,25.54c-.02.25-.05.46-.1.64-.04.18-.1.33-.18.44-.07.11-.16.16-.27.16h-.39v-4.05h.39c.11,0,.2.05.27.16.07.1.13.25.18.44.04.19.08.4.1.65.02.25.03.51.03.78s0,.55-.03.8Z"/>
  <path d="M69.38,23.08c-.11-.54-.24-.97-.39-1.27-.15-.31-.31-.46-.49-.46s-.34.15-.49.46c-.15.31-.28.73-.39,1.27-.11.54-.2,1.18-.26,1.93-.06.74-.09,1.56-.09,2.44s.03,1.7.09,2.44c.06.74.15,1.39.26,1.93.11.54.24.96.39,1.27.15.31.31.46.49.46s.34-.15.49-.46c.15-.31.28-.73.39-1.27.11-.54.2-1.18.26-1.93.06-.74.09-1.56.09-2.44s-.03-1.7-.09-2.44c-.06-.74-.15-1.39-.26-1.93ZM69.41,29.36c-.04.61-.11,1.14-.19,1.6-.08.46-.18.83-.3,1.1-.12.27-.26.41-.41.41s-.29-.14-.41-.41c-.12-.27-.22-.64-.3-1.1-.08-.46-.15-.99-.19-1.6-.04-.61-.07-1.24-.07-1.91s.02-1.3.07-1.91c.04-.61.11-1.14.19-1.6.08-.46.18-.83.3-1.1.12-.27.26-.41.41-.41s.29.14.41.41c.12.27.22.64.3,1.1.08.46.15.99.19,1.6.04.61.07,1.24.07,1.91s-.02,1.3-.07,1.91Z"/>
  <polygon points="72.21 31.58 72.2 31.58 71.61 21.64 71.32 21.64 70.73 31.58 70.72 31.58 70.16 21.64 69.89 21.64 70.59 33.26 70.87 33.26 71.46 23.32 71.47 23.32 72.06 33.26 72.34 33.26 73.03 21.64 72.77 21.64 72.21 31.58"/>
  <polygon points="73.59 27.76 74.73 27.76 74.73 26.68 73.59 26.68 73.59 22.73 74.81 22.73 74.81 21.64 73.35 21.64 73.35 33.26 74.85 33.26 74.85 32.17 73.59 32.17 73.59 27.76"/>
  <path d="M76.67,26.79c.1-.55.15-1.23.15-2.04,0-1.04-.07-1.81-.21-2.33-.14-.51-.33-.77-.57-.77h-.73v11.61h.24v-5.4h.4l.65,5.4h.29l-.68-5.51c.2-.09.34-.41.45-.96ZM75.57,26.78v-4.05h.43c.11,0,.2.05.27.16.07.1.13.25.18.44.04.19.08.4.1.65.02.25.03.51.03.78s0,.55-.03.8c-.02.25-.05.46-.1.64-.04.18-.1.33-.18.44-.07.11-.16.16-.27.16h-.43Z"/>
  <polygon points="78.46 31.09 77.67 21.64 77.3 21.64 77.3 33.26 77.54 33.26 77.54 23.22 77.55 23.22 78.4 33.26 78.52 33.26 79.38 23.22 79.38 23.22 79.38 33.26 79.62 33.26 79.62 21.64 79.26 21.64 78.46 31.09"/>
  <polygon points="80.5 27.76 81.64 27.76 81.64 26.68 80.5 26.68 80.5 22.73 81.72 22.73 81.72 21.64 80.26 21.64 80.26 33.26 81.76 33.26 81.76 32.17 80.5 32.17 80.5 27.76"/>
  <polygon points="83.95 31.48 83.94 31.48 82.54 21.64 82.24 21.64 82.24 33.26 82.48 33.26 82.48 23.32 82.48 23.32 83.89 33.26 84.19 33.26 84.19 21.64 83.95 21.64 83.95 31.48"/>
  <polygon points="84.55 22.73 85.34 22.73 85.34 33.26 85.58 33.26 85.58 22.73 86.37 22.73 86.37 21.64 84.55 21.64 84.55 22.73"/>
  <path d="M89.26,31.58c-.05.22-.11.4-.17.53-.06.13-.12.22-.18.28-.06.06-.12.08-.18.08-.15,0-.29-.14-.41-.41-.12-.27-.22-.64-.3-1.1-.08-.46-.15-.99-.19-1.6-.04-.61-.07-1.24-.07-1.91s.02-1.3.07-1.91c.04-.61.11-1.14.19-1.6.08-.46.18-.83.3-1.1.12-.27.26-.41.41-.41.06,0,.12.04.19.13.06.09.12.2.17.34.05.14.1.31.14.49.04.19.08.37.1.56l.21-.77c-.1-.66-.23-1.13-.38-1.41-.15-.28-.29-.43-.44-.43-.18,0-.34.15-.49.46-.15.31-.28.73-.39,1.27-.11.54-.2,1.18-.26,1.93-.06.74-.09,1.56-.09,2.44s.03,1.7.09,2.44c.06.74.15,1.39.26,1.93.11.54.24.96.39,1.27.15.31.31.46.49.46.1,0,.19-.05.28-.16.09-.11.17-.26.24-.45.08-.19.14-.42.2-.68.06-.26.11-.54.15-.84l-.2-.69c-.04.34-.09.62-.14.85Z"/>
  <path d="M91.95,23.08c-.11-.54-.24-.97-.39-1.27-.15-.31-.31-.46-.49-.46s-.34.15-.49.46c-.15.31-.28.73-.39,1.27-.11.54-.2,1.18-.26,1.93-.06.74-.09,1.56-.09,2.44s.03,1.7.09,2.44c.06.74.15,1.39.26,1.93.11.54.24.96.39,1.27.15.31.31.46.49.46s.34-.15.49-.46c.15-.31.28-.73.39-1.27.11-.54.2-1.18.26-1.93.06-.74.09-1.56.09-2.44s-.03-1.7-.09-2.44c-.06-.74-.15-1.39-.26-1.93ZM91.97,29.36c-.04.61-.11,1.14-.19,1.6-.08.46-.18.83-.3,1.1-.12.27-.26.41-.41.41s-.29-.14-.41-.41c-.12-.27-.22-.64-.3-1.1-.08-.46-.15-.99-.19-1.6-.04-.61-.07-1.24-.07-1.91s.02-1.3.07-1.91c.04-.61.11-1.14.19-1.6.08-.46.18-.83.3-1.1.12-.27.26-.41.41-.41s.29.14.41.41c.12.27.22.64.3,1.1.08.46.15.99.19,1.6.04.61.07,1.24.07,1.91s-.02,1.3-.07,1.91Z"/>
  <polygon points="93.94 31.09 93.14 21.64 92.78 21.64 92.78 33.26 93.02 33.26 93.02 23.22 93.02 23.22 93.88 33.26 94 33.26 94.85 23.22 94.86 23.22 94.86 33.26 95.1 33.26 95.1 21.64 94.73 21.64 93.94 31.09"/>
  <polygon points="96.9 31.09 96.11 21.64 95.74 21.64 95.74 33.26 95.98 33.26 95.98 23.22 95.99 23.22 96.84 33.26 96.96 33.26 97.82 23.22 97.82 23.22 97.82 33.26 98.06 33.26 98.06 21.64 97.7 21.64 96.9 31.09"/>
  <path d="M100.15,28.79c0,.56-.01,1.04-.03,1.44-.02.4-.05.74-.09,1.01-.04.27-.08.49-.12.65-.05.16-.09.28-.14.37-.05.09-.09.15-.13.17-.04.03-.08.04-.11.04-.03,0-.07-.01-.11-.04-.04-.03-.09-.08-.13-.17-.05-.09-.09-.21-.14-.37-.05-.16-.09-.37-.12-.65-.04-.27-.07-.61-.09-1.01-.02-.4-.03-.88-.03-1.44v-7.15h-.24v7.28c0,.48.01.99.03,1.53.02.54.07,1.04.13,1.5.06.46.15.84.26,1.14.11.3.26.45.43.45s.32-.15.43-.45.2-.68.26-1.14c.06-.46.11-.96.13-1.5.02-.54.03-1.05.03-1.53v-7.28h-.24v7.15Z"/>
  <polygon points="102.7 31.48 102.69 31.48 101.28 21.64 100.98 21.64 100.98 33.26 101.22 33.26 101.22 23.32 101.23 23.32 102.64 33.26 102.93 33.26 102.93 21.64 102.7 21.64 102.7 31.48"/>
  <rect x="103.57" y="21.64" width=".24" height="11.61"/>
  <polygon points="104.18 22.73 104.97 22.73 104.97 33.26 105.21 33.26 105.21 22.73 106 22.73 106 21.64 104.18 21.64 104.18 22.73"/>
  <polygon points="107 27.12 106.3 21.64 106 21.64 106.88 28.25 106.88 33.26 107.12 33.26 107.12 28.25 108 21.64 107.7 21.64 107 27.12"/>
  <path d="M19.16,18.53L12.43,3.05h-2.82l-6.69,15.48h3.76l1.29-3.28h6.01l1.33,3.28h3.85ZM9.04,12.37l1.88-4.81,1.9,4.81h-3.78Z"/>
  <polygon points="31.23 6.2 31.23 3.05 20.84 3.05 20.84 18.53 24.25 18.53 24.25 12.5 30.7 12.5 30.7 9.35 24.25 9.35 24.25 6.2 31.23 6.2"/>
  <path d="M44.65,10.54c.57-.77.85-1.69.85-2.79,0-.9-.16-1.66-.47-2.26-.31-.6-.74-1.09-1.27-1.44-.53-.36-1.15-.61-1.86-.77-.71-.15-1.45-.23-2.24-.23h-5.99v15.48h3.41v-6.19h1.68l3.24,6.19h4.09l-3.93-6.54c1.09-.2,1.92-.69,2.49-1.45ZM41.69,8.71c-.18.23-.41.4-.69.51-.28.11-.59.17-.93.2-.34.02-.67.03-.97.03h-2.01v-3.52h2.23c.31,0,.62.02.94.07.32.04.6.13.85.25.25.12.45.3.61.54.16.23.24.55.24.94,0,.42-.09.75-.27.98Z"/>
  <polygon points="57.87 18.53 61.28 18.53 61.28 3.05 57.87 3.05 57.87 8.82 51.25 8.82 51.25 3.05 47.84 3.05 47.84 18.53 51.25 18.53 51.25 11.84 57.87 11.84 57.87 18.53"/>
  <polygon points="75.08 6.2 75.08 3.05 64.56 3.05 64.56 18.53 75.47 18.53 75.47 15.38 67.97 15.38 67.97 12.23 74.68 12.23 74.68 9.09 67.97 9.09 67.97 6.2 75.08 6.2"/>
  <polygon points="89.24 15.38 81.74 15.38 81.74 12.23 88.45 12.23 88.45 9.09 81.74 9.09 81.74 6.2 88.85 6.2 88.85 3.05 78.33 3.05 78.33 18.53 89.24 18.53 89.24 15.38"/>
  <path d="M102.6,18.27c1.01-.44,1.84-1.11,2.49-2.03l-2.84-2.12c-.35.52-.79.93-1.33,1.22-.54.29-1.16.44-1.86.44-.61,0-1.18-.12-1.72-.37-.53-.25-.99-.59-1.39-1.04-.39-.44-.7-.97-.93-1.57-.23-.6-.34-1.27-.34-2s.11-1.38.34-1.99c.23-.61.54-1.14.94-1.58.4-.44.87-.79,1.42-1.04.55-.25,1.14-.37,1.78-.37s1.21.11,1.69.33c.49.22.9.53,1.24.94l2.62-2.14c-.34-.42-.71-.78-1.14-1.07-.42-.29-.86-.52-1.32-.7s-.93-.3-1.4-.38c-.47-.08-.93-.12-1.37-.12-1.21,0-2.32.19-3.34.57-1.02.38-1.9.92-2.65,1.63-.74.71-1.32,1.56-1.74,2.57-.42,1.01-.62,2.13-.62,3.37s.21,2.36.62,3.37c.42,1.01.99,1.86,1.74,2.57.74.71,1.62,1.25,2.65,1.63,1.02.38,2.13.57,3.34.57,1.06,0,2.1-.22,3.1-.66Z"/>
</svg>