<?xml version="1.0" encoding="UTF-8"?>
<svg id="Layer_1" data-name="Layer 1" xmlns="http://www.w3.org/2000/svg" xmlns:xlink="http://www.w3.org/1999/xlink"  className="nav-logo" viewBox="0 0 99.79 19.04">
  <defs>
    <linearGradient id="linear-gradient" x1="12.88" y1="5.22" x2="17.91" y2="5.22" gradientTransform="translate(0 22.08) scale(1 -1)" gradientUnits="userSpaceOnUse">
      <stop offset="0" stop-color="#b7d433"/>
      <stop offset=".14" stop-color="#a4cd35"/>
      <stop offset=".43" stop-color="#74bc3b"/>
      <stop offset=".83" stop-color="#27a043"/>
      <stop offset="1" stop-color="#059447"/>
    </linearGradient>
    <linearGradient id="linear-gradient-2" x1="9.72" y1="5.15" x2="14.05" y2="5.15" gradientTransform="translate(0 22.08) scale(1 -1)" gradientUnits="userSpaceOnUse">
      <stop offset="0" stop-color="#b7d433"/>
      <stop offset=".14" stop-color="#a4cd35"/>
      <stop offset=".43" stop-color="#74bc3b"/>
      <stop offset=".83" stop-color="#27a043"/>
      <stop offset="1" stop-color="#059447"/>
    </linearGradient>
    <linearGradient id="linear-gradient-3" x1="10.48" y1="8.18" x2="12.44" y2="8.18" gradientTransform="translate(0 22.08) scale(1 -1)" gradientUnits="userSpaceOnUse">
      <stop offset="0" stop-color="#e63933"/>
      <stop offset=".49" stop-color="#f15a29"/>
      <stop offset="1" stop-color="#fed20d"/>
    </linearGradient>
    <linearGradient id="linear-gradient-4" x1="15.6" y1="8.89" x2="17.68" y2="8.89" gradientTransform="translate(0 22.08) scale(1 -1)" gradientUnits="userSpaceOnUse">
      <stop offset="0" stop-color="#ffde17"/>
      <stop offset=".49" stop-color="#f7b61b"/>
      <stop offset="1" stop-color="#fbb040"/>
    </linearGradient>
    <linearGradient id="linear-gradient-5" x1="9.63" y1="7.31" x2="11.68" y2="7.31" gradientTransform="translate(0 22.08) scale(1 -1)" gradientUnits="userSpaceOnUse">
      <stop offset="0" stop-color="#e63933"/>
      <stop offset=".49" stop-color="#f15a29"/>
      <stop offset="1" stop-color="#fed20d"/>
    </linearGradient>
    <linearGradient id="linear-gradient-6" x1="10.91" y1="5.43" x2="13.38" y2="5.43" gradientTransform="translate(0 22.08) scale(1 -1)" gradientUnits="userSpaceOnUse">
      <stop offset="0" stop-color="#b7d433"/>
      <stop offset=".14" stop-color="#a4cd35"/>
      <stop offset=".43" stop-color="#74bc3b"/>
      <stop offset=".83" stop-color="#27a043"/>
      <stop offset="1" stop-color="#059447"/>
    </linearGradient>
    <linearGradient id="linear-gradient-7" x1="11.97" y1="10.62" x2="13.65" y2="10.62" gradientTransform="translate(0 22.08) scale(1 -1)" gradientUnits="userSpaceOnUse">
      <stop offset="0" stop-color="#ffde17"/>
      <stop offset=".49" stop-color="#f7b61b"/>
      <stop offset="1" stop-color="#fbb040"/>
    </linearGradient>
    <linearGradient id="linear-gradient-8" x1="9.76" y1="9.82" x2="12.68" y2="9.82" gradientTransform="translate(0 22.08) scale(1 -1)" gradientUnits="userSpaceOnUse">
      <stop offset="0" stop-color="#e63933"/>
      <stop offset=".49" stop-color="#f15a29"/>
      <stop offset="1" stop-color="#fed20d"/>
    </linearGradient>
    <linearGradient id="linear-gradient-9" x1="13.04" y1="10.89" x2="15.36" y2="10.89" gradientTransform="translate(0 22.08) scale(1 -1)" gradientUnits="userSpaceOnUse">
      <stop offset="0" stop-color="#ffde17"/>
      <stop offset=".49" stop-color="#f7b61b"/>
      <stop offset="1" stop-color="#fbb040"/>
    </linearGradient>
    <linearGradient id="linear-gradient-10" x1="13.95" y1="10.56" x2="15.93" y2="10.56" gradientTransform="translate(0 22.08) scale(1 -1)" gradientUnits="userSpaceOnUse">
      <stop offset="0" stop-color="#ffde17"/>
      <stop offset=".49" stop-color="#f7b61b"/>
      <stop offset="1" stop-color="#fbb040"/>
    </linearGradient>
    <linearGradient id="linear-gradient-11" x1="14.32" y1="10.54" x2="15.54" y2="10.54" gradientTransform="translate(0 22.08) scale(1 -1)" gradientUnits="userSpaceOnUse">
      <stop offset="0" stop-color="#ffde17"/>
      <stop offset=".49" stop-color="#f7b61b"/>
      <stop offset="1" stop-color="#fbb040"/>
    </linearGradient>
    <linearGradient id="linear-gradient-12" x1="11.98" y1="6.94" x2="13.64" y2="6.94" gradientTransform="translate(0 22.08) scale(1 -1)" gradientUnits="userSpaceOnUse">
      <stop offset="0" stop-color="#b7d433"/>
      <stop offset=".14" stop-color="#a4cd35"/>
      <stop offset=".43" stop-color="#74bc3b"/>
      <stop offset=".83" stop-color="#27a043"/>
      <stop offset="1" stop-color="#059447"/>
    </linearGradient>
    <linearGradient id="linear-gradient-13" x1="16.54" y1="4.73" x2="18.18" y2="4.73" gradientTransform="translate(0 22.08) scale(1 -1)" gradientUnits="userSpaceOnUse">
      <stop offset="0" stop-color="#b7d433"/>
      <stop offset=".14" stop-color="#a4cd35"/>
      <stop offset=".43" stop-color="#74bc3b"/>
      <stop offset=".83" stop-color="#27a043"/>
      <stop offset="1" stop-color="#059447"/>
    </linearGradient>
    <linearGradient id="linear-gradient-14" x1="12.36" y1="3.83" x2="13.63" y2="3.83" gradientTransform="translate(0 22.08) scale(1 -1)" gradientUnits="userSpaceOnUse">
      <stop offset="0" stop-color="#b7d433"/>
      <stop offset=".14" stop-color="#a4cd35"/>
      <stop offset=".43" stop-color="#74bc3b"/>
      <stop offset=".83" stop-color="#27a043"/>
      <stop offset="1" stop-color="#059447"/>
    </linearGradient>
    <linearGradient id="linear-gradient-15" x1="12.33" y1="6.91" x2="13.28" y2="6.91" gradientTransform="translate(0 22.08) scale(1 -1)" gradientUnits="userSpaceOnUse">
      <stop offset="0" stop-color="#b7d433"/>
      <stop offset=".14" stop-color="#a4cd35"/>
      <stop offset=".43" stop-color="#74bc3b"/>
      <stop offset=".83" stop-color="#27a043"/>
      <stop offset="1" stop-color="#059447"/>
    </linearGradient>
    <linearGradient id="linear-gradient-16" x1="15.43" y1="5.17" x2="17.55" y2="5.17" gradientTransform="translate(0 22.08) scale(1 -1)" gradientUnits="userSpaceOnUse">
      <stop offset="0" stop-color="#b7d433"/>
      <stop offset=".14" stop-color="#a4cd35"/>
      <stop offset=".43" stop-color="#74bc3b"/>
      <stop offset=".83" stop-color="#27a043"/>
      <stop offset="1" stop-color="#059447"/>
    </linearGradient>
    <linearGradient id="linear-gradient-17" x1="15.44" y1="5.55" x2="17.08" y2="5.55" gradientTransform="translate(0 22.08) scale(1 -1)" gradientUnits="userSpaceOnUse">
      <stop offset="0" stop-color="#b7d433"/>
      <stop offset=".14" stop-color="#a4cd35"/>
      <stop offset=".43" stop-color="#74bc3b"/>
      <stop offset=".83" stop-color="#27a043"/>
      <stop offset="1" stop-color="#059447"/>
    </linearGradient>
    <linearGradient id="linear-gradient-18" x1="15.08" y1="6.02" x2="16.6" y2="6.02" gradientTransform="translate(0 22.08) scale(1 -1)" gradientUnits="userSpaceOnUse">
      <stop offset="0" stop-color="#b7d433"/>
      <stop offset=".14" stop-color="#a4cd35"/>
      <stop offset=".43" stop-color="#74bc3b"/>
      <stop offset=".83" stop-color="#27a043"/>
      <stop offset="1" stop-color="#059447"/>
    </linearGradient>
    <linearGradient id="linear-gradient-19" x1="13.95" y1="3.88" x2="14.48" y2="3.88" gradientTransform="translate(0 22.08) scale(1 -1)" gradientUnits="userSpaceOnUse">
      <stop offset="0" stop-color="#b7d433"/>
      <stop offset=".14" stop-color="#a4cd35"/>
      <stop offset=".43" stop-color="#74bc3b"/>
      <stop offset=".83" stop-color="#27a043"/>
      <stop offset="1" stop-color="#059447"/>
    </linearGradient>
    <linearGradient id="linear-gradient-20" x1="12.7" y1="6.91" x2="12.87" y2="6.91" gradientTransform="translate(0 22.08) scale(1 -1)" gradientUnits="userSpaceOnUse">
      <stop offset="0" stop-color="#b7d433"/>
      <stop offset=".14" stop-color="#a4cd35"/>
      <stop offset=".43" stop-color="#74bc3b"/>
      <stop offset=".83" stop-color="#27a043"/>
      <stop offset="1" stop-color="#059447"/>
    </linearGradient>
    <linearGradient id="linear-gradient-21" x1="16.44" y1="4.04" x2="16.49" y2="4.04" gradientTransform="translate(0 22.08) scale(1 -1)" gradientUnits="userSpaceOnUse">
      <stop offset="0" stop-color="#b7d433"/>
      <stop offset=".14" stop-color="#a4cd35"/>
      <stop offset=".43" stop-color="#74bc3b"/>
      <stop offset=".83" stop-color="#27a043"/>
      <stop offset="1" stop-color="#059447"/>
    </linearGradient>
    <linearGradient id="linear-gradient-22" x1="15.36" y1="11.32" x2="15.39" y2="11.32" gradientTransform="translate(0 22.08) scale(1 -1)" gradientUnits="userSpaceOnUse">
      <stop offset="0" stop-color="#ffde17"/>
      <stop offset=".49" stop-color="#f7b61b"/>
      <stop offset="1" stop-color="#fbb040"/>
    </linearGradient>
    <linearGradient id="linear-gradient-23" x1="16.39" y1="4.03" x2="16.42" y2="4.03" gradientTransform="translate(0 22.08) scale(1 -1)" gradientUnits="userSpaceOnUse">
      <stop offset="0" stop-color="#b7d433"/>
      <stop offset=".14" stop-color="#a4cd35"/>
      <stop offset=".43" stop-color="#74bc3b"/>
      <stop offset=".83" stop-color="#27a043"/>
      <stop offset="1" stop-color="#059447"/>
    </linearGradient>
    <linearGradient id="linear-gradient-24" x1="13.01" y1="11.58" x2="13.04" y2="11.58" gradientTransform="translate(0 22.08) scale(1 -1)" gradientUnits="userSpaceOnUse">
      <stop offset="0" stop-color="#ffde17"/>
      <stop offset=".49" stop-color="#f7b61b"/>
      <stop offset="1" stop-color="#fbb040"/>
    </linearGradient>
    <linearGradient id="linear-gradient-25" x1="16.5" y1="4.05" x2="16.53" y2="4.05" gradientTransform="translate(0 22.08) scale(1 -1)" gradientUnits="userSpaceOnUse">
      <stop offset="0" stop-color="#b7d433"/>
      <stop offset=".14" stop-color="#a4cd35"/>
      <stop offset=".43" stop-color="#74bc3b"/>
      <stop offset=".83" stop-color="#27a043"/>
      <stop offset="1" stop-color="#059447"/>
    </linearGradient>
    <linearGradient id="linear-gradient-26" x1="17.78" y1="5.4" x2="17.81" y2="5.4" gradientTransform="translate(0 22.08) scale(1 -1)" gradientUnits="userSpaceOnUse">
      <stop offset="0" stop-color="#b7d433"/>
      <stop offset=".14" stop-color="#a4cd35"/>
      <stop offset=".43" stop-color="#74bc3b"/>
      <stop offset=".83" stop-color="#27a043"/>
      <stop offset="1" stop-color="#059447"/>
    </linearGradient>
    <linearGradient id="linear-gradient-27" x1="14.48" y1="3.89" x2="14.49" y2="3.89" gradientTransform="translate(0 22.08) scale(1 -1)" gradientUnits="userSpaceOnUse">
      <stop offset="0" stop-color="#b7d433"/>
      <stop offset=".14" stop-color="#a4cd35"/>
      <stop offset=".43" stop-color="#74bc3b"/>
      <stop offset=".83" stop-color="#27a043"/>
      <stop offset="1" stop-color="#059447"/>
    </linearGradient>
  </defs>
  <path d="M17.25,5.03c-.15.06-.28.1-.4.15.33.04.34.04.4-.15Z" fill="none"/>
  <path d="M10.68,2.86c-.09-.03-.19-.04-.29-.06,0,.02-.01.03-.01.05.08.04.16.09.25.13.03.01.07-.02.11-.03-.02-.03-.03-.08-.06-.09Z" fill="none"/>
  <path d="M15.08,2.73c.12.26.21.28.51.2,0-.09.01-.18.01-.28h.04c.01.08.02.16.02.25.26-.03.3-.2.29-.39-.01-.07-.07-.16-.13-.2-.04-.03-.13.02-.19.03v-.02c-.11.02-.21.05-.32.07,0,0,0-.01-.01-.01.11-.05.22-.11.39-.19-.14-.11-.25-.2-.37-.27-.05-.03-.16-.05-.2-.02-.09.07-.27.09-.23.26.06.19.11.39.19.57Z" fill="none"/>
  <path d="M14.19,2.92c0,.07-.04.14-.05.2-.02.17-.05.34-.05.51,0,.07.06.14.09.21.08-.04.16-.08.24-.13.03-.02.04-.06.06-.1.07-.18.16-.34.33-.46.06-.04.11-.15.1-.21-.07-.25-.16-.49-.25-.75-.27.19-.5.38-.47.73Z" fill="none"/>
  <path d="M13.59,1.85s.12-.09.14-.14c.05-.17.14-.31.28-.43l-.24.48s.02.03.03.04c.11-.03.22-.07.33-.1-.06.06-.13.09-.21.12s-.16.06-.22.11c-.03.02-.03.09-.02.14,0,.02.07.03.11.03h.25v.05h-.25s-.01.04-.02.06c.09.04.17.1.26.1.11,0,.37-.32.36-.44-.02-.26-.05-.52-.08-.8-.09.06-.16.1-.22.14.05-.06.09-.12.14-.18-.04-.12-.11-.11-.2-.05-.12.08-.24.17-.37.24-.18.1-.2.26-.18.43,0,.08.07.14.11.2Z" fill="none"/>
  <path d="M12.53,3.43c.14.14.32.26.52.41-.01-.09-.01-.15-.02-.21-.05-.26-.09-.51-.15-.77-.01-.04-.04-.09-.07-.12-.15-.12-.31-.23-.46-.34.03.11-.04.27.08.36v.33s.1.04.1.04c.04-.06.07-.13.09-.17.04-.04.07-.06.1-.08.01,0,.02.01.03.01-.06.09-.13.18-.17.28-.03.09-.09.23-.05.26Z" fill="none"/>
  <path d="M12.08,3.77s-.13.08-.13.13c-.03.16-.03.32-.05.48.08,0,.16,0,.23.01.01,0,.03.02.04.03-.05.02-.1.03-.14.04-.13.05-.16.19-.05.27.16.13.34.24.49.38.2.18.42.1.64.12-.07-.7-.33-1.23-1.03-1.46Z" fill="none"/>
  <path d="M15.71,3.44s.1-.06.14-.09c-.08.15-.16.29-.24.43.02.01.05.03.07.04.2-.11.26-.32.33-.53.01.1.01.2.02.31-.14.03-.35.34-.31.47.56,0,.52-.49.68-.83-.01.1-.02.19-.03.29.13-.15.51-.16.28-.5-.08,0-.21.04-.27-.01-.15-.12-.26-.02-.38.04-.06.03-.13.06-.2.08-.12.06-.13.16-.09.3Z" fill="none"/>
  <path d="M15.62,3.27c-.43-.04-.65.18-.76.57-.06.21-.21.36-.42.46-.06.03-.12.09-.16.15-.23.28-.21.61-.14.94.03-.01.06-.01.08-.02.26-.14.51-.22.8-.06.04.02.23-.09.22-.12-.05-.25.09-.54-.16-.76-.06-.05-.08-.14-.12-.21.02,0,.04.01.06.01.03-.06.07-.12.1-.19-.09.25.02.42.21.55.04-.1.07-.2.13-.29.18-.29.14-.51-.13-.72-.01-.01-.01-.04-.01-.06.09.05.17.09.29.15.01-.17.01-.29.01-.4Z" fill="none"/>
  <path d="M15.63,1.89s.08.04.14.08c.01-.13.02-.21.03-.35-.16.06-.29.11-.42.17,0,.03.01.06.01.08.07.01.14.02.24.02Z" fill="none"/>
  <path d="M11.66,4.64s.06-.06.06-.09c.01-.28.05-.57-.23-.77-.15.08-.29.16-.44.24.01.02.02.04.02.06.07-.01.15-.02.22-.02.01.01.01.02.02.03-.14.05-.29.11-.44.16.02.08.03.11.05.15.1.24.51.38.74.24Z" fill="none"/>
  <path d="M10.89,4.14c.16-.16.3-.34.47-.54-.25.03-.45.06-.69.09.02.1.04.25.08.39,0,.04.12.08.14.06Z" fill="none"/>
  <path d="M10.64,4.09c-.05.08-.1.12-.1.15.02.15.03.31.09.45.01.04.16.03.24.04,0-.06.02-.12,0-.17-.06-.14-.14-.29-.23-.47Z" fill="none"/>
  <path d="M11.81.7c.17.3.33.56.47.81.09-.22-.03-.48-.47-.81Z" fill="none"/>
  <path d="M11.97,2.24l.18-.18s0-.02.01-.07c-.14-.15-.28-.32-.43-.48,0,0-.01,0-.01-.01h0s-.05.03-.07.05c.05.16.09.32.15.47.03.09.11.15.17.22Z" fill="none"/>
  <path d="M11.39,3.4c.03.07.06.15.1.26.07-.09.11-.13.14-.18.01.01.02.01.02.02-.03.06-.07.13-.1.2.08.07.15.13.21.19.11-.08.21-.16.32-.24-.29-.48-.83-.52-1.25-.78-.12.28.02.46.32.46v-.09c.1.05.09.25.24.16Z" fill="none"/>
  <path d="M12.23,2.16l-.21.24c-.14.16-.15.5-.02.62.13.11.28.21.42.32.01,0,.03-.01.04-.01-.08-.21-.16-.42-.24-.62,0,0,.02.01.03.02.02.01.03.02.06.04-.01-.22-.02-.42-.03-.62-.01,0-.03.01-.05.01Z" fill="none"/>
  <path d="M13.58,3.97c.02-.07.03-.14.05-.21.05-.28.09-.56.16-.83.04-.18.11-.35-.13-.44-.05-.02-.07-.09-.11-.13-.03-.03-.09-.05-.13-.04-.09.01-.17.04-.25.06-.09.58.14,1.08.41,1.59Z" fill="none"/>
  <path d="M11.03,2.51c.06-.05.13-.09.16-.15.03-.05.01-.13.01-.16.16.05.15-.17.27-.18-.07.12-.14.24-.23.4.15-.07.25-.12.35-.17,0,.01.01.02.01.03-.18.11-.37.22-.6.36.21.1.36.18.51.25.11.05.18,0,.21-.11.14-.41-.09-.75-.23-1.11-.01-.02-.04-.03-.06-.04-.08.1-.16.2-.24.3.01.01.03.03.04.04.06-.05.11-.09.17-.14-.01.06-.04.12-.08.15-.11.08-.24.15-.34.25-.04.04-.03.15-.03.23,0,0,.07.05.08.05Z" fill="none"/>
  <path d="M11.89,1.64c.02-.06.04-.1.04-.1.06.1.12.22.18.34.03-.01.06-.02.08-.03-.02-.16-.01-.34-.06-.49-.04-.11-.1-.26-.27-.24-.06.01-.12.04-.16.06.01.1.01.2.02.34,0,0,0,.01.01.01.03.01.09.06.16.11Z" fill="none"/>
  <path d="M12.73.53h0c-.07-.07-.13-.14-.2-.21-.01.01-.03.02-.04.03.08.17.16.33.24.5.02-.01.04-.01.06-.02-.02-.1-.04-.2-.06-.3Z" fill="none"/>
  <path d="M12.96,2.54c-.06-.25-.12-.47-.18-.71-.18.05-.31.08-.48.13.21.25.26.55.66.58Z" fill="none"/>
  <path d="M13.02,1.11c-.05.18-.11.36-.16.53.02.01.04.01.06.02.05-.03.1-.06.18-.11-.06.07-.09.11-.14.18.09-.02.15-.03.21-.04t.01.02c-.08.03-.16.06-.23.09.07.14.12.26.18.37.02.04.07.09.11.1s.12-.04.12-.06c0-.05-.03-.1-.06-.15-.01-.02-.02-.03-.04-.05.04,0,.06.01.13.01-.18-.18-.13-.36-.07-.53.09-.3.1-.3-.14-.47.02-.23-.2-.2-.34-.31.02.2.03.36.04.51.06-.03.1-.07.14-.11Z" fill="none"/>
  <path d="M6.63,7.64c.06-.08.07-.17.04-.27-.03-.07-.03-.15-.06-.23-.01-.05,0-.07.04-.09.2-.12.41-.25.61-.38.03-.02.05-.05.06-.09.02-.1.03-.2.05-.3.03-.13.02-.24-.04-.36-.06-.14-.11-.29-.17-.43-.02-.04-.01-.07.02-.11.15-.19.31-.38.46-.58.11-.15.25-.27.42-.35.05-.02.09-.07.13-.11.12-.17.24-.34.36-.5.11-.13.18-.27.16-.45-.01-.07.01-.14.01-.22-.24.08-.47.15-.69.23-.04.01-.07.01-.1-.03-.21-.24-.43-.47-.64-.71-.1-.11-.21-.22-.28-.35-.11-.22-.23-.44-.36-.64-.11-.17-.17-.34-.12-.54.02-.09.02-.19.02-.29h-.05c-.24.01-.47.02-.71.02-.04,0-.07,0-.11-.02-.19-.06-.37-.12-.55-.18-.04-.01-.06-.01-.08.03-.06.1-.13.19-.19.29-.36-.15-.71-.3-1.08-.46.07-.05.13-.1.19-.15-.04-.08-.07-.16-.11-.24-.02-.04-.04-.05-.08-.04-.35.05-.71.1-1.06.15-.13.02-.27.06-.39-.02-.14-.09-.24-.04-.37.04-.19.13-.34.29-.41.51-.01.03-.05.07-.08.09-.1.06-.21.11-.32.17-.03.01-.05.03-.07.06-.18.22-.35.44-.53.66-.02.03-.04.06-.04.09-.07.26-.13.53-.19.79-.01.03,0,.08.01.11.1.21.21.42.3.63.05.11.12.21.22.29.13.1.24.21.36.32.06.05.11.06.18.05.47-.07.93-.13,1.4-.19.14-.02.14-.01.18.11s.04.12.16.11c.13,0,.27-.03.39.08.03.03.04.04.03.08-.04.16-.08.31-.12.47-.01.03,0,.07.02.1.12.16.25.31.38.47.02.03.04.06.05.1.05.2.09.4.14.6.01.06,0,.1-.03.15-.05.07-.1.14-.13.22-.04.11-.06.22-.08.34-.01.03,0,.07.02.1.12.19.24.38.35.57.02.03.03.06.02.1,0,.14-.02.27-.02.41,0,.03.01.07.03.1.11.16.23.32.34.48.02.03.04.08.03.12-.02.1-.01.18.08.23.01,0,.02.02.03.03.03.04.07.05.12.05.22-.02.44-.04.66-.07.04,0,.08-.02.11-.05.21-.19.42-.37.63-.56.03-.02.06-.06.06-.1.01-.19.11-.29.29-.34.03-.02.07-.07.1-.1Z"/>
  <path d="M7.59,7.53c-.01.11,0,.19.08.27.05.05.08.06.15.04.09-.02.14-.07.17-.15.13-.29.27-.57.42-.86.06-.11.08-.23.1-.35.01-.08,0-.14-.08-.18-.01.02-.03.03-.04.05-.13.19-.3.32-.53.37-.02,0-.04.02-.05.04-.05.09-.1.17-.06.28.01.03.02.06.02.1,0,.03-.01.06-.02.08-.12.08-.15.19-.16.31Z"/>
  <path d="M13.83.15s.02-.07.03-.11c-.02.04-.03.08-.03.11Z" fill="#137a52"/>
  <path d="M11.96,5.17c.15.19.38.34.61.45.32.15.48.36.47.71,0,.12.01.23,0,.35-.04.34-.08.68-.12,1.01-.05.45.04.95-.43,1.28h2.13c-.3-.18-.3-.44-.33-.69-.02-.18-.02-.36-.04-.54-.07-.53-.12-1.06-.02-1.6.05-.28.34-.51.62-.48.08.01.17.02.25-.01.17-.06.34-.14.51-.21.29-.13.58-.3.89-.04.04.03.1.03.15.05.18.06.36.13.54.19.01,0,.02-.01.04-.01-.05-.03-.09-.06-.15-.1.22-.04.4-.07.57-.1-.36-.04-.74.11-1.13-.15.48.04.92.1,1.34-.17-.08-.01-.14-.01-.19-.02.01-.05.03-.12.04-.19-.02,0-.03-.01-.05-.01-.06.29-.15.36-.38.3.04-.11.08-.22.13-.36-.08.07-.12.15-.18.16-.3.06-.6.1-.9.14-.05.01-.11-.04-.17-.05.03-.06.05-.13.1-.18.19-.2.45-.13.68-.19.25-.07.53-.06.8-.08v-.04h-.78c.06-.05.1-.07.14-.1-.1.01-.17.07-.25.11s-.16.06-.24.09c.16-.3.4-.44.71-.5-.15-.11-.27.09-.41.09.01-.05.01-.09.01-.11-.11.09-.21.18-.32.26-.28.22-.55.44-.84.65-.05.03-.14.01-.21.01,0-.09-.03-.22.01-.25.2-.16.32-.46.65-.39.02.01.07,0,.07-.01.06-.19.25-.21.39-.3-.09.03-.18.05-.28.08.01-.07.01-.12.02-.22q-.13.31-.43.37c-.06.01-.11.06-.16.09-.06.05-.12.1-.18.15.05-.21.09-.42.37-.41.14.01.23-.09.28-.23.02-.07.09-.16.14-.17.17,0,.33.03.5.05.08.01.15.04.23.06,0-.02.01-.04.01-.06-.19-.03-.39-.06-.58-.11-.02,0-.05-.08-.04-.11.05-.16.19-.21.36-.14.11.04.22.14.32.01-.1-.02-.21-.04-.32-.07,0-.01.01-.03.01-.04h.44s0-.04.01-.06c-.1,0-.2-.01-.31-.01-.18.01-.24-.09-.26-.27.1.02.19.04.28.06-.18-.17-.41-.11-.62-.17.08-.08.18-.2.26-.18.18.04.35.13.57.22-.08-.08-.15-.14-.23-.22.09-.03.17-.06.25-.08-.15-.07-.34.18-.51-.08.09-.02.15-.03.22-.04.09-.01.17-.01.21-.02.02-.07.03-.12.04-.16-.04.02-.08.06-.13.07-.03.01-.08-.01-.11-.01.03-.04.04-.09.08-.11.08-.03.16-.04.24-.05.02,0,.04-.01.06-.01-.04-.03-.08-.05-.11-.08-.05.02-.11.06-.2.1.03-.17.06-.29.09-.43-.08.06-.13.1-.19.14.11.19-.03.44-.33.57,0-.04-.01-.07-.01-.11-.03.21-.2.26-.36.31-.03.01-.12-.06-.12-.1,0-.09.04-.17.05-.26.01-.26.2-.39.45-.3.05.02.11.04.17.06,0-.01.01-.02.01-.02-.1-.05-.2-.1-.33-.16.17-.04.31-.08.45-.11,0-.01,0-.02-.01-.03-.09.02-.18.03-.27.05,0-.01-.01-.03-.01-.04.05-.04.11-.09.16-.13-.01-.01-.02-.02-.03-.04-.09.05-.18.11-.27.16-.06.05-.11.17-.2.2-.16.06-.25.15-.23.34-.08-.21-.42-.07-.43-.38h.52s-.09-.04-.14-.03c-.12.01-.18-.05-.17-.15.01-.05.1-.1.17-.13.07-.04.16-.05.27-.08-.09-.02-.14-.05-.19-.05s-.1.03-.16.05c.01-.06.01-.12.01-.18,0-.03-.01-.05-.04-.14-.03.14-.04.22-.06.32-.05-.01-.1-.02-.15-.03.02-.21.02-.2.16-.32.11-.1.21-.22.31-.33-.01-.01-.03-.02-.04-.03l-.15.15c-.05.1-.1.19-.27.19.03-.2.06-.39.09-.57h-.03c-.05.22-.1.44-.15.64-.08.01-.15.03-.22.04,0,.02.01.03.01.05.06.01.13.02.2.03-.06.16-.57.42-.78.41,0-.02,0-.05.01-.07.13-.19.26-.37.4-.56.08-.11.18-.22.26-.33.04-.05.04-.13.05-.2h-.04c-.04.09-.08.18-.14.3-.05-.19-.09-.33-.13-.47-.03.07-.02.13,0,.19.02.07.03.15.05.22.04.15-.04.23-.17.23-.17,0-.08-.14-.1-.22-.02-.09-.04-.18-.06-.27-.03.04-.06.09-.08.12.04.18.07.34.1.5,0,.03-.04.09-.08.1-.14.03-.16.13-.19.25-.02.09-.06.17-.1.28-.13-.19-.12-.35.04-.5-.04.03-.09.05-.13.08-.07-.13-.04-.2.09-.25.15-.06.29-.13.17-.34-.02-.03.04-.11.07-.17.01-.03.03-.07.06-.14-.06.04-.09.06-.12.09-.04-.1-.07-.2-.1-.29-.01,0-.01.01-.02.01.02.22.04.43.06.68-.08.03-.16.07-.29.13.02-.12.02-.19.03-.22-.07-.02-.14-.03-.24-.05.07-.05.09-.07.13-.09q-.23-.07-.07-.4c-.09.08-.14.13-.19.18-.08-.16-.27-.27-.25-.46-.01.03-.02.07-.03.1-.03-.04-.06-.08-.08-.11-.01.05-.02.1-.02.1.1.13.26.24.26.34-.01.18-.07.38-.24.51-.01-.07-.02-.11-.02-.13-.05.07-.11.16-.18.27-.07-.12-.1-.22-.16-.27-.22-.16-.13-.3,0-.45.05-.06.1-.16.1-.24,0-.07-.07-.15-.1-.21,0,.04-.02.11-.01.17.02.16-.11.42-.24.49-.02.01-.06,0-.09,0,.01-.03.01-.06.02-.08,0-.01-.01-.02-.01-.02-.05.01-.09.03-.12.04v-.69h-.05l-.03.48s-.05.05-.08.07c-.03-.05.06-.14-.07-.17-.11-.03-.2-.13-.31-.2.03.08.06.14.09.24-.07-.04-.11-.06-.15-.08.03.05.04.1.07.13.27.27.42.58.38.97-.01.05-.05.09-.08.13-.04-.04-.1-.07-.12-.12-.04-.09-.06-.2-.09-.29-.04.26.26.56-.16.77.02-.09.03-.16.04-.23.01-.13.05-.27.02-.39-.07-.21-.18-.4.03-.58,0,0-.01-.02-.03-.08-.07.1-.12.18-.19.27-.05-.08-.08-.13-.11-.19-.01.04-.02.06-.03.09-.09-.01-.12-.27-.26-.03-.04-.12-.08-.22-.11-.32-.01.22.1.37.24.5-.05.17-.19.18-.29.15-.07-.02-.1-.15-.15-.24-.03-.05-.05-.1-.07-.15.01.1.01.17-.15.14.08.05.15.06.17.1.05.1.05.23.19.27.02.01.05.1.03.13-.03.08-.08.15-.14.26-.02-.09-.04-.15-.05-.19-.03.03-.07.06-.13.12-.01-.12-.02-.19-.02-.28-.03.06-.05.1-.06.14-.02,0-.04,0-.05.01-.03-.14-.07-.28-.1-.42-.01,0-.02,0-.03.01v.27c-.1-.07-.16-.11-.22-.16l-.02.02c.18.17.36.34.55.52-.03.04-.07.09-.12.14-.06-.08-.1-.14-.13-.19.01.11.02.22.03.34h-.05c-.02-.07-.03-.14-.05-.23-.07.17.1.37-.14.47-.14-.1-.21-.23-.13-.38.06-.13.04-.24.03-.36,0-.01-.01-.01-.02-.02-.01.04-.02.07-.02.11h-.05c-.01-.12-.02-.23-.03-.32-.03.04-.06.11-.12.22.01.08.3.16.1.39-.09-.11-.17-.21-.25-.31,0,.05.01.1.01.15-.08.01-.16.02-.27.03.04.03.07.06.08.05.31-.09.39.13.48.35.08.23.16.45.25.69-.23.03-.14-.19-.25-.27.01.08.02.15.02.22-.06-.04-.12-.07-.16-.11-.03-.04-.05-.11-.04-.16.03-.1.07-.26.07-.4-.05.12-.09.22-.13.33h-.04c-.03-.13-.05-.26-.08-.41-.07.23.03.42.1.66-.12-.04-.2-.07-.27-.1l-.03.06c.15.05.3.09.5.15-.3.05-.88.42-.89.53.18-.11.38-.22.59-.34.09.06.25.1.33.21.14.19.31.31.54.35.01,0,.01.02.02.03-.16.2-.34.12-.52.06-.01-.12-.01-.23-.02-.34h-.03s-.02.09-.03.14c-.07-.09-.12-.16-.18-.24-.01.01-.02.01-.03.02.03.04.05.09.08.13-.04.01-.06.02-.05.01.06.09.12.19.17.3,0,0-.12.09-.13.08-.08-.09-.16-.19-.22-.27-.01,0-.05.04-.09.08.05.06.1.12.16.19h-.36s.07.06.11.07c.15.05.3.08.43.15.11.05.16.15.04.26-.04.04-.07.1-.1.14l-.15-.3s-.03.02-.05.02c.09.2.18.39.26.59-.02.02-.04.03-.06.05-.13-.11-.26-.21-.38-.31-.01.01-.04.04-.05.06.1.11.21.23.32.35.05.01.13.03.21.05v.07c-.25.05-.5.11-.81.17h.3c-.02.06-.03.1-.05.17.22-.24.42-.3.76-.24.04.23,0,.27-.22.24-.07-.01-.15,0-.22,0,0,.01,0,.02.01.03.09.01.17.01.26.02v.05c-.07.03-.14.05-.21.08s-.14.05-.21.07c.31-.09.73-.05.72-.54.09-.01.16-.03.24-.04.24-.1.51-.03.74.25ZM17.25,5.03c-.06.2-.07.2-.4.15.12-.05.25-.1.4-.15ZM10.63,2.99c-.09-.04-.17-.09-.25-.13,0-.02.01-.03.01-.05.1.02.19.03.29.06.02.01.04.06.05.09-.03,0-.07.04-.1.03ZM12.48,5.12c-.15-.14-.33-.25-.49-.38-.11-.09-.08-.22.05-.27.04-.02.09-.03.14-.04-.02-.01-.03-.03-.04-.03-.08,0-.16-.01-.23-.01.01-.16.02-.33.05-.48.01-.05.09-.09.13-.13.7.23.96.76,1.04,1.47-.24-.03-.46.05-.65-.13ZM12.73,2.87s-.06.05-.1.08c-.02.04-.05.11-.09.17-.01.01-.1-.02-.1-.04-.01-.11,0-.23,0-.33-.12-.09-.04-.25-.08-.36.15.11.31.22.46.34.03.03.06.08.07.12.05.25.1.51.15.77.01.06.01.12.02.21-.2-.15-.37-.26-.52-.41-.03-.03.03-.18.06-.26.05-.1.11-.19.17-.28-.02,0-.03,0-.04,0ZM15.33,3.58c.27.21.31.43.13.72-.06.09-.09.19-.13.29-.19-.13-.31-.29-.21-.55-.03.06-.07.12-.1.19-.02,0-.04-.01-.06-.01.04.07.06.16.12.21.24.21.11.5.16.76.01.03-.18.15-.22.12-.29-.16-.54-.08-.8.06-.02.01-.05.01-.08.02-.06-.33-.09-.66.14-.94.05-.06.1-.12.16-.15.2-.1.36-.25.42-.46.11-.38.33-.61.76-.57v.4c-.12-.06-.2-.11-.29-.15,0,.02-.01.05,0,.06ZM16.02,3.08c.12-.05.23-.15.38-.04.06.05.19.01.27.01.22.34-.15.35-.28.5.01-.1.02-.19.03-.29-.16.34-.13.82-.68.83-.05-.14.16-.44.31-.47-.01-.11-.01-.21-.02-.31-.07.21-.13.42-.33.53-.02-.01-.05-.03-.07-.04.08-.14.15-.28.24-.43-.04.03-.08.05-.14.09-.04-.14-.03-.24.12-.29.04-.03.11-.06.17-.09ZM15.81,1.63c-.01.14-.02.22-.03.35-.07-.04-.12-.07-.14-.08-.1-.01-.17-.01-.24-.02,0-.03-.01-.06-.01-.08.13-.06.26-.11.42-.17ZM15.13,1.88s.15-.01.2.02c.12.07.23.17.37.27-.17.08-.28.14-.39.19,0,0,0,.01.01.01.11-.02.21-.05.32-.07v.02c.07-.01.15-.06.19-.03.06.04.12.13.13.2.01.19-.03.36-.29.39-.01-.09-.02-.17-.02-.25h-.04c0,.09-.01.19-.01.28-.3.09-.39.07-.51-.2-.08-.18-.14-.39-.18-.59-.05-.14.13-.17.22-.24ZM14.65,2.21c.09.26.18.5.25.75.02.06-.04.17-.1.21-.17.11-.26.28-.33.46-.01.04-.03.08-.06.1-.07.05-.16.09-.24.13-.03-.07-.09-.14-.09-.21,0-.17.03-.34.05-.51.01-.07.05-.14.05-.2-.02-.37.21-.56.47-.73ZM13.65,1.24c.13-.07.25-.16.37-.24.09-.06.16-.08.2.05-.05.06-.09.12-.14.18.06-.04.13-.08.22-.14.03.28.06.54.08.8.01.12-.26.44-.36.44-.09,0-.17-.07-.26-.1.01-.02.01-.04.02-.06h.25v-.05h-.25s-.11-.01-.11-.03c-.01-.04,0-.12.02-.14.06-.05.14-.08.22-.11.07-.03.14-.06.21-.12-.11.03-.22.07-.33.1-.01-.01-.02-.03-.03-.04l.24-.48c-.14.11-.23.25-.28.43-.02.06-.09.1-.14.14-.04-.06-.12-.11-.12-.18,0-.19.01-.35.19-.45ZM13.54,2.36s.06.11.11.13c.24.09.17.26.13.44-.07.27-.11.55-.16.83-.01.07-.03.14-.05.21-.27-.51-.5-1.01-.41-1.59.08-.02.16-.05.25-.06.05,0,.1.01.13.04ZM13.18,1.03q.24.17.14.47c-.05.17-.11.35.07.53-.07-.01-.1-.01-.13-.01.02.02.03.03.04.05.02.05.06.1.06.15,0,.02-.08.07-.12.06s-.09-.06-.11-.1c-.06-.12-.12-.24-.18-.37.08-.03.15-.06.23-.09t-.01-.02c-.06.01-.12.02-.21.04.05-.07.09-.11.14-.18-.08.05-.13.08-.18.11-.02-.01-.04-.01-.06-.02.05-.18.11-.36.16-.53-.04.04-.09.07-.14.12-.01-.15-.03-.31-.04-.51.15.1.36.07.34.3ZM12.73.85c-.08-.17-.16-.33-.24-.5.01-.01.03-.02.04-.03.07.07.13.14.2.21h0c.02.1.04.2.05.3-.01.01-.03.01-.05.02ZM12.78,1.83c.06.24.12.46.18.71-.4-.03-.45-.34-.66-.58.17-.05.31-.08.48-.13ZM12.32,2.77s-.05-.03-.06-.04c-.02-.01-.03-.02-.03-.02.08.2.16.41.24.62-.01,0-.03.01-.04.01-.14-.11-.28-.21-.42-.32-.14-.12-.12-.46.02-.62l.21-.24s.04,0,.06-.01c0,.2.01.4.02.62ZM11.81.7c.44.34.57.59.47.81-.15-.25-.3-.51-.47-.81ZM11.72,1.51h0c-.01-.14-.01-.24-.02-.34.04-.01.1-.05.16-.06.17-.02.24.13.27.24.05.15.04.32.06.49-.03.01-.06.02-.08.03-.06-.12-.13-.23-.18-.34,0,0-.01.04-.04.1-.07-.04-.13-.09-.17-.12.16.17.3.34.44.49-.01.04,0,.06-.01.07l-.18.18c-.06-.07-.14-.13-.18-.21-.06-.15-.1-.31-.15-.47.03-.03.05-.05.08-.06ZM10.99,2.21c.1-.1.23-.16.34-.25.04-.03.07-.08.08-.15-.06.05-.11.09-.17.14-.01-.01-.03-.03-.04-.04.08-.1.16-.19.24-.3.02.01.05.02.06.04.14.36.36.7.23,1.11-.04.12-.1.16-.21.11-.16-.07-.31-.15-.51-.25.24-.14.42-.25.6-.36,0-.01-.01-.02-.01-.03-.1.05-.2.1-.35.17.09-.16.16-.27.23-.4-.12.01-.11.23-.27.18,0,.03.02.1-.01.16-.03.06-.1.11-.16.15,0,0-.07-.04-.07-.07-.02-.06-.03-.16.02-.21ZM11.16,3.24v.09c-.3.01-.44-.18-.32-.46.41.26.95.29,1.25.78-.11.09-.21.16-.32.24-.07-.06-.14-.12-.21-.19.04-.07.07-.14.1-.2-.01-.01-.02-.01-.02-.02-.04.05-.07.09-.14.18-.04-.11-.07-.19-.1-.26-.16.09-.15-.11-.24-.16ZM11.36,3.6c-.17.2-.32.38-.47.54-.02.02-.14-.02-.14-.05-.04-.14-.06-.29-.08-.39.24-.04.44-.06.69-.1ZM10.87,4.74c-.08-.01-.23,0-.24-.04-.05-.14-.07-.3-.09-.45,0-.03.04-.07.1-.15.09.18.17.33.23.48.02.03,0,.1,0,.16ZM10.91,4.4s-.02-.07-.05-.15c.15-.05.29-.11.44-.16-.01-.01-.01-.02-.02-.03-.07.01-.15.02-.22.02-.01-.02-.02-.04-.02-.06.15-.08.29-.16.44-.24.28.2.24.49.23.77,0,.03-.03.07-.06.09-.22.14-.63,0-.74-.24Z" fill="#137a52"/>
  <polygon points="11.73 1.52 11.72 1.51 11.72 1.51 11.73 1.52" fill="#137a52"/>
  <path d="M4.73,10.74c-2.09-.06-3.79,1.64-3.78,3.66-.01,2,1.62,3.65,3.61,3.68,2.05.03,3.7-1.65,3.73-3.62.02-2.06-1.65-3.66-3.56-3.72ZM4.42,17.47c-1.47-.09-2.94-1.36-2.85-3.24.07-1.48,1.35-2.96,3.24-2.86,1.55.08,2.88,1.4,2.86,3.05.03,1.63-1.37,3.15-3.25,3.05Z" fill="none"/>
  <path d="M4.63,12.31c-1.16,0-2.11.97-2.12,2.08-.01,1.16.97,2.11,2.08,2.12,1.16,0,2.15-.97,2.12-2.1.03-1.13-.95-2.09-2.08-2.1ZM4.63,15.9c-.81,0-1.49-.66-1.5-1.46-.01-.83.65-1.5,1.48-1.51.81,0,1.49.66,1.49,1.47,0,.82-.65,1.5-1.47,1.5Z" fill="none"/>
  <path d="M4.61,13.88c-.28,0-.53.25-.52.53,0,.29.24.53.53.53s.54-.24.54-.53c-.01-.29-.26-.53-.55-.53Z" fill="none"/>
  <path d="M4.64,9.79c-2.58,0-4.64,2.05-4.64,4.62s2.07,4.63,4.63,4.63,4.61-2.06,4.63-4.63c-.03-2.55-2.06-4.61-4.62-4.62ZM4.56,18.08c-1.99-.03-3.63-1.67-3.61-3.68,0-2.01,1.68-3.71,3.78-3.66,1.91.05,3.58,1.66,3.56,3.72-.03,1.98-1.68,3.65-3.73,3.62Z" fill="#f7b61b"/>
  <path d="M4.81,11.37c-1.89-.1-3.16,1.38-3.24,2.86-.1,1.88,1.38,3.15,2.85,3.24,1.88.11,3.28-1.41,3.25-3.04.02-1.66-1.31-2.98-2.86-3.06ZM4.59,16.51c-1.11,0-2.09-.95-2.08-2.12.01-1.12.96-2.09,2.12-2.08,1.13,0,2.11.97,2.08,2.1.03,1.13-.96,2.12-2.12,2.1Z" fill="#f7b61b"/>
  <path d="M4.61,12.93c-.83,0-1.48.67-1.48,1.51.01.81.68,1.47,1.5,1.46.82,0,1.48-.68,1.48-1.5-.01-.81-.69-1.48-1.5-1.47ZM4.61,14.95c-.29,0-.53-.24-.53-.53s.24-.53.52-.53.54.24.54.53c0,.28-.24.53-.53.53Z" fill="#f7b61b"/>
  <g>
    <path d="M16.83,13.65c.09-.1.08-.26-.01-.35-.1-.09-.26-.08-.35.02-.09.1-.08.25.02.34.09.1.25.09.34-.01Z" fill="none"/>
    <path d="M16.6,17.99c.25-.08.48-.19.7-.33.11-.07.22-.14.32-.23.17-.15.29-.32.28-.56,0-.08-.03-.15-.1-.2h-.01s-.01.02-.02,0c-.07.02-.13.07-.18.12-.11.11-.18.25-.28.38-.19.24-.43.42-.73.52-.33.1-.67-.04-.85-.25.01,0,.03,0,.04,0-.08-.09-.18-.15-.26-.23-.03-.04-.07-.08-.1-.12.07.05.14.11.21.16.14.08.28.12.44.14.3.03.57-.07.82-.22.16-.1.31-.23.42-.38.07-.09.1-.25.03-.35-.05-.07-.12-.08-.19-.09-.07.04-.09.11-.12.17-.04.09-.07.19-.11.27-.08.16-.17.31-.32.39-.26.13-.54.15-.82.03-.1-.05-.19-.12-.24-.23-.04-.04-.08-.07-.13-.12.36.16.7.07,1.03-.08.15-.07.28-.17.4-.29.15-.15.15-.35-.02-.48-.01,0-.02-.02-.03-.03h0c-.07.02-.1.07-.14.12-.05.09-.08.19-.12.28-.23.51-.94.58-1.27.13-.06-.05-.14-.07-.2-.15.11.04.22.05.32.06.32,0,.62-.06.87-.29.09-.09.16-.18.19-.3.03-.09-.04-.28-.13-.3-.11.02-.16.1-.2.19-.04.1-.07.21-.11.31-.05.12-.13.2-.26.21-.05,0-.09.02-.14.03-.19.04-.38.02-.56-.07-.07-.03-.14-.07-.22-.08-.04,0-.08,0-.12,0v.02s.03.04.04.06c.15.18.19.39.15.62-.06.28-.18.53-.43.69-.35.22-.89.1-1.14-.24-.21-.28-.19-.66.05-.9.23-.23.68-.27.96-.09.16.1.23.26.19.45-.03.15-.11.28-.23.37-.14.1-.29.15-.45.08-.15-.07-.23-.19-.25-.36-.01-.15.06-.26.2-.31.1-.04.18-.02.23.05.05.06.04.18-.02.25-.02-.03-.02-.06-.03-.09,0-.05-.01-.09-.02-.14-.01-.04-.04-.06-.09-.05-.11.02-.22.15-.22.26.01.21.23.47.53.31.17-.09.26-.25.29-.44.02-.18-.06-.33-.23-.41-.25-.11-.49-.06-.72.08-.26.16-.35.46-.22.74.12.25.33.4.6.47.21.06.41.03.58-.12.24-.2.36-.45.38-.76.01-.14-.03-.27-.11-.38-.09-.13-.2-.24-.37-.27-.15-.03-.3-.08-.44-.14-.05-.02-.1-.03-.16-.02-.09,0-.18.03-.26.07-.38.2-.57.53-.63.94-.05.35.09.61.39.78.41.23.85.39,1.32.47.6.09,1.2.03,1.79-.09.01-.02.02,0,.03,0h.02s.03-.02.05,0h.02s.02-.02.03,0h0s.05,0,.08-.02Z" fill="url(#linear-gradient)"/>
    <path d="M13.75,18.44c.08,0,.16-.02.24-.03s.08,0,.04-.08c-.08-.19-.24-.3-.41-.39-.19-.09-.39-.17-.56-.31-.14-.11-.3-.14-.47-.1-.05,0-.1.02-.15.04-.31.12-.62.09-.93-.02-.21-.07-.41-.19-.52-.39-.21-.37-.18-.74.01-1.11.04-.08.1-.15.16-.22-.56.2-1.04.08-1.43-.4.12.42.92,1.68,1.04,1.83.14.17.29.32.44.47.15.14.81.49.9.51.04,0,.08.02.12.04s.07,0,.1-.03c.17-.19.38-.31.64-.28.29.04.53.17.71.41.02.05.04.06.07.06Z" fill="url(#linear-gradient-2)"/>
    <path d="M11.56,15.39c-.06.11-.14.22-.23.31.34-.15.66-.06.97.1-.2-.18-.32-.41-.36-.67-.05-.32-.01-.62.24-.86.02-.02.02-.04.01-.06-.05-.19-.06-.38-.04-.57,0,0,.01-.03-.01-.04-.02,0-.04.03-.06.04-.4.26-1.03.09-1.24-.34-.14-.3-.08-.64.18-.83.27-.19.56-.21.86-.06.14.07.22.18.24.33.02.28-.21.57-.48.61-.16.02-.29-.04-.38-.18-.08-.13-.11-.26-.03-.4.06-.11.24-.17.33-.12s.11.17.05.3h-.01s-.02-.06-.03-.1c-.01-.04-.01-.08-.02-.12-.01-.04-.04-.06-.08-.05-.11,0-.22.14-.22.25,0,.27.28.45.52.33.18-.09.28-.25.3-.45.02-.18-.06-.33-.23-.4-.26-.12-.51-.06-.74.09-.27.19-.34.5-.17.79.14.23.35.37.62.42.18.04.35,0,.51-.11.07-.05.13-.11.14-.21.03-.2.1-.39.2-.56.05-.09.05-.17.01-.25-.02-.05-.04-.09-.07-.13-.2-.28-.49-.4-.81-.44-.2-.02-.38.02-.54.14-.32.24-.49.56-.52.95-.02.3.11.53.38.68.14.08.29.15.43.22.33.17.47.45.44.82,0,.21-.06.39-.16.57Z" fill="url(#linear-gradient-3)"/>
    <path d="M15.64,12.31s-.05.07,0,.12c.26.24.4.53.35.89-.02.14.01.28.06.42.05.15.14.29.23.42.04.05.04.1.02.17-.04.14-.09.28-.14.42-.01.02-.02.05-.01.08.04.14.08.28.11.42.01.02.01.04.04.04s.05,0,.07-.03c.03-.05.07-.11.1-.16.14-.27.26-.55.39-.83.09-.19.19-.38.22-.6.01-.07.04-.11.09-.15.11-.08.21-.18.28-.29.15-.22.23-.45.22-.72,0-.07-.02-.13-.06-.19-.05-.07-.15-.1-.22-.07s-.09.1-.06.19c.01.05.04.09.06.14.09.21.09.42,0,.62-.04.1-.1.19-.19.26,0,0-.01,0,0,0,0,0,.01,0,.01-.02.1-.19.16-.39.16-.61,0-.07-.02-.14-.06-.2-.05-.06-.15-.09-.22-.06-.06.03-.09.1-.06.19.01.05.04.09.06.14.06.14.09.29.05.44v.03h0s-.01.02-.01.02t.01-.02v-.03c-.01-.28-.08-.55-.22-.79-.24-.41-.49-.83-.79-1.2-.08-.09-.16-.18-.27-.25.06.08.11.17.12.27.06.37-.08.68-.34.95ZM16.47,13.32c.09-.1.25-.11.35-.02s.1.25.01.35-.25.11-.35,0c-.1-.09-.1-.24-.01-.34Z" fill="url(#linear-gradient-4)"/>
    <path d="M9.66,14.93s.01-.03.01-.04c.05-.22.15-.41.31-.56.18-.17.4-.26.65-.2.23.05.43.16.59.34.24.26.21.71-.06.94-.26.22-.56.23-.86.13-.07-.02-.13-.07-.18-.13-.13-.19-.11-.38-.01-.57.1-.19.25-.3.47-.29.26,0,.43.21.39.45-.02.15-.17.26-.32.25-.07,0-.13-.05-.14-.11-.01-.07.01-.13.04-.18,0,0,.01-.02.03,0,.01,0,.02.02.02.03.01.03-.01.06-.01.1-.01.05-.01.09.03.12.07.05.16.04.21-.03.09-.1.1-.29.02-.4-.08-.13-.21-.17-.36-.14-.21.05-.38.27-.39.49,0,.12.05.22.14.3.21.16.54.17.78.02.32-.19.41-.57.19-.87-.17-.24-.41-.36-.71-.39-.16,0-.31.05-.43.16-.18.16-.3.37-.34.6-.06.32.04.57.3.75.25.17.53.22.83.17.2-.03.38-.12.5-.28.19-.24.31-.51.32-.82.01-.21-.07-.39-.23-.53-.08-.07-.17-.12-.26-.16-.16-.08-.34-.14-.48-.26-.2-.16-.42-.18-.65-.1-.09.03-.17.06-.27.07-.04,0-.05.02-.06.06-.08.37-.12.74-.09,1.13.01-.03.01-.04.02-.04Z" fill="url(#linear-gradient-5)"/>
    <path d="M11.05,16.06c-.13.24-.17.5-.13.77.02.14.08.27.17.38.24.27.54.38.89.38.41,0,.74-.19.86-.64.03-.11.06-.22.09-.33.07-.24.19-.44.39-.59.01,0,.02,0,.03-.02.01,0,.02-.02.03-.04-.34.07-.66.07-.97-.09l.05.05c.1.11.17.23.19.38.03.35-.08.64-.34.88-.2.18-.5.22-.72.09-.3-.17-.47-.65-.35-.97.06-.18.19-.27.38-.28.19,0,.35.06.49.19.2.19.19.46-.03.64-.17.14-.39.1-.5-.07-.04-.06-.05-.13-.01-.2s.1-.08.18-.08c.04,0,.1,0,.1.03,0,.06-.06.04-.11.04-.11,0-.15.03-.13.14.01.07.05.11.11.13.13.05.26.02.36-.07s.13-.21.08-.33c-.06-.17-.18-.27-.34-.32-.28-.09-.49.05-.54.33-.03.19,0,.37.1.53.2.35.65.41.94.12.2-.21.28-.46.27-.75,0-.12-.05-.23-.14-.32-.25-.26-.56-.36-.91-.31-.23.01-.39.14-.49.33Z" fill="url(#linear-gradient-6)"/>
    <path d="M12.69,12.38s.04,0,.06-.02c.06-.06.13-.11.22-.17-.12,0-.22-.02-.31-.07-.31-.17-.48-.64-.36-.97.06-.17.18-.27.36-.29.2-.02.37.05.51.19.19.2.18.45-.03.62-.17.14-.39.12-.5-.06-.04-.06-.06-.13-.02-.2.04-.07.11-.09.18-.09.04,0,.1,0,.1.03,0,.05-.06.04-.1.03-.12-.02-.15.05-.13.15.01.06.04.1.1.12.14.06.26.04.37-.06.1-.09.13-.2.09-.32-.04-.13-.12-.23-.23-.29-.32-.17-.6-.04-.65.31-.02.15,0,.3.06.44.19.43.71.5,1.01.15.17-.19.24-.43.23-.68,0-.12-.05-.22-.12-.32-.16-.2-.38-.3-.63-.34-.04,0-.08,0-.12,0-.18.06-.36.13-.54.2-.04.02-.08.05-.1.09-.11.18-.16.37-.17.58-.03.53.3.83.72.96Z" fill="url(#linear-gradient-7)"/>
    <path d="M10.28,13.4c.08-.11.13-.23.16-.36.04-.13.06-.27.11-.39.13-.35.36-.61.74-.67.38-.06.72.07,1.01.32.1.09.16.22.2.37.05-.1.12-.16.18-.24-.34-.1-.61-.28-.72-.63-.1-.34-.05-.66.13-.97-.02,0-.03,0-.04.02-.69.37-1.25.89-1.69,1.54-.07.1-.47.93-.47.94-.04.11-.08.23-.11.36.2-.04.37-.13.5-.29Z" fill="url(#linear-gradient-8)"/>
    <path d="M13.17,10.55c.19.08.36.19.46.37.12.21.1.43.03.65-.05.15-.12.28-.24.41.15-.04.27-.07.4-.08.04,0,.07-.02.08-.06.04-.14.07-.28.11-.41.1-.32.29-.56.6-.68.23-.09.46-.06.69,0,.02,0,.04.03.06,0-.01,0-.02-.02-.04-.03-.4-.21-.83-.32-1.28-.34-.34-.02-.67,0-1,.1v.02s.09.01.13.03Z" fill="url(#linear-gradient-9)"/>
    <path d="M14.43,10.91c-.1.08-.19.18-.26.29-.12.19-.2.4-.21.62,0,.04.01.06.05.05.09,0,.17-.02.26-.03,0-.02-.01-.05-.01-.08-.01-.18.03-.34.15-.48.23-.27.72-.33,1.01-.12.16.11.22.27.17.46-.03.12-.08.22-.17.3-.07.07-.16.12-.26.16.13.07.24.13.34.21.04.03.06.03.09,0,.14-.13.24-.28.29-.46.11-.34.03-.64-.22-.83-.19-.15-.41-.23-.65-.26-.22-.02-.41.03-.58.17Z" fill="url(#linear-gradient-10)"/>
    <path d="M15.05,11.58s-.01-.08-.02-.12c-.01-.04-.05-.07-.09-.05-.12.04-.22.13-.21.28.02.26.34.43.56.27.08-.06.15-.13.2-.23.16-.32,0-.61-.35-.66-.22-.03-.41.03-.59.16-.19.14-.26.33-.22.56.01.04.02.06.07.06.09,0,.17,0,.25.04.03,0,.07.02.11.02-.03-.05-.06-.09-.07-.14-.06-.18.01-.34.18-.4.1-.04.18-.02.22.03.05.07.05.18-.01.27-.03-.02-.03-.05-.03-.09Z" fill="url(#linear-gradient-11)"/>
    <path d="M12.35,14.61c-.05-.09-.08-.18-.12-.28-.05.05-.09.09-.12.14-.13.21-.15.44-.09.67.1.39.3.69.71.78.28.06.56.02.83-.09.03,0,.05-.03.08-.04-.09-.05-.17-.1-.25-.15-.03-.02-.06-.02-.1,0-.14.07-.3.09-.46.06-.33-.06-.55-.43-.59-.66-.02-.14,0-.26.09-.37.02-.03.03-.04.02-.06Z" fill="url(#linear-gradient-12)"/>
    <path d="M17.81,16.67h0c.06.05.1.12.1.2.01.24-.11.41-.28.56-.1.09-.21.16-.32.23-.22.14-.45.25-.7.33-.03,0-.06,0-.07.05.03,0,.06,0,.1-.02.43-.08.82-.26,1.18-.49.12-.08.23-.16.31-.29.08-.15.08-.34-.03-.47-.08-.09-.17-.13-.29-.1h0Z" fill="url(#linear-gradient-13)"/>
    <path d="M13.31,18.16c-.36-.21-.7-.15-.95.17.42.1.84.14,1.27.12-.09-.13-.2-.22-.32-.29Z" fill="url(#linear-gradient-14)"/>
    <path d="M12.6,14.97c-.08-.08-.13-.18-.2-.27-.13.22-.06.54.17.76.21.2.52.25.72.11-.04-.03-.09-.07-.13-.1-.05-.03-.09-.07-.14-.11-.03-.03-.06-.04-.11-.05-.12,0-.24-.11-.25-.22-.01-.04-.03-.08-.06-.12Z" fill="url(#linear-gradient-15)"/>
    <path d="M17.37,16.45c.07.1.04.26-.03.35-.12.15-.26.28-.42.38-.25.15-.52.25-.82.22-.16-.02-.3-.06-.44-.14-.08-.05-.14-.11-.21-.16.03.04.06.08.1.12.08.09.18.15.26.23.07.04.15.06.23.06.58.02,1.06-.22,1.43-.65.12-.14.13-.3.05-.43s-.21-.16-.33-.07c.06.01.13.02.18.09Z" fill="url(#linear-gradient-16)"/>
    <path d="M16.86,16.51c-.12.11-.25.22-.4.29-.33.16-.66.25-1.03.08.05.04.09.08.13.12.17.07.34.08.51.05.35-.07.63-.25.87-.51.07-.07.12-.16.13-.26.02-.17-.15-.32-.27-.27.01,0,.02.02.03.03.19.12.19.33.03.47Z" fill="url(#linear-gradient-17)"/>
    <path d="M16.46,15.87c-.03.12-.1.22-.19.3-.25.23-.54.3-.87.29-.11,0-.21-.02-.32-.06.06.08.14.1.2.15.01-.02-.02-.03,0-.05.1.05.22.07.33.05.35-.05.65-.2.89-.47.07-.08.11-.16.11-.27,0-.16-.13-.28-.27-.25.08.03.15.21.12.31Z" fill="url(#linear-gradient-18)"/>
    <path d="M14.17,18.31c.1-.05.2-.1.31-.11h-.01c-.18-.04-.35-.07-.52-.12.07.06.11.13.14.2.02.04.03.05.08.03Z" fill="url(#linear-gradient-19)"/>
    <path d="M12.87,15.25c-.06-.05-.11-.1-.17-.15.03.11.06.15.17.15Z" fill="url(#linear-gradient-20)"/>
    <path d="M16.49,18.04s-.04,0-.05,0h0s.03,0,.05,0h0Z" fill="url(#linear-gradient-21)"/>
    <path d="M15.39,10.77s-.02-.02-.03-.02c.01.02.02.02.03.02Z" fill="url(#linear-gradient-22)"/>
    <path d="M16.39,18.06s.02,0,.03,0h0s-.02-.01-.03,0Z" fill="url(#linear-gradient-23)"/>
    <path d="M13.04,10.49s-.02,0-.02,0c.01,0,.02,0,.02,0v-.02Z" fill="url(#linear-gradient-24)"/>
    <path d="M16.51,18.04h0s-.01,0,0,0h.03s-.03,0-.03,0Z" fill="url(#linear-gradient-25)"/>
    <path d="M17.81,16.68s0,0,0,0t0,0h-.02.02Z" fill="url(#linear-gradient-26)"/>
    <path d="M14.49,18.19s-.01,0,0,0t0,0Z" fill="url(#linear-gradient-27)"/>
    <path d="M17.11,13.37s.01,0,.01,0h0v-.04h-.02v.03s.02.02.01.02Z" fill="#fefdfd"/>
  </g>
  <g>
    <path d="M64.37,14.97c-.06-.14-.14-.28-.24-.37-.09-.09-.21-.14-.34-.14h-.33v3.22h.33c.13,0,.24-.05.34-.14.09-.09.17-.21.24-.37.06-.14.11-.33.14-.51s.05-.4.05-.58c0-.21-.02-.4-.05-.58-.03-.19-.07-.35-.14-.51Z" fill="none"/>
    <path d="M37.28,15.65c.03-.07.05-.14.07-.21,0-.09.02-.16.02-.28,0-.09,0-.19-.02-.26,0-.09-.04-.16-.07-.21-.03-.07-.07-.12-.13-.14-.05-.05-.12-.05-.19-.05h-.31v1.38h.31c.08,0,.14-.02.19-.05.06-.07.1-.12.13-.19Z" fill="none"/>
    <polygon points="39.96 16.65 40.7 16.65 40.33 14.57 39.96 16.65" fill="none"/>
    <path d="M77.13,15.65c.03-.07.05-.14.07-.21.01-.09.02-.16.02-.28,0-.09-.01-.19-.02-.26-.01-.09-.04-.16-.07-.21-.03-.07-.07-.12-.13-.14-.05-.05-.12-.05-.19-.05h-.31v1.38h.31c.08,0,.14-.02.19-.05.06-.07.1-.12.13-.19Z" fill="none"/>
    <path d="M70.07,14.69c-.03-.07-.07-.12-.13-.14-.05-.05-.12-.05-.19-.05h-.28v1.38h.28c.08,0,.14-.02.19-.05.05-.05.1-.09.13-.14.03-.07.05-.14.07-.21.01-.09.02-.16.02-.28,0-.09-.01-.19-.02-.26-.02-.14-.04-.21-.07-.26Z" fill="none"/>
    <polygon points="52.05 16.65 52.78 16.65 52.42 14.57 52.05 16.65" fill="none"/>
    <polygon points="29.4 16.65 30.14 16.65 29.77 14.57 29.4 16.65" fill="none"/>
    <path d="M71.95,14.9c-.06-.16-.13-.28-.22-.37-.09-.09-.18-.14-.29-.14s-.21.05-.29.14c-.09.09-.16.21-.22.37s-.11.33-.14.54-.05.42-.05.65.02.44.05.65c.03.21.08.4.14.54.06.16.13.28.22.37.09.09.18.14.29.14s.21-.05.29-.14c.09-.09.16-.21.22-.37s.11-.33.14-.54.05-.42.05-.65-.02-.44-.05-.65c-.04-.21-.08-.4-.14-.54Z" fill="none"/>
    <polygon points="26.9 7.98 29.77 7.98 28.33 4.33 26.9 7.98" fill="none"/>
    <path d="M56.58,14.9c-.06-.16-.13-.28-.22-.37s-.18-.14-.29-.14-.21.05-.29.14-.16.21-.22.37-.11.33-.14.54-.05.42-.05.65.02.44.05.65.08.4.14.54c.06.16.13.28.22.37s.18.14.29.14.21-.05.29-.14c.09-.09.16-.21.22-.37s.11-.33.14-.54.05-.42.05-.65-.02-.44-.05-.65-.08-.4-.14-.54Z" fill="none"/>
    <path d="M51.24,3.34c-.19-.09-.4-.16-.65-.19-.24-.03-.48-.05-.71-.05h-1.69v2.67h1.53c.23,0,.48-.01.74-.02.26-.02.49-.07.71-.15.21-.08.38-.21.52-.39s.21-.43.21-.75c0-.3-.06-.54-.18-.71-.14-.18-.29-.31-.48-.41Z" fill="none"/>
    <polygon points="60.04 16.65 60.78 16.65 60.41 14.57 60.04 16.65" fill="none"/>
    <path d="M88.15,14.9c-.06-.16-.13-.28-.22-.37-.09-.09-.18-.14-.29-.14s-.21.05-.29.14c-.09.09-.16.21-.22.37s-.11.33-.14.54-.05.42-.05.65.02.44.05.65c.03.21.08.4.14.54.06.16.13.28.22.37.09.09.18.14.29.14s.21-.05.29-.14c.09-.09.16-.21.22-.37s.11-.33.14-.54.05-.42.05-.65-.02-.44-.05-.65c-.04-.21-.08-.4-.14-.54Z" fill="none"/>
    <path d="M26.25,15.65c.03-.07.05-.14.07-.21.01-.09.02-.16.02-.28,0-.09-.01-.19-.02-.26-.01-.09-.04-.16-.07-.21-.03-.07-.07-.12-.13-.14-.05-.05-.12-.05-.19-.05h-.31v1.38h.31c.08,0,.14-.02.19-.05.06-.07.1-.12.13-.19Z" fill="none"/>
    <path d="M47.79,14.97c-.06-.14-.14-.28-.24-.37-.09-.09-.21-.14-.34-.14h-.33v3.22h.33c.13,0,.24-.05.34-.14.09-.09.17-.21.24-.37.06-.14.11-.33.14-.51s.05-.4.05-.58c0-.21-.02-.4-.05-.58-.03-.19-.08-.35-.14-.51Z" fill="none"/>
    <polygon points="22.71 16.65 23.44 16.65 23.07 14.57 22.71 16.65" fill="none"/>
    <path d="M22.99,14.11l-.74,3.94h.2l.19-1.03h.86l.19,1.03h.2l-.74-3.94h-.16ZM22.71,16.65l.37-2.07.37,2.07h-.74Z"/>
    <polygon points="24.12 18.05 24.29 18.05 24.29 16.18 25.08 16.18 25.08 15.83 24.29 15.83 24.29 14.48 25.14 14.48 25.14 14.11 24.12 14.11 24.12 18.05"/>
    <path d="M26.42,15.86c.07-.19.11-.42.11-.7,0-.35-.05-.61-.15-.79-.1-.16-.24-.26-.41-.26h-.52v3.94h.17v-1.84h.29l.46,1.84h.21l-.49-1.86c.15-.02.25-.14.33-.33ZM25.62,15.86v-1.38h.31c.08,0,.14.02.19.05.05.05.1.09.13.14.03.07.05.14.07.21.01.09.02.16.02.26s-.01.19-.02.28c-.01.09-.04.16-.07.21-.03.07-.07.12-.13.14-.05.05-.12.05-.19.05h-.31v.05Z"/>
    <rect x="26.87" y="14.11" width=".17" height="3.94"/>
    <path d="M28.65,17.49c-.04.07-.08.14-.12.19-.04.05-.09.07-.13.09-.04.02-.09.02-.13.02-.11,0-.21-.05-.29-.14-.09-.09-.16-.21-.22-.37s-.11-.33-.14-.54c-.03-.21-.05-.42-.05-.65s.02-.44.05-.65c.03-.21.08-.4.14-.54.06-.16.13-.28.22-.37s.18-.14.29-.14c.04,0,.09.02.13.05.04.02.09.07.13.12s.07.09.1.16.05.12.07.19l.15-.26c-.07-.23-.16-.37-.27-.49-.11-.09-.21-.14-.32-.14-.13,0-.24.05-.35.16-.11.09-.2.26-.28.44-.08.19-.14.4-.19.65-.04.26-.07.54-.07.84s.02.58.07.84c.04.26.11.47.19.65.08.19.17.33.28.44.11.09.22.16.35.16.07,0,.14-.02.2-.05.06-.05.12-.09.18-.16.05-.07.1-.14.14-.23.04-.09.08-.19.11-.28l-.14-.23s-.07.16-.1.23Z"/>
    <path d="M29.69,14.11l-.74,3.94h.2l.19-1.03h.86l.19,1.03h.2l-.74-3.94h-.16ZM29.4,16.65l.37-2.07.37,2.07h-.74Z"/>
    <polygon points="32.05 17.46 32.04 17.46 31.03 14.11 30.82 14.11 30.82 18.05 30.99 18.05 30.99 14.69 31 14.69 32 18.05 32.22 18.05 32.22 14.11 32.05 14.11 32.05 17.46"/>
    <polygon points="34.44 15.83 33.51 15.83 33.51 14.11 33.34 14.11 33.34 18.05 33.51 18.05 33.51 16.18 34.44 16.18 34.44 18.05 34.61 18.05 34.61 14.11 34.44 14.11 34.44 15.83"/>
    <polygon points="35.24 16.18 36.06 16.18 36.06 15.83 35.24 15.83 35.24 14.48 36.12 14.48 36.12 14.11 35.07 14.11 35.07 18.05 36.14 18.05 36.14 17.7 35.24 17.7 35.24 16.18"/>
    <path d="M37.45,15.86c.07-.19.11-.42.11-.7,0-.35-.05-.61-.15-.79-.1-.16-.24-.26-.41-.26h-.52v3.94h.17v-1.84h.29l.46,1.84h.21l-.49-1.86c.15-.02.26-.14.33-.33ZM36.66,15.86v-1.38h.31c.08,0,.14.02.19.05.05.05.1.09.13.14.03.07.05.14.07.21,0,.09.02.16.02.26s0,.19-.02.28c0,.09-.04.16-.07.21-.03.07-.07.12-.13.14-.05.05-.12.05-.19.05h-.31v.05Z"/>
    <rect x="37.9" y="14.11" width=".17" height="3.94"/>
    <polygon points="39.64 14.11 38.34 14.11 38.34 14.48 38.9 14.48 38.9 18.05 39.07 18.05 39.07 14.48 39.64 14.48 39.64 14.11"/>
    <path d="M40.25,14.11l-.74,3.94h.2l.19-1.03h.86l.19,1.03h.2l-.74-3.94h-.16ZM39.96,16.65l.37-2.07.37,2.07h-.74Z"/>
    <path d="M42.21,16.18h.4v1.33c-.06.09-.14.16-.22.21s-.16.07-.25.07c-.11,0-.21-.05-.29-.14-.09-.09-.16-.21-.22-.37s-.11-.33-.14-.54-.05-.42-.05-.65.02-.44.05-.65.08-.4.14-.54c.06-.16.13-.28.22-.37s.18-.14.29-.14.2.05.28.12c.08.09.15.19.21.33l.13-.3c-.08-.19-.16-.3-.26-.4-.1-.09-.21-.14-.35-.14-.13,0-.24.05-.35.16-.11.09-.2.26-.28.44s-.14.4-.19.65c-.04.26-.07.54-.07.84s.02.58.07.84c.04.26.11.47.19.65s.17.33.28.44c.11.09.22.16.35.16.1,0,.21-.02.33-.09.11-.07.22-.16.31-.3v-1.93h-.58s0,.33,0,.33Z"/>
    <polygon points="43.41 16.18 44.23 16.18 44.23 15.83 43.41 15.83 43.41 14.48 44.29 14.48 44.29 14.11 43.24 14.11 43.24 18.05 44.32 18.05 44.32 17.7 43.41 17.7 43.41 16.18"/>
    <polygon points="45.49 16.18 46.31 16.18 46.31 15.83 45.49 15.83 45.49 14.48 46.37 14.48 46.37 14.11 45.32 14.11 45.32 18.05 46.4 18.05 46.4 17.7 45.49 17.7 45.49 16.18"/>
    <path d="M47.88,14.6c-.09-.16-.18-.28-.29-.37s-.21-.12-.32-.12h-.56v3.94h.56c.11,0,.21-.05.32-.12.11-.09.2-.21.29-.37s.15-.37.21-.61c.05-.26.08-.54.08-.86s-.03-.61-.08-.86c-.06-.26-.13-.47-.21-.63ZM47.93,16.67c-.03.19-.08.37-.14.51-.06.14-.14.28-.24.37-.09.09-.21.14-.34.14h-.33v-3.22h.33c.13,0,.24.05.34.14.09.09.17.21.24.37.06.14.11.33.14.51s.05.4.05.58c0,.21-.02.4-.05.58Z"/>
    <path d="M49.54,16.53c0,.19,0,.35-.02.49-.02.14-.04.26-.06.35-.03.09-.06.16-.09.21s-.07.09-.1.12-.06.05-.1.07c-.03,0-.06.02-.08.02s-.05,0-.08-.02c-.03,0-.06-.02-.09-.07-.03-.02-.07-.07-.1-.12s-.06-.12-.09-.21-.05-.21-.06-.35c-.02-.14-.02-.3-.02-.49v-2.42h-.17v2.47c0,.16,0,.33.03.51s.05.35.09.51c.05.16.11.28.19.4.08.09.18.16.31.16s.23-.05.31-.16c.08-.09.14-.23.19-.4s.08-.33.09-.51c.02-.19.03-.35.03-.51v-2.47h-.17v2.42h0Z"/>
    <path d="M51.29,17.49c-.04.07-.08.14-.12.19-.04.05-.09.07-.13.09-.04.02-.09.02-.13.02-.11,0-.21-.05-.29-.14-.09-.09-.16-.21-.22-.37s-.11-.33-.14-.54-.05-.42-.05-.65.02-.44.05-.65.08-.4.14-.54c.06-.16.13-.28.22-.37s.18-.14.29-.14c.04,0,.09.02.13.05.04.02.09.07.13.12s.07.09.1.16.05.12.07.19l.15-.26c-.07-.23-.16-.37-.27-.49-.11-.09-.21-.14-.32-.14-.13,0-.24.05-.35.16-.11.09-.2.26-.28.44s-.14.4-.19.65c-.04.26-.07.54-.07.84s.02.58.07.84c.04.26.11.47.19.65s.17.33.28.44c.11.09.22.16.35.16.07,0,.14-.02.2-.05.06-.05.12-.09.18-.16.05-.07.1-.14.14-.23.04-.09.08-.19.11-.28l-.14-.23s-.06.16-.1.23Z"/>
    <path d="M52.33,14.11l-.74,3.94h.2l.19-1.03h.86l.19,1.03h.2l-.74-3.94h-.16ZM52.05,16.65l.37-2.07.37,2.07h-.74Z"/>
    <polygon points="53.11 14.48 53.67 14.48 53.67 18.05 53.85 18.05 53.85 14.48 54.41 14.48 54.41 14.11 53.11 14.11 53.11 14.48"/>
    <rect x="54.68" y="14.11" width=".17" height="3.94"/>
    <path d="M56.7,14.6c-.08-.19-.17-.33-.28-.44-.11-.09-.22-.16-.35-.16s-.24.05-.35.16c-.11.09-.2.26-.28.44s-.14.4-.19.65c-.04.26-.07.54-.07.84s.02.58.07.84c.04.26.11.47.19.65s.17.33.28.44c.11.09.22.16.35.16s.24-.05.35-.16c.11-.09.2-.26.28-.44s.14-.4.19-.65c.04-.26.07-.54.07-.84s-.02-.58-.07-.84c-.05-.26-.11-.47-.19-.65ZM56.72,16.74c-.03.21-.08.4-.14.54-.06.16-.13.28-.22.37s-.18.14-.29.14-.21-.05-.29-.14c-.09-.09-.16-.21-.22-.37s-.11-.33-.14-.54-.05-.42-.05-.65.02-.44.05-.65.08-.4.14-.54c.06-.16.13-.28.22-.37s.18-.14.29-.14.21.05.29.14c.09.09.16.21.22.37s.11.33.14.54.05.42.05.65c0,.21-.02.44-.05.65Z"/>
    <polygon points="58.53 17.46 58.52 17.46 57.51 14.11 57.3 14.11 57.3 18.05 57.47 18.05 57.47 14.69 57.48 14.69 58.48 18.05 58.7 18.05 58.7 14.11 58.53 14.11 58.53 17.46"/>
    <path d="M60.33,14.11l-.74,3.94h.2l.19-1.03h.86l.19,1.03h.2l-.74-3.94h-.16ZM60.04,16.65l.37-2.07.37,2.07h-.74Z"/>
    <polygon points="62.69 17.46 62.68 17.46 61.68 14.11 61.46 14.11 61.46 18.05 61.63 18.05 61.63 14.69 61.64 14.69 62.65 18.05 62.86 18.05 62.86 14.11 62.69 14.11 62.69 17.46"/>
    <path d="M64.46,14.6c-.09-.16-.18-.28-.29-.37s-.21-.12-.32-.12h-.56v3.94h.56c.11,0,.21-.05.32-.12.11-.09.2-.21.29-.37.09-.16.15-.37.21-.61.05-.26.08-.54.08-.86s-.03-.61-.08-.86c-.06-.26-.12-.47-.21-.63ZM64.51,16.67c-.03.19-.08.37-.14.51s-.14.28-.24.37c-.09.09-.21.14-.34.14h-.33v-3.22h.33c.13,0,.24.05.34.14.09.09.17.21.24.37.06.14.11.33.14.51s.05.4.05.58c0,.21-.02.4-.05.58Z"/>
    <polygon points="65.93 16.18 66.75 16.18 66.75 15.83 65.93 15.83 65.93 14.48 66.8 14.48 66.8 14.11 65.75 14.11 65.75 18.05 66.83 18.05 66.83 17.7 65.93 17.7 65.93 16.18"/>
    <polygon points="68 17.32 67.43 14.11 67.17 14.11 67.17 18.05 67.34 18.05 67.34 14.64 67.35 14.64 67.96 18.05 68.05 18.05 68.66 14.64 68.67 14.64 68.67 18.05 68.84 18.05 68.84 14.11 68.58 14.11 68 17.32"/>
    <path d="M70.2,14.36c-.1-.16-.24-.26-.41-.26h-.49v3.94h.17v-1.84h.32c.17,0,.31-.09.41-.26.1-.19.15-.44.15-.79s-.05-.61-.15-.79ZM70.14,15.44c-.01.09-.04.16-.07.21-.03.07-.07.12-.13.14-.05.05-.12.05-.19.05h-.28v-1.38h.28c.08,0,.14.02.19.05.05.05.1.09.13.14.03.07.05.14.07.21.01.09.02.16.02.26,0,.14,0,.23-.02.33Z"/>
    <path d="M72.07,14.6c-.08-.19-.17-.33-.28-.44-.11-.09-.22-.16-.35-.16s-.24.05-.35.16c-.11.09-.2.26-.28.44-.08.19-.14.4-.19.65-.04.26-.07.54-.07.84s.02.58.07.84c.04.26.11.47.19.65.08.19.17.33.28.44.11.09.22.16.35.16s.24-.05.35-.16c.11-.09.2-.26.28-.44.08-.19.14-.4.19-.65.04-.26.07-.54.07-.84s-.02-.58-.07-.84c-.05-.26-.12-.47-.19-.65ZM72.08,16.74c-.03.21-.08.4-.14.54-.06.16-.13.28-.22.37-.09.09-.18.14-.29.14s-.21-.05-.29-.14c-.09-.09-.16-.21-.22-.37s-.11-.33-.14-.54-.05-.42-.05-.65.02-.44.05-.65c.03-.21.08-.4.14-.54.06-.16.13-.28.22-.37.09-.09.18-.14.29-.14s.21.05.29.14c.09.09.16.21.22.37s.11.33.14.54.05.42.05.65c0,.21-.01.44-.05.65Z"/>
    <polygon points="74.1 17.49 74.09 17.49 73.67 14.11 73.46 14.11 73.03 17.49 73.03 17.49 72.62 14.11 72.43 14.11 72.93 18.05 73.13 18.05 73.56 14.69 73.56 14.69 73.99 18.05 74.19 18.05 74.69 14.11 74.5 14.11 74.1 17.49"/>
    <polygon points="75.09 16.18 75.91 16.18 75.91 15.83 75.09 15.83 75.09 14.48 75.97 14.48 75.97 14.11 74.92 14.11 74.92 18.05 75.99 18.05 75.99 17.7 75.09 17.7 75.09 16.18"/>
    <path d="M77.3,15.86c.07-.19.11-.42.11-.7,0-.35-.05-.61-.15-.79-.1-.16-.24-.26-.41-.26h-.52v3.94h.17v-1.84h.29l.46,1.84h.21l-.49-1.86c.15-.02.26-.14.33-.33ZM76.51,15.86v-1.38h.31c.08,0,.14.02.19.05.05.05.1.09.13.14.03.07.05.14.07.21.01.09.02.16.02.26s-.01.19-.02.28c-.01.09-.04.16-.07.21-.03.07-.07.12-.13.14-.05.05-.12.05-.19.05h-.31v.05Z"/>
    <polygon points="78.58 17.32 78.01 14.11 77.75 14.11 77.75 18.05 77.92 18.05 77.92 14.64 77.93 14.64 78.54 18.05 78.63 18.05 79.24 14.64 79.25 14.64 79.25 18.05 79.42 18.05 79.42 14.11 79.16 14.11 78.58 17.32"/>
    <polygon points="80.05 16.18 80.87 16.18 80.87 15.83 80.05 15.83 80.05 14.48 80.93 14.48 80.93 14.11 79.88 14.11 79.88 18.05 80.95 18.05 80.95 17.7 80.05 17.7 80.05 16.18"/>
    <polygon points="82.52 17.46 82.52 17.46 81.51 14.11 81.29 14.11 81.29 18.05 81.47 18.05 81.47 14.69 81.47 14.69 82.48 18.05 82.69 18.05 82.69 14.11 82.52 14.11 82.52 17.46"/>
    <polygon points="82.96 14.48 83.52 14.48 83.52 18.05 83.7 18.05 83.7 14.48 84.26 14.48 84.26 14.11 82.96 14.11 82.96 14.48"/>
    <path d="M86.34,17.49c-.04.07-.08.14-.12.19s-.09.07-.13.09c-.04.02-.09.02-.13.02-.11,0-.21-.05-.29-.14-.09-.09-.16-.21-.22-.37s-.11-.33-.14-.54-.05-.42-.05-.65.02-.44.05-.65c.03-.21.08-.4.14-.54.06-.16.13-.28.22-.37.09-.09.18-.14.29-.14.04,0,.09.02.13.05.04.02.09.07.13.12s.07.09.1.16.05.12.07.19l.15-.26c-.07-.23-.16-.37-.27-.49-.11-.09-.21-.14-.32-.14-.13,0-.24.05-.35.16-.11.09-.2.26-.28.44-.08.19-.14.4-.19.65-.04.26-.07.54-.07.84s.02.58.07.84c.04.26.11.47.19.65.08.19.17.33.28.44.11.09.22.16.35.16.07,0,.14-.02.2-.05.06-.05.12-.09.18-.16.05-.07.1-.14.14-.23.04-.09.08-.19.11-.28l-.14-.23s-.07.16-.1.23Z"/>
    <path d="M88.27,14.6c-.08-.19-.17-.33-.28-.44-.11-.09-.22-.16-.35-.16s-.24.05-.35.16c-.11.09-.2.26-.28.44-.08.19-.14.4-.19.65-.04.26-.07.54-.07.84s.02.58.07.84c.04.26.11.47.19.65.08.19.17.33.28.44.11.09.22.16.35.16s.24-.05.35-.16c.11-.09.2-.26.28-.44.08-.19.14-.4.19-.65.04-.26.07-.54.07-.84s-.02-.58-.07-.84c-.05-.26-.11-.47-.19-.65ZM88.28,16.74c-.03.21-.08.4-.14.54-.06.16-.13.28-.22.37-.09.09-.18.14-.29.14s-.21-.05-.29-.14c-.09-.09-.16-.21-.22-.37s-.11-.33-.14-.54-.05-.42-.05-.65.02-.44.05-.65c.03-.21.08-.4.14-.54.06-.16.13-.28.22-.37.09-.09.18-.14.29-.14s.21.05.29.14c.09.09.16.21.22.37s.11.33.14.54.05.42.05.65c0,.21-.01.44-.05.65Z"/>
    <polygon points="89.7 17.32 89.13 14.11 88.86 14.11 88.86 18.05 89.03 18.05 89.03 14.64 89.04 14.64 89.65 18.05 89.74 18.05 90.35 14.64 90.36 14.64 90.36 18.05 90.53 18.05 90.53 14.11 90.27 14.11 89.7 17.32"/>
    <polygon points="91.82 17.32 91.25 14.11 90.99 14.11 90.99 18.05 91.16 18.05 91.16 14.64 91.17 14.64 91.78 18.05 91.87 18.05 92.48 14.64 92.49 14.64 92.49 18.05 92.66 18.05 92.66 14.11 92.39 14.11 91.82 17.32"/>
    <path d="M94.15,16.53c0,.19-.01.35-.02.49-.02.14-.04.26-.06.35-.03.09-.06.16-.09.21s-.07.09-.1.12-.06.05-.1.07c-.03,0-.06.02-.08.02s-.05,0-.08-.02c-.03,0-.06-.02-.09-.07-.03-.02-.07-.07-.1-.12s-.06-.12-.09-.21-.05-.21-.06-.35c-.02-.14-.02-.3-.02-.49v-2.42h-.17v2.47c0,.16.01.33.03.51s.05.35.09.51c.05.16.11.28.19.4.08.09.18.16.31.16s.23-.05.31-.16c.08-.09.14-.23.19-.4s.08-.33.09-.51c.02-.19.03-.35.03-.51v-2.47h-.17v2.42h-.01Z"/>
    <polygon points="95.98 17.46 95.98 17.46 94.97 14.11 94.75 14.11 94.75 18.05 94.93 18.05 94.93 14.69 94.93 14.69 95.94 18.05 96.15 18.05 96.15 14.11 95.98 14.11 95.98 17.46"/>
    <rect x="96.61" y="14.11" width=".17" height="3.94"/>
    <polygon points="97.05 14.48 97.61 14.48 97.61 18.05 97.79 18.05 97.79 14.48 98.35 14.48 98.35 14.11 97.05 14.11 97.05 14.48"/>
    <polygon points="99.07 15.97 98.57 14.11 98.35 14.11 98.99 16.35 98.99 18.05 99.16 18.05 99.16 16.35 99.79 14.11 99.58 14.11 99.07 15.97"/>
    <path d="M34.58,12.66L29.47.92h-2.14l-5.08,11.74h2.85l.98-2.49h4.56l1.01,2.49h2.93ZM26.9,7.98l1.43-3.65,1.44,3.65h-2.87Z"/>
    <polygon points="43.74 3.3 43.74 .91 35.86 .91 35.86 12.66 38.45 12.66 38.45 8.08 43.34 8.08 43.34 5.69 38.45 5.69 38.45 3.3 43.74 3.3"/>
    <path d="M53.93,6.59c.43-.58.65-1.29.65-2.12,0-.69-.12-1.26-.36-1.72s-.56-.82-.96-1.09c-.4-.27-.87-.46-1.41-.58s-1.1-.17-1.7-.17h-4.55v11.74h2.59v-4.69h1.28l2.46,4.69h3.1l-2.99-4.96c.82-.15,1.45-.52,1.89-1.1ZM51.68,5.21c-.14.18-.31.31-.52.39s-.45.13-.71.15-.51.02-.74.02h-1.53v-2.67h1.69c.23,0,.47.02.71.05.24.03.46.1.65.19.19.09.34.23.46.41s.18.41.18.71c.02.32-.05.57-.19.75Z"/>
    <polygon points="63.96 12.66 66.55 12.66 66.55 .91 63.96 .91 63.96 5.29 58.94 5.29 58.94 .91 56.35 .91 56.35 12.66 58.94 12.66 58.94 7.58 63.96 7.58 63.96 12.66"/>
    <polygon points="77.02 3.3 77.02 .91 69.04 .91 69.04 12.66 77.31 12.66 77.31 10.27 71.62 10.27 71.62 7.88 76.72 7.88 76.72 5.49 71.62 5.49 71.62 3.3 77.02 3.3"/>
    <polygon points="87.77 10.27 82.08 10.27 82.08 7.88 87.17 7.88 87.17 5.49 82.08 5.49 82.08 3.3 87.47 3.3 87.47 .91 79.49 .91 79.49 12.66 87.77 12.66 87.77 10.27"/>
    <path d="M97.9,12.46c.76-.33,1.39-.85,1.89-1.54l-2.16-1.61c-.27.4-.6.71-1.01.93s-.88.33-1.41.33c-.46,0-.9-.09-1.3-.28s-.75-.45-1.05-.79-.53-.74-.7-1.19c-.17-.46-.26-.96-.26-1.52s.09-1.05.26-1.51c.17-.46.41-.87.71-1.2.3-.34.66-.6,1.08-.79.41-.19.87-.28,1.35-.28s.91.08,1.29.25c.37.17.68.4.94.71l1.99-1.63c-.25-.32-.54-.59-.86-.81s-.66-.4-1-.53c-.35-.13-.7-.23-1.06-.29-.36-.06-.71-.09-1.04-.09-.92,0-1.76.14-2.54.43-.77.29-1.44.7-2.01,1.24-.56.54-1,1.19-1.32,1.95s-.47,1.61-.47,2.55.16,1.79.47,2.55c.32.76.75,1.41,1.32,1.95.56.54,1.23.95,2.01,1.24.77.29,1.62.43,2.54.43.79,0,1.58-.17,2.34-.5Z"/>
  </g>
</svg>